<?xml version="1.0" encoding="utf-8"?>
<!-- Generator: Adobe Illustrator 23.0.0, SVG Export Plug-In . SVG Version: 6.00 Build 0)  -->
<svg version="1.1" id="Calque_1" xmlns="http://www.w3.org/2000/svg" xmlns:xlink="http://www.w3.org/1999/xlink" x="0px" y="0px"
	 viewBox="0 0 200 200" style="enable-background:new 0 0 200 200;" xml:space="preserve">
<style type="text/css">
	.st0{fill:#402D29;}
	.st1{fill:#C79A5C;}
	.st2{fill:#957857;}
	.st3{fill:#DFE1EE;}
	.st4{fill:#D6D8E5;}
	.st5{fill:#DD636F;}
</style>
<rect y="0" class="st0" width="200" height="200"/>
<g>
	<path class="st1" d="M104.13,102.89l-67.37,67.37c-6.13,6.13-16.18,6.13-22.42,0c-6.13-6.24-6.13-16.29,0-22.42l69.49-69.59
		c2.11-2.01,5.5-2.01,7.51,0l6.45,8.57l6.35,8.57C106.25,97.5,106.25,100.78,104.13,102.89z"/>
	<path class="st2" d="M104.13,102.89l-67.37,67.37c-6.13,6.13-16.18,6.13-22.42,0l83.45-83.45l6.35,8.57
		C106.25,97.5,106.25,100.78,104.13,102.89z"/>
	<path class="st1" d="M151.2,55.83l-5.29,5.39c-2.12,2.01-5.5,2.01-7.51,0l-8.57-6.45l-8.57-6.35c-2.01-2.12-2.01-5.5,0-7.51
		l7.51-7.51c5.92-6.03,16.39-5.92,22.42,0C157.33,39.65,157.33,49.69,151.2,55.83z"/>
	<path class="st2" d="M151.2,55.83l-5.29,5.39c-2.12,2.01-5.5,2.01-7.51,0l-8.57-6.45l21.36-21.36
		C157.33,39.65,157.33,49.69,151.2,55.83z"/>
	<path class="st3" d="M163.15,62.39l-0.74,14.17l-42.83,42.94l-14.17,0.74c-3.91-9.31-8.88-18.09-14.91-26.12
		c-3.38-4.55-7.09-8.88-11.11-12.9L68.91,70.85c-2.01-2.12-2.01-5.39,0-7.51l37.44-37.44c2.01-2.01,5.39-2.01,7.4,0l10.47,10.47
		c4.02,4.02,8.36,7.72,12.9,11.11C145.17,53.61,153.84,58.58,163.15,62.39z"/>
	<path class="st4" d="M163.15,62.39l-0.74,14.17l-42.83,42.94l-14.17,0.74c-3.91-9.31-8.88-18.09-14.91-26.12l46.64-46.64
		C145.17,53.61,153.84,58.58,163.15,62.39z"/>
	<path class="st5" d="M185.87,69.37c-6.79-1.36-15.4-3.94-22.74-7c-9.68,23.55-33.67,48.01-57.77,57.83
		c3.12,7.5,5.66,16.1,6.98,22.7c0.63,3.17,3.91,4.98,6.86,3.98c29.71-9.9,60.75-40.94,70.65-70.65
		C190.87,73.18,188.96,69.98,185.87,69.37z"/>
</g>
</svg>
