<?xml version="1.0" encoding="utf-8"?>
<!-- Generator: Adobe Illustrator 23.0.0, SVG Export Plug-In . SVG Version: 6.00 Build 0)  -->
<svg version="1.1" id="Calque_1" xmlns="http://www.w3.org/2000/svg" xmlns:xlink="http://www.w3.org/1999/xlink" x="0px" y="0px"
	 viewBox="0 0 200 200" style="enable-background:new 0 0 200 200;" xml:space="preserve">
<style type="text/css">
	.st0{fill:#7B3031;}
	.st1{fill:#577960;}
	.st2{fill:#957857;}
	.st3{fill:#8C633A;}
	.st4{fill:#5F8569;}
	.st5{fill:#6C9778;}
	.st6{fill:#DA9329;}
</style>
<rect y="0" class="st0" width="200" height="200"/>
<g>
	<path class="st1" d="M45.08,94.19l-9.61,3.2c-9.88,3.29-16.54,12.54-16.54,22.95v34.14c0,10.35,7.78,19.04,18.07,20.18l8.09,0.9
		l2.91-5.81L45.08,94.19z"/>
	<path class="st1" d="M155.54,94.19l9.61,3.2c9.88,3.29,16.54,12.54,16.54,22.95v34.14c0,10.35-7.78,19.04-18.07,20.18l-8.09,0.9
		l-2.91-11.63L155.54,94.19z"/>
	<path class="st2" d="M85.78,38.96v5.81H59.62v-5.81l4.29-23.25h17.44L85.78,38.96z"/>
	<path class="st2" d="M114.84,38.96v5.81H141v-5.81l-4.29-23.25h-17.44L114.84,38.96z"/>
	<path class="st3" d="M106.12,41.87c-1.61,0-2.91-1.3-2.91-2.91v-5.81c0-1.61-1.3-2.91-2.91-2.91c-1.61,0-2.91,1.3-2.91,2.91v5.81
		c0,1.61-1.3,2.91-2.91,2.91s-2.91-1.3-2.91-2.91v-5.81c0-4.82,3.9-8.72,8.72-8.72c4.82,0,8.72,3.9,8.72,8.72v5.81
		C109.03,40.57,107.73,41.87,106.12,41.87z"/>
	<path class="st4" d="M155.54,94.19v81.39c0,4.82-3.9,8.72-8.72,8.72H53.8c-4.82,0-8.72-3.9-8.72-8.72V94.19l5.37-34.91l0.44-2.87
		v-7.27c0-5.62,4.56-10.17,10.17-10.17h78.48c5.62,0,10.17,4.56,10.17,10.17v7.27l0.44,2.87L155.54,94.19z"/>
	<path class="st5" d="M181.7,120.35c0-10.41-6.66-19.66-16.54-22.95l-9.61-3.2v31.97h1.53C165.62,126.16,174.05,124.17,181.7,120.35
		z"/>
	<path class="st5" d="M18.93,120.35c0-10.41,6.66-19.66,16.54-22.95l9.61-3.2v31.97h-1.53C35,126.16,26.57,124.17,18.93,120.35z"/>
	<path class="st1" d="M66.16,114.53h68.31c3.61,0,6.54,2.93,6.54,6.54v42.15c0,3.61-2.93,6.54-6.54,6.54H66.16
		c-3.61,0-6.54-2.93-6.54-6.54v-42.15C59.62,117.46,62.55,114.53,66.16,114.53z"/>
	<path class="st5" d="M66.16,114.53h68.31c3.61,0,6.54,2.93,6.54,6.54v10.17c0,6.82-5.53,12.35-12.35,12.35H71.97
		c-6.82,0-12.35-5.53-12.35-12.35v-10.17C59.62,117.46,62.55,114.53,66.16,114.53z"/>
	<path class="st5" d="M131.56,91.28H69.06c-5.22,0-9.45-4.23-9.45-9.45V68.03H141v13.81C141,87.05,136.77,91.28,131.56,91.28z"/>
	<path class="st2" d="M78.51,158.13c-4.01,0-7.27-3.25-7.27-7.27V56.4h14.53v94.47C85.78,154.88,82.52,158.13,78.51,158.13z"/>
	<path class="st2" d="M122.11,158.13c-4.01,0-7.27-3.25-7.27-7.27V56.4h14.53v94.47C129.38,154.88,126.12,158.13,122.11,158.13z"/>
	<path class="st1" d="M150.17,59.27c-0.15,0.02-0.29,0.03-0.44,0.03H50.9c-0.15,0-0.3-0.01-0.44-0.03l0.44-2.87v-2.91h98.83v2.91
		L150.17,59.27z"/>
	<path class="st3" d="M74.15,117.44h8.72v2.91h-8.72V117.44z"/>
	<path class="st3" d="M117.75,117.44h8.72v2.91h-8.72V117.44z"/>
	<path class="st6" d="M85.78,131.97H71.24c-1.61,0-2.91-1.3-2.91-2.91v-14.53c0-1.61,1.3-2.91,2.91-2.91h14.53
		c1.61,0,2.91,1.3,2.91,2.91v14.53C88.68,130.67,87.38,131.97,85.78,131.97z M74.15,126.16h8.72v-8.72h-8.72V126.16z"/>
	<path class="st6" d="M129.38,131.97h-14.53c-1.61,0-2.91-1.3-2.91-2.91v-14.53c0-1.61,1.3-2.91,2.91-2.91h14.53
		c1.61,0,2.91,1.3,2.91,2.91v14.53C132.28,130.67,130.98,131.97,129.38,131.97z M117.75,126.16h8.72v-8.72h-8.72V126.16z"/>
	<g>
		<path class="st3" d="M71.24,59.31h14.53v5.81H71.24V59.31z"/>
		<path class="st3" d="M114.84,59.31h14.53v5.81h-14.53V59.31z"/>
	</g>
</g>
</svg>
