<?xml version="1.0" encoding="utf-8"?>
<!-- Generator: Adobe Illustrator 23.0.0, SVG Export Plug-In . SVG Version: 6.00 Build 0)  -->
<svg version="1.1" id="Calque_1" xmlns="http://www.w3.org/2000/svg" xmlns:xlink="http://www.w3.org/1999/xlink" x="0px" y="0px"
	 viewBox="0 0 200 200" style="enable-background:new 0 0 200 200;" xml:space="preserve">
<style type="text/css">
	.st0{fill:#E17369;}
	.st1{fill:#B7DAF4;}
	.st2{fill:#4E63AB;}
	.st3{fill:#3A53A0;}
	.st4{fill:#6C7CBB;}
	.st5{fill:#8995CB;}
</style>
<rect y="0" class="st0" width="200" height="200"/>
<g>
	<path class="st1" d="M129.13,71.73l-9.79-7.32c-0.94-0.71-1.5-1.81-1.5-2.99v-9.9H82.7v9.9c0,1.17-0.55,2.28-1.5,2.99l-9.79,7.32
		c-4.64,3.47-7.38,8.93-7.38,14.73v99.37c0,3.5,2.84,6.35,6.35,6.35h59.78c3.51,0,6.35-2.84,6.35-6.35V86.46
		C136.51,80.66,133.77,75.2,129.13,71.73z"/>
	<path class="st2" d="M113.45,16.49l-3.21-5.68c-1.44-2.54-4.13-4.11-7.05-4.11c-2.11,0-3.72,0-5.83,0c-2.92,0-5.61,1.57-7.05,4.11
		l-3.22,5.68c-0.69,1.22-1.05,2.59-1.05,3.99v11.18c0.77-0.37,1.63-0.59,2.54-0.59h23.36c0.91,0,1.77,0.22,2.54,0.59V20.48
		C114.5,19.08,114.13,17.71,113.45,16.49z M100.27,24.56c-3.13,0-5.67-2.54-5.67-5.67c0-3.13,2.54-5.67,5.67-5.67
		c3.13,0,5.67,2.54,5.67,5.67S103.4,24.56,100.27,24.56z"/>
	<path class="st3" d="M97.15,23.62c-1.54-1.01-2.55-2.75-2.55-4.73c0-3.05,2.42-5.54,5.44-5.66l1.37-2.43
		c0.99-1.75,2.57-3.03,4.41-3.67c-0.84-0.29-1.72-0.44-2.63-0.44c-2.11,0-3.72,0-5.83,0c-2.92,0-5.61,1.57-7.05,4.11l-3.21,5.68
		c-0.69,1.22-1.05,2.59-1.05,3.99v11.18c0.77-0.37,1.63-0.59,2.55-0.59h8.56L97.15,23.62L97.15,23.62z"/>
	<path class="st4" d="M117.84,41.44v-4.86c0-3.24-2.65-5.89-5.89-5.89H88.59c-3.24,0-5.89,2.65-5.89,5.89v4.86H117.84z"/>
	<path class="st5" d="M118.51,41.07H82.03c-1.14,0-2.06,0.92-2.06,2.06v6.71c0,1.14,0.92,2.06,2.06,2.06h36.47
		c1.14,0,2.06-0.92,2.06-2.06v-6.71C120.56,41.99,119.64,41.07,118.51,41.07z"/>
</g>
</svg>
