<?xml version="1.0" encoding="utf-8"?>
<!-- Generator: Adobe Illustrator 23.0.0, SVG Export Plug-In . SVG Version: 6.00 Build 0)  -->
<svg version="1.1" id="Calque_1" xmlns="http://www.w3.org/2000/svg" xmlns:xlink="http://www.w3.org/1999/xlink" x="0px" y="0px"
	 viewBox="0 0 200 200" style="enable-background:new 0 0 200 200;" xml:space="preserve">
<style type="text/css">
	.st0{fill:#F7B494;}
	.st1{fill:#C79A5C;}
	.st2{fill:#BC8754;}
	.st3{fill:#957857;}
	.st4{fill:#8A7058;}
	.st5{fill:#6A6C70;}
	.st6{fill:#626368;}
	.st7{fill:#DD636F;}
	.st8{fill:#DA4B54;}
	.st9{fill:#DFE1EE;}
	.st10{fill:#D6D8E5;}
</style>
<rect x="0.18" y="0" class="st0" width="200" height="200"/>
<g>
	<path class="st1" d="M155.01,181.81L18.42,45.23c-2.11-2.11-2.57-5.83,0.51-8.15c1.25-0.94,2.6-1.83,3.95-2.67L165.6,177.13
		c-0.84,1.35-1.71,2.67-2.67,3.95c-0.03,0.03-0.03,0.03,0,0.05C160.69,184.03,157.12,183.72,155.01,181.81z"/>
	<path class="st2" d="M155.01,181.81L86.09,112.9l7.64-7.64l71.87,71.87c-0.84,1.35-1.71,2.67-2.67,3.95
		c-0.03,0.03-0.03,0.03,0,0.05C160.69,184.03,157.12,183.72,155.01,181.81z"/>
	<path class="st3" d="M162.93,181.13c-0.03-0.03-0.03-0.03,0-0.05c0.97-1.27,1.83-2.6,2.67-3.95c19.3-32.03,2.7-88.95-25.54-117.19
		l-0.51-0.51C111.17,31.5,54.75,15.26,22.88,34.41c-1.35,0.84-2.7,1.73-3.95,2.67c-3.08,2.32-2.62,6.03-0.51,8.15
		c1.35,1.35,3.36,2.04,5.55,1.27c2.77-0.99,5.93-1.55,9.29-1.71c25.41-1.12,65.3,19.83,83.38,37.55l0.51,0.51
		c17.85,17.85,39.21,58.25,38.06,83.89c-0.15,3.36-0.71,6.52-1.65,9.29c-0.69,1.96-0.31,3.72,0.71,5.04
		c0.23,0.28,0.46,0.51,0.74,0.74C157.12,183.72,160.69,184.03,162.93,181.13z"/>
	<path class="st4" d="M155.01,181.81c-0.28-0.23-0.51-0.46-0.74-0.74c-1.02-1.32-1.4-3.08-0.71-5.04c0.94-2.77,1.5-5.93,1.65-9.29
		c1.15-25.64-20.21-66.04-38.06-83.89l-0.51-0.51l22.91-22.91l0.51,0.51c28.23,28.23,44.83,85.16,25.54,117.19
		c-0.84,1.35-1.71,2.67-2.67,3.95c-0.03,0.03-0.03,0.03,0,0.05C160.69,184.03,157.12,183.72,155.01,181.81z"/>
	<polygon class="st5" points="166.29,40.34 41.72,164.91 39.81,159.18 34.08,157.27 158.65,32.7 	"/>
	<polygon class="st6" points="39.81,159.18 41.72,164.91 166.29,40.34 162.47,36.52 	"/>
	<path class="st7" d="M78.4,158.67c1.45-1.45,2.01-3.54,1.35-5.47l-6.59-19.73l-1.04-3.18c-0.23-0.74-0.71-1.48-1.32-2.09
		c-0.59-0.59-1.32-1.07-2.09-1.32l-3.18-1.04l-19.73-6.59c-1.94-0.66-4.07-0.15-5.52,1.3l-22.91,22.91
		c-2.83,2.83-1.71,7.66,2.11,8.94l14.61,4.89l5.73,1.91l1.91,5.73l4.89,14.61c1.25,3.79,6.06,4.94,8.91,2.09L78.4,158.67z"/>
	<path class="st8" d="M55.51,181.61c-2.85,2.85-7.66,1.71-8.91-2.09l-4.89-14.61l-1.91-5.73l30.98-30.98
		c0.61,0.61,1.09,1.35,1.32,2.09l1.04,3.18l6.59,19.73c0.66,1.94,0.1,4.02-1.35,5.47L55.51,181.61z"/>
	<path class="st9" d="M169.39,51.95l11.23-26.5c0.87-2.04,0.41-4.38-1.15-5.93c-1.55-1.55-3.89-2.01-5.93-1.15l-26.5,11.23
		c-2.01,0.84-3.31,2.8-3.31,4.99v15.28c0.03,1.5,0.61,2.85,1.58,3.82c0.99,0.99,2.34,1.58,3.82,1.58h15.28
		C166.59,55.26,168.55,53.96,169.39,51.95z"/>
	<path class="st10" d="M164.4,55.26h-15.28c-1.48,0-2.83-0.59-3.82-1.58l34.17-34.17c1.55,1.55,2.01,3.89,1.15,5.93l-11.23,26.5
		C168.55,53.96,166.59,55.26,164.4,55.26z"/>
</g>
</svg>
