<?xml version="1.0" encoding="utf-8"?>
<!-- Generator: Adobe Illustrator 23.0.0, SVG Export Plug-In . SVG Version: 6.00 Build 0)  -->
<svg version="1.1" id="Layer_3" xmlns="http://www.w3.org/2000/svg" xmlns:xlink="http://www.w3.org/1999/xlink" x="0px" y="0px"
	 viewBox="0 0 450 450" style="enable-background:new 0 0 450 450;" xml:space="preserve">
<style type="text/css">
	.st0{clip-path:url(#SVGID_2_);}
	.st1{fill:#5E5544;}
	.st2{fill:#AA987B;}
	.st3{fill:#D8C09B;}
	.st4{fill:#918269;}
	.st5{fill:#2E2E2D;}
	.st6{fill:#262626;}
	.st7{fill:#242424;}
	.st8{fill:#524A3B;}
	.st9{opacity:0.15;clip-path:url(#SVGID_2_);fill:#1D1D1B;}
	.st10{opacity:0.5;clip-path:url(#SVGID_2_);}
	.st11{fill:#80432D;}
	.st12{opacity:0.2;clip-path:url(#SVGID_2_);fill:#1D1D1B;}
	.st13{opacity:0.1;clip-path:url(#SVGID_2_);fill:#1D1D1B;}
	.st14{opacity:0.3;clip-path:url(#SVGID_2_);fill:#1D1D1B;}
	.st15{fill:#ACACAC;}
	.st16{fill:#565555;}
	.st17{fill:#3D3D3C;}
</style>
<g>
	<defs>
		<rect id="SVGID_1_" x="-0.02" y="0.41" width="450.02" height="449.59"/>
	</defs>
	<clipPath id="SVGID_2_">
		<use xlink:href="#SVGID_1_"  style="overflow:visible;"/>
	</clipPath>
	<g class="st0">
		<rect class="st1" width="450" height="450"/>
		<g>
			<polygon class="st2" points="741.29,356.42 429.31,346.47 419.94,346.17 408.35,346.97 394.39,347.95 388.7,348.32 
				230.26,359.43 230.21,359.43 155.87,364.58 88.1,369.3 78.21,369.97 78.06,369.98 72.15,370.41 67.41,370.71 60.12,369.43 
				55.05,368.51 -4.66,357.83 -27.29,353.78 -42.02,351.14 -69.62,346.17 -169.5,347.4 -210.62,347.89 -241.19,348.26 
				-181.48,255.86 -181.48,213.83 -134.24,166.95 -120.39,79.03 -53.56,38.16 -35.18,-19.69 8.97,-47.73 42.46,-109.89 
				130.38,-150.81 190.14,-220.33 242.62,-257.63 274.14,-211.43 278.77,-204.62 306.86,-163.45 325.02,-149.77 422.31,-76.33 
				479.92,17.24 501.67,35.89 519.27,50.99 578.38,101.73 583.4,106.02 585.44,110.75 619.55,189.59 634.56,207.69 642.45,217.2 
				674.46,255.86 			"/>
			<path class="st3" d="M278.77-204.63l-10.87,1.17l-17.83-34.36l-22.41,26.69l-37.53,26.08l-25.72,38.35l7.62,21.47l-36.59,7.85
				l11.15,20.49l25.44,30.92l-64.35-10.37L56.15-87.25c0,0-11.75,35.65-15.18,39.51C37.5-43.93,8.52-15.71,8.52-15.71l-16,47.61
				l-5.79,74.12l-16.83-31.66l-31.35-9.2l-8.17,26.69l-30.9,2.82l-3.7,50.07l21.91,32.76l-21.91,67.62v-43.38l-30.02-9.57
				l-21.52,24.36l2.7,68.53l-49.5,33.75l-8.06,29.08l-30.57,0.37l59.71-92.4v-42.03l47.24-46.88l13.85-87.92l66.83-40.86
				l18.38-57.86L8.97-47.74l33.5-62.15l87.91-40.92l59.77-69.52l52.48-37.3L278.77-204.63z"/>
			<polygon class="st4" points="269.94,91.79 269.67,92.22 254.27,61.97 242.4,38.71 215.03,74.91 186.78,93.57 145.99,135.66 
				90.81,172.1 64.98,219.65 49.36,312.12 78.06,369.98 72.15,370.41 67.41,370.71 60.12,369.42 55.05,368.5 0.06,358.67 
				23.43,335.92 0.41,312.27 31.54,300.52 41.53,267.39 25.19,240.82 31.54,217.2 14.48,195.54 14.48,161 31.54,190.39 
				57.64,189.04 67.35,167.68 57.64,144.68 100.35,83.63 100.35,134.8 130.98,101.6 154.38,93.01 181.42,66.2 210.29,48.78 
				229.82,20.06 210.29,-13.99 223.25,-49.76 210.29,-71.24 223.36,-89.95 229.82,-61.91 242.02,-31.91 249.36,10.86 256.42,48.78 
				257.47,52.03 			"/>
			<polygon class="st3" points="-46.17,60.88 -82.31,60.88 -72.91,78.97 -84.89,107.72 -64.63,131.25 -54.51,183.88 -48.53,137.37 
				-42.52,125.33 -64.63,109.51 -42.52,76.51 			"/>
			<polygon class="st3" points="-13.25,17.23 20.3,35.87 49.79,9.75 91.14,-4.19 115.74,-58.88 84.61,-30.5 45.78,-15.71 
				26.46,0.55 18.79,-37.2 			"/>
			<path class="st3" d="M34.74-55.44c2.76-0.77,40.01,0,40.01,0L45.09-89.95L34.74-55.44z"/>
			<polygon class="st4" points="-27.29,353.78 -42.03,351.14 -69.62,346.17 -169.51,347.4 -167.63,332.92 -130.82,323.71 
				-116.09,298.43 -91.25,290.95 -84.91,261.31 -63.71,232.66 -71.94,268.49 -72.87,306.29 -92.19,325.74 -68.29,332.92 
				-53.56,318.8 -37.94,334.94 			"/>
			<path class="st4" d="M741.29,356.42l-311.98-9.95l-9.37-0.3l-12.67-0.15l-18.01-0.13l5.13-21.81l0.67-2.91l15.88-10.77l0.02-0.11
				l8.98-60.2l14.9,49.08l-6.46,28.6l37.75,6.13l13.79-24.6l11.04,20.55l14.68-36.63l-20.2-22.7l5.52-20.43l-2.76-35.83l17.44-30.37
				v48.77l27.43,26.63v39.88l35.15-5.95l5.52-34.97l22.08,40.92l23.89,29.64l39.4,2.02l-35.04-30.67l27.81,2.08l34.55,22.46
				l-7.17-37.8c0,0-33.78-18.4-36.54-19.45c-2.76-1.04-0.55-35.83-5.35-34.79c-4.8,1.05-44.31,0-44.31,0l16.27-20.08l0.28-0.35
				l24.95-4.54l7.88,9.51l32.02,38.66L741.29,356.42z"/>
			<path class="st3" d="M249.31,83.63c-1.67-4.93,12.74-44.89,12.74-44.89l20.01,37.29l4,33.82l24.01-8.23l-12.01-32.71l25.62,5.38
				l-9.61,9.34l9.61,41.34l-19.21,16.61l15.21,26.11l40.82,24.03l14.42,20.72l26.8,42.45l-8.41,46.96c0,0-72.04-57.62-75.24-58.51
				c-3.2-0.89-35.22-10.68-36.02-13.35c-0.8-2.67-7.75-57.85-7.75-57.85l-35.48-40.94L249.31,83.63z"/>
			<path class="st5" d="M397.15,312.12c0,0,0,0.12-0.06,0.31c-0.05,0.06-0.05,0.18-0.11,0.3c-0.06,0.25-0.11,0.62-0.22,0.98
				c-0.17,0.93-0.5,2.09-0.83,3.56c-0.16,0.92-0.38,1.91-0.66,3.01c-0.07,0.29-0.14,0.59-0.21,0.89c-0.21,0.93-0.44,1.9-0.67,2.91
				c-1.51,6.48-3.38,14.39-4.81,20.5c-0.27,1.16-0.55,2.21-0.77,3.19c-0.05,0.18-0.11,0.37-0.11,0.55l-158.44,11.11h-0.05
				l-74.34,5.15L88.1,369.3l-9.89,0.67l-0.15,0.01l-0.03-0.06l-10.09-20.34l-18.58-37.46l15.62-92.46l25.83-47.56l55.18-36.44
				l40.79-42.09l28.25-18.65l27.37-36.2l11.85,23.15l0.02,0.04v0.06l15.4,30.25l4.8,9.39l6.34,16.38l20.04,51.72l29.47,18.22
				l12.58,7.8l39.62,37.36l11.75,63.46l0.01,0.05l0.54,2.93L397.15,312.12z"/>
			<path class="st4" d="M642.45,217.2c-19.48-1.72-42.83-5.64-43.6-8.22c-1.21-4.42-6.73-53.5-6.73-53.5l-38.63-20l14.35-29.45
				l-42.27-28.41l-6.29-26.63l59.1,50.74l7.06,9.02l34.11,78.84l15.01,18.1L642.45,217.2z"/>
			<path class="st3" d="M451.39,15.58l-9.27,16.32l18.93,45.71l-41.11-21.11l-11.31-40.92l33.5-27.06l-22.19-32.46l-25.55-11.47
				l-21.63-34.54c0,0-48.29-27.61-52.43-27.61c-4.14,0,0-24.54,0-24.54l-6.9-4.6l-13.8,3.07l-25.88,10.74l5.02,35.28l-28.7-41.42
				l23.67-30.68c0,0,0.28-21.17,0.39-41.72l4.63,6.81l28.09,41.17l18.16,13.68l97.29,73.44l57.61,93.57l21.74,18.65h-0.83
				L451.39,15.58z"/>
			<polygon class="st4" points="552.11,232.35 532.91,192.65 500.85,167.55 467.95,192.65 442.11,137.53 401.73,137.53 
				401.73,40.24 419.94,109.8 461.05,121.18 484.78,150.6 512.61,137.53 476.23,76.03 500.85,66.13 500.85,89.51 532.91,121.18 
				545.99,179.98 567.84,204.51 552.11,288.78 			"/>
			<path class="st6" d="M397.15,312.12c0,0,0,0.12-0.06,0.31c-0.05,0.06-0.05,0.18-0.11,0.3c-0.06,0.25-0.11,0.62-0.22,0.98
				c-0.17,0.93-0.5,2.09-0.83,3.56c-0.16,0.92-0.38,1.91-0.66,3.01c-0.07,0.29-0.14,0.59-0.21,0.89c-0.21,0.93-0.44,1.9-0.67,2.91
				c-1.51,6.48-3.38,14.39-4.81,20.5c-0.27,1.16-0.55,2.21-0.77,3.19c-0.05,0.18-0.11,0.37-0.11,0.55l-158.44,11.11h-0.05
				l-74.34,5.15l-15.57-31.3l-4.46-8.95l12.58-74.67l20.92-38.35l44.48-29.39l32.94-33.93l4.2-2.76l0.01-0.01l18.59-12.32
				l11.25-14.91l20.04,51.72l29.47,18.22l12.58,7.8l39.62,37.36l11.75,63.46l0.01,0.05l0.54,2.93L397.15,312.12z"/>
			<path class="st7" d="M397.15,312.12c0,0,0,0.12-0.06,0.31c-0.05,0.06-0.05,0.18-0.11,0.3c-0.06,0.25-0.11,0.62-0.22,0.98
				c-0.17,0.93-0.5,2.09-0.83,3.56c-0.16,0.92-0.44,1.91-0.66,3.01c-0.07,0.29-0.14,0.59-0.21,0.89c-0.21,0.93-0.44,1.9-0.67,2.91
				c-1.51,6.48-3.38,14.39-4.81,20.5c-0.27,1.16-0.55,2.21-0.77,3.19c-0.05,0.18-0.11,0.37-0.11,0.55l-158.44,11.11h-0.05
				l-2.04-4.18l6.76-40.12l5.82-34.55l20.86-38.34l20.23-13.36l0.02-0.02l24.23-16.01l24.23-24.92l12.58,7.8l39.62,37.36
				l11.75,63.46l0.01,0.05l0.54,2.93L397.15,312.12z"/>
		</g>
		<path class="st8" d="M397.15,312.12c0,0,0,0.12-0.06,0.31c-0.05,0.06-0.05,0.18-0.11,0.3c-0.06,0.25-0.11,0.62-0.22,0.98
			c-0.17,0.93-0.5,2.09-0.83,3.56c-0.16,0.92-0.44,1.91-0.66,3.01c-0.07,0.29-0.14,0.59-0.21,0.89c-0.21,0.93-0.44,1.9-0.67,2.91
			c-1.51,6.48-3.38,14.39-4.81,20.5c-0.27,1.16-0.55,2.21-0.77,3.19c-0.05,0.18-113.35,16.81-113.35,16.81l-36.63,5.4l-57.85,8.49
			L88.1,369.3l-9.89,0.67c-0.06-0.01-0.12-0.02-0.18-0.05c-0.39-0.09-0.77-0.19-1.15-0.3c-5.78-1.65-10.74-6.47-15.87-3.15
			c-3.09-7.75,0.35-13.11,6.93-16.89c14.32-8.27,43.55-9.14,53.11-11.25c6.62-1.46,12.95-3.14,19.25-5.05
			c5.9-1.79,11.79-3.77,17.83-5.99c6.16-2.26,10.75-2.91,17.1-2.96c6.21-0.06,11.12-2.83,17.09-3.89c6.8-1.21,13.65-1.57,20.67-1.95
			c7.37-0.4,14.27-3.05,21.55-3.35c0.13,0,0.26-0.01,0.39-0.01c8.01-0.26,15.62,1.98,23.73,0.82c6.08-0.86,11.81-3.02,17.82-4.11
			c13.4-2.41,27.42-3.49,41.01-5.22c8.24-1.05,16.52,2,24.63,1.22c6.65-0.64,13.39-3.43,20.34-4.07c8.64-0.79,18.71-3.84,27.91-4.27
			c1.14-0.05,2.27-0.07,3.38-0.03c0.36,0.01,0.72,0.03,1.07,0.06L397.15,312.12z"/>
		<path class="st1" d="M100.05,486.79"/>
		<path class="st1" d="M429.38,499.04"/>
		<path class="st1" d="M450,450"/>
		<path class="st1" d="M32.6,351.04c7.2,0.46,13.67-1.31,20.68-2.25c16.08-2.15,30.24,5.63,46.3,4.49
			c16.97-1.21,110.51,3.19,116.94,3.6c7.84,0.51,120.04-11.32,136.82-10.36c18.3,1.05,36.48-0.96,54.8,0.03
			c23.32,1.26,18.62-0.75,41.86,0.74"/>
		<path class="st1" d="M-35.82,393.56"/>
		<path class="st1" d="M0,450"/>
		<polygon class="st3" points="337.23,59.58 337.23,107.49 351.67,123.54 337.23,151.88 351.67,177.54 370.85,180.75 381.68,208.82 
			414.23,235.92 389.15,192.77 388.83,169.05 371.25,165.11 354.41,150.27 363.83,123.47 346.86,95.79 		"/>
		<polygon class="st4" points="119.65,105.58 123.65,65.58 144.98,54.57 150.32,32.92 131.65,18.25 163.65,24.58 163.65,44.92 
			189.65,37.58 200.32,13.58 203.65,40.92 161.65,54.57 155.65,73.58 138.98,71.58 		"/>
		<path class="st4" d="M463.65,288.76c0,0.37-22.67-30.15-22.67-30.15l-4-36.8l-18-13.62c0,0,9.33-45.72,8.67-47.06
			c-0.67-1.33,7.33,35.46,7.33,35.46l26.67,8.77c0,0,1.33,40.55,2,42.5C464.32,249.8,463.65,288.76,463.65,288.76z"/>
		<path class="st4" d="M-9.35,141.14l20-39.17l15,22.17l26-9.01l24-39.73l-16,52.23L34.74,139.1c0,0,3.09,28.01,0,26.52
			c-3.09-1.48-19.09-15.22-19.09-15.22s-16,9.08-20,7.41C-8.35,156.14-9.35,141.14-9.35,141.14z"/>
		<path class="st4" d="M0.06,237.23v-45.4l18.52,47.87L8.74,265.3c0,0,21.75,17.91,18.51,19C23.99,285.39,0,286.71,0,286.71"/>
	</g>
	<path class="st9" d="M88.5,340l-17.25-14.72l6.28-23.4L69,289.99l-4.25-19.97l9-22.02l1.75-24.82l6,31.04l-6.5,15.8l6.25,18.33
		l12,12.84l-2.75,19.19l22,16c0,0-7.76,2.42-8.63,2C103.01,337.96,88.5,340,88.5,340z"/>
	<polygon class="st9" points="103,307.63 119,296.98 118.25,276.5 131.25,266.57 138.41,245.48 139.5,270.02 127.53,282.19 
		131.5,299.87 126,320.61 118.5,334.5 117.5,315.09 95.5,319.14 	"/>
	<polygon class="st9" points="104.5,294.6 94.5,286.23 94.25,268.72 86,258.66 88.25,239.84 93,255.25 103.25,264.85 101.5,278.14 	
		"/>
	<polygon class="st9" points="157.75,282.69 152.95,270.57 161.07,255.05 158.61,242.28 169.55,226.81 166.39,242.62 170.83,255.94 
		162.96,266.79 	"/>
	<polygon class="st9" points="111.33,267.95 102,249.97 98,232.71 85.67,229.89 82.35,207 94,177.33 90.33,205.33 93,221.67 
		102.33,224.94 108.12,245.48 	"/>
	<polygon class="st9" points="118.33,256.62 130.67,239.84 143,239.43 154.67,218.67 169,206 150.33,212 139.67,232.71 
		126.67,231.93 	"/>
	<polygon class="st9" points="215.09,201.37 227.42,184.59 239.76,184.18 251.42,163.42 265.76,150.75 247.09,156.75 236.42,177.46 
		223.42,176.68 	"/>
	<polygon class="st9" points="114.67,234.13 115.33,214.3 125.67,200.33 124.33,184.33 134.67,153.67 132.33,185 136.67,200.67 
		127.33,214.3 144.33,214.3 136,227.88 124.67,223.18 	"/>
	<polygon class="st9" points="201.58,313.62 202.24,293.78 212.58,279.82 211.24,263.82 221.58,233.15 219.24,264.49 223.58,280.15 
		214.24,293.78 231.24,293.78 222.91,307.37 211.58,302.67 	"/>
	<polygon class="st9" points="102.33,210.67 108.12,189 100.33,173.33 112.33,180 124.33,157 118.67,191.67 	"/>
	<polygon class="st9" points="150.33,196.35 175.67,199.67 197,187.67 198.66,158 222.38,160.33 194.96,149 190,181.67 176.33,189 
		169.33,163.33 167.33,188.67 	"/>
	<polygon class="st9" points="142.84,316.62 168.17,319.93 189.5,307.93 191.17,278.26 214.89,280.6 187.47,269.26 182.5,301.93 
		168.84,309.26 161.84,283.6 159.84,308.93 	"/>
	<polygon class="st9" points="148.33,184.33 150,153.67 156.33,138 170.33,119.33 171.67,143.33 180.33,159 163.67,148 	"/>
	<polygon class="st9" points="173.26,286.71 174.92,256.05 181.26,240.38 195.26,221.71 196.59,245.71 205.26,261.38 188.59,250.38 
			"/>
	<polygon class="st9" points="185.33,145.67 183.73,127.33 189.33,100.67 202.04,125.33 	"/>
	<polygon class="st9" points="203.81,241.35 202.2,223.02 207.81,196.35 220.51,221.02 	"/>
	<polygon class="st9" points="204.33,142.67 227.5,149 242.03,143 255.94,136.33 265.63,122.33 276.22,116.52 260.6,114.33 
		251.72,130 237.92,137 	"/>
	<polygon class="st9" points="227.85,281.17 240.48,260.74 238.84,245.11 236.38,229.88 225.7,216.63 223.12,204.82 216.6,219.18 
		229.12,232.14 231.92,247.36 	"/>
	<path class="st9" d="M204.67,164.33l0.67,15.67c0,0,21-13.33,19.67-13.33C223.67,166.67,204.67,164.33,204.67,164.33z"/>
	<path class="st9" d="M299.67,185.33l0.67,15.67c0,0,21-13.33,19.67-13.33S299.67,185.33,299.67,185.33z"/>
	<polygon class="st9" points="273.57,160.68 289.78,170.59 281.45,138.36 281.24,156.57 	"/>
	<polygon class="st9" points="199.68,97.33 218.51,125.33 242.03,124.67 251.72,107.33 267.46,104.33 249.25,92.33 237.92,113.33 
		219.52,114 	"/>
	<polygon class="st9" points="231.17,199.88 250.01,227.88 273.53,227.22 283.22,209.88 298.96,206.88 280.74,194.88 269.41,215.88 
		251.02,216.55 	"/>
	<path class="st9" d="M213.13,95c0,0,21.87,7.33,21.87,6.33s10.72-18,10.72-18s15.15,4.33,14.88,3.33
		c-0.27-1-12.16-11.33-12.16-11.33L233.24,84l8.96-33.67l-14.7,32l1.04,12L213.13,95z"/>
	<path class="st9" d="M244.19,193.75c0,0,21.87,7.33,21.87,6.33s10.72-18,10.72-18s15.15,4.33,14.88,3.33
		c-0.27-1-12.16-11.33-12.16-11.33l-15.21,8.67l8.96-33.67l-14.7,32l1.04,12L244.19,193.75z"/>
	<g class="st10">
		<path class="st11" d="M122.62,221.22c-4.85-2.8-12.13-3.21-18.01-3.41c-0.22-0.01-0.32,0.33-0.1,0.36
			c2.86,0.44,5.69,0.97,8.52,1.48c0.76,0.14,1.51,0.32,2.26,0.51c-0.03,0.06-0.08,0.1-0.1,0.17c-0.16,0.75-0.01,3.9-0.99,4.14
			c-1.35,0.34-2.79,0.43-4.12,1.04c-0.23-0.28-0.47-0.57-0.72-0.84c0.34-0.38,0.58-0.84,0.58-1.32c0.01-1.02-0.82-1.65-1.84-1.37
			c-0.38,0.1-0.8,0.43-1.11,0.83c-0.16,0.09-0.28,0.24-0.32,0.48c0,0.03,0,0.06-0.01,0.09c-0.13,0.32-0.13,0.64,0.04,0.88
			c0.14,0.71,0.54,1.38,1.25,1.26c0.12-0.02,0.25-0.06,0.37-0.11c0.05,0.31,0.16,0.61,0.3,0.9c-0.04,0-0.05-0.02-0.09-0.02
			c-1.9,0.28-3.47,1.38-5.44,1.27c-1.8-0.1-3.48-0.59-5.21-0.89c-0.2-0.04-0.37,0.29-0.22,0.41c2.47,1.93,7.87,3.4,11.13,0.33
			c0.12-0.11,0.2-0.24,0.25-0.37c0.06,0.09,0.13,0.18,0.2,0.27c0.59,1.06,1.32,2.02,2.01,3c0.39,0.56,0.78,1.49,1.43,1.83
			c-1.23,1.92-1.34,4.29-1.24,6.27c0.09,1.99,0.21,4.5,1.58,5.76c0.2,0.18,0.56-0.06,0.58-0.35c0.12-1.97-0.68-3.69-0.65-5.69
			c0.02-1.35,0.34-2.75,0.5-4.12c0.32,0.75,0.77,1.42,1.29,1.96c1.29,1.36,3.39,3.14,5.5,3.09c0.33-0.01,0.75-0.43,0.51-0.74
			c-0.99-1.3-2.79-1.8-4.07-2.8c-1.29-1.02-1.75-2.46-2.45-3.84c0.05-0.07,0.1-0.15,0.09-0.24c-0.03-1.52-1.5-2.57-2.37-3.58
			c-0.41-0.56-0.83-1.11-1.28-1.64c0.66-0.05,1.33-0.2,2-0.32c0.67-0.12,1.66-0.14,2.29-0.63c1.18-0.91,1.48-3.6,1.21-4.86
			c2.04,0.55,4.08,1.13,6.22,1.29C122.7,221.72,122.83,221.34,122.62,221.22z"/>
		<path class="st11" d="M134.49,229.31c-3.02-1.74-7.56-2-11.22-2.12c-0.14,0-0.2,0.21-0.07,0.23c1.78,0.27,3.55,0.6,5.31,0.92
			c0.47,0.09,0.94,0.2,1.41,0.32c-0.02,0.04-0.05,0.06-0.06,0.11c-0.1,0.47,0,2.43-0.62,2.58c-0.84,0.21-1.74,0.27-2.56,0.64
			c-0.15-0.18-0.29-0.35-0.45-0.52c0.21-0.23,0.36-0.52,0.36-0.82c0-0.64-0.51-1.03-1.14-0.86c-0.24,0.06-0.5,0.27-0.69,0.51
			c-0.1,0.06-0.18,0.15-0.2,0.3c0,0.02,0,0.04,0,0.05c-0.08,0.2-0.08,0.4,0.03,0.55c0.09,0.44,0.33,0.86,0.78,0.78
			c0.08-0.01,0.15-0.04,0.23-0.07c0.03,0.2,0.1,0.38,0.19,0.56c-0.02,0-0.03-0.01-0.06-0.01c-1.18,0.17-2.16,0.86-3.39,0.79
			c-1.12-0.06-2.17-0.37-3.24-0.55c-0.13-0.02-0.23,0.18-0.14,0.25c1.54,1.2,4.9,2.12,6.94,0.21c0.07-0.07,0.12-0.15,0.15-0.23
			c0.04,0.06,0.08,0.11,0.13,0.17c0.37,0.66,0.82,1.26,1.25,1.87c0.25,0.35,0.49,0.93,0.89,1.14c-0.77,1.2-0.83,2.67-0.78,3.91
			c0.06,1.24,0.13,2.8,0.98,3.59c0.12,0.11,0.35-0.04,0.36-0.22c0.07-1.23-0.43-2.3-0.4-3.54c0.01-0.84,0.21-1.72,0.31-2.57
			c0.2,0.46,0.48,0.88,0.8,1.22c0.8,0.85,2.11,1.96,3.43,1.93c0.21,0,0.46-0.27,0.32-0.46c-0.62-0.81-1.74-1.12-2.53-1.75
			c-0.81-0.63-1.09-1.53-1.53-2.39c0.03-0.05,0.06-0.1,0.06-0.15c-0.02-0.95-0.93-1.6-1.48-2.23c-0.26-0.35-0.52-0.69-0.8-1.02
			c0.41-0.03,0.83-0.13,1.25-0.2c0.42-0.07,1.04-0.09,1.43-0.39c0.74-0.57,0.92-2.25,0.75-3.03c1.27,0.34,2.54,0.71,3.88,0.8
			C134.54,229.62,134.62,229.39,134.49,229.31z"/>
		<path class="st11" d="M126.35,244.23c-2.25-1.3-5.64-1.49-8.38-1.58c-0.1,0-0.15,0.15-0.05,0.17c1.33,0.2,2.65,0.45,3.96,0.69
			c0.35,0.06,0.7,0.15,1.05,0.24c-0.02,0.03-0.04,0.04-0.04,0.08c-0.07,0.35,0,1.81-0.46,1.93c-0.63,0.16-1.3,0.2-1.91,0.48
			c-0.11-0.13-0.22-0.26-0.33-0.39c0.16-0.17,0.27-0.39,0.27-0.61c0-0.47-0.38-0.77-0.85-0.64c-0.18,0.05-0.37,0.2-0.51,0.38
			c-0.07,0.04-0.13,0.11-0.15,0.22c0,0.01,0,0.03,0,0.04c-0.06,0.15-0.06,0.3,0.02,0.41c0.07,0.33,0.25,0.64,0.58,0.58
			c0.06-0.01,0.12-0.03,0.17-0.05c0.02,0.15,0.08,0.28,0.14,0.42c-0.02,0-0.02-0.01-0.04-0.01c-0.88,0.13-1.61,0.64-2.53,0.59
			c-0.84-0.05-1.62-0.27-2.42-0.41c-0.09-0.02-0.17,0.13-0.1,0.19c1.15,0.9,3.66,1.58,5.18,0.15c0.06-0.05,0.09-0.11,0.12-0.17
			c0.03,0.04,0.06,0.08,0.09,0.12c0.28,0.49,0.61,0.94,0.94,1.4c0.18,0.26,0.36,0.69,0.66,0.85c-0.57,0.89-0.62,2-0.58,2.92
			c0.04,0.92,0.1,2.09,0.73,2.68c0.09,0.09,0.26-0.03,0.27-0.16c0.06-0.92-0.32-1.72-0.3-2.64c0.01-0.63,0.16-1.28,0.23-1.92
			c0.15,0.35,0.36,0.66,0.6,0.91c0.6,0.63,1.58,1.46,2.56,1.44c0.16,0,0.35-0.2,0.24-0.35c-0.46-0.61-1.3-0.84-1.89-1.3
			c-0.6-0.47-0.81-1.15-1.14-1.78c0.03-0.03,0.04-0.07,0.04-0.11c-0.02-0.71-0.7-1.2-1.1-1.67c-0.19-0.26-0.39-0.52-0.6-0.76
			c0.31-0.02,0.62-0.09,0.93-0.15c0.31-0.06,0.77-0.07,1.07-0.29c0.55-0.42,0.69-1.68,0.56-2.26c0.95,0.25,1.9,0.53,2.89,0.6
			C126.39,244.46,126.44,244.28,126.35,244.23z"/>
		<path class="st11" d="M108.26,246.62c-0.68-1.03-2.34-1.36-3.47-1.8c-0.54-0.21-1.1-0.36-1.67-0.43c0-0.05-0.04-0.97-0.17-1.16
			c-0.35-0.51-1.75-1.12-2.04-1.13c-1.7-0.04-3.51,0.41-5.25,0.69c-1.73,0.28-3.5,0.48-5.23,0.98c-0.03-0.03-0.05-0.07-0.09-0.09
			c-0.65-0.39-1.35-0.71-2.02-1.07c-0.39-0.21-0.75-0.46-1.17-0.57c0.64-1.6,1.9-2.81,3.18-3.99c1.93-1.77,4.59-1,6.6-1.15
			c0.36-0.03,0.67-0.54,0.35-0.75c-3.18-2.02-9.83,0.85-10.84,5.4c-0.1,0-0.2,0.04-0.31,0.08c0.25-1.67,0.92-3.36,1.93-4.86
			c1.07-1.58,2.67-2.15,3.89-3.47c0.18-0.19,0.05-0.5-0.16-0.49c-1.82,0.08-3.71,2.34-4.76,3.88c-1.09,1.6-1.95,3.65-1.64,5.31
			c-1.03,0.58-2.11,1.35-2.82,2.29c-0.14,0.18-0.19,0.38-0.18,0.55c-0.28,0.4-0.13,1.01,0.39,0.82c0.93-0.35,1.81-0.86,2.67-1.41
			c0.31-0.2,0.85-0.49,1.21-0.85c0.2,0.19,0.43,0.35,0.65,0.52c0.65,0.48,2.55,1.73,2.78,1.84c0.16,0.07,0.32,0.12,0.48,0.18
			c-1.12,0.49-2.23,1.36-3.18,2.07c-1.59,1.18-3.41,2.95-3.9,4.87c-0.03,0.12,0.1,0.18,0.2,0.1c1.34-1.21,2.38-2.68,3.8-3.83
			c0.71-0.57,1.47-0.9,2.25-1.18c-1.43,1.47-2.54,3.14-3.58,4.91c-0.22,0.38,0.27,0.53,0.52,0.26c1.29-1.41,2.55-2.88,3.87-4.26
			c0.54-0.57,1.13-1.07,1.73-1.56c0.6-0.48,1.26-0.73,1.84-1.16c0.52-0.05,1.04-0.12,1.56-0.18c1.47-0.18,3.04-0.25,4.57-0.53
			c1.23,0.61,2.21,1.14,3.07,1.93c1.29,1.17,2.07,2.94,3.47,3.94c0.42,0.3,1.04-0.28,0.9-0.78c-0.48-1.66-1.91-3.03-3.07-4.15
			c-0.03-0.03-0.07-0.06-0.1-0.09c0.97,0.53,2.08,1.29,3.22,1.18C108.17,247.43,108.49,246.96,108.26,246.62z"/>
		<path class="st11" d="M92.46,262.65c-1.07-1.13-3.34-1.29-4.88-1.67c-0.74-0.18-1.46-0.39-2.21-0.4c0.01-0.14-0.01-0.28-0.09-0.36
			c-1.02-1.11-2.96-0.86-4.53-0.58c-0.99,0.17-2,0.57-2.97,0.96c-0.72,0.29-1.41,0.65-2.11,1.01c-0.19,0.1-0.38,0.16-0.53,0.21
			c-0.27-0.46-0.95-0.66-1.38-0.92c-0.66-0.39-1.41-0.66-2.1-1c0.52-1.42,1.04-2.76,2.02-4.02c1.38-1.77,3.16-2.22,4.92-3.17
			c0.26-0.14,0.31-0.54,0.02-0.57c-3.25-0.3-7.02,3.89-7.49,7.25c-0.01,0-0.02-0.01-0.03-0.01c0.05-1.51,0.09-2.89,0.62-4.53
			c0.5-1.54,1.78-3.03,2.01-4.57c0.03-0.2-0.2-0.24-0.34-0.14c-1.37,0.97-2.09,3.13-2.64,4.61c-0.57,1.52-0.94,3.39-0.68,4.91l0,0
			c-0.76,0.58-1.59,1.32-2.14,2.12c-0.18,0.26-0.11,0.52,0.06,0.68c-0.03,0.39,0.28,0.74,0.71,0.5c0.71-0.39,1.3-0.93,1.87-1.52
			c0.29-0.29,0.6-0.65,0.77-1.03c0.46,0.49,0.89,1,1.44,1.42c0.45,0.34,2.38,1.69,2.62,1.66c-0.02,0.03-0.05,0.05-0.08,0.08
			c-2.28,1.21-4.62,3.57-5.9,5.47c-0.1,0.14,0.08,0.26,0.2,0.17c1.27-0.96,2.37-2.2,3.57-3.27c0.31-0.27,0.62-0.51,0.94-0.73
			c-0.03,0.04-0.06,0.08-0.08,0.12c-1.01,1.39-2.38,3.02-2.24,4.66c0.02,0.2,0.27,0.34,0.45,0.11c0.8-1.1,1.37-2.34,2.11-3.48
			c0.46-0.72,0.93-1.44,1.43-2.13c0.17-0.24,0.37-0.44,0.57-0.65c0.22-0.13,2.77-0.67,3.86-0.91c1.11-0.24,2.4-0.13,3.53-0.43
			c0.6,0.25,1.21,0.5,1.75,0.83c0.95,0.58,1.61,1.66,2.61,2.12c0.33,0.15,0.77-0.28,0.68-0.64c-0.29-1.17-1.62-1.98-2.57-2.53
			c-0.41-0.24-0.85-0.46-1.32-0.65c-0.01-0.06-0.03-0.12-0.07-0.17c1.08,0.18,2.13,0.58,3.14,0.86c1.33,0.38,2.68,1.18,4.16,1.09
			C92.54,263.38,92.65,262.85,92.46,262.65z"/>
	</g>
	<path class="st12" d="M118.27,374.73c0,2.04-6.77,3.69-15.12,3.69c-8.35,0-15.12-1.65-15.12-3.69c0-2.04,6.77-3.69,15.12-3.69
		C111.5,371.04,118.27,372.69,118.27,374.73z"/>
	<path class="st13" d="M234.03,352.54c0,1.54-5.21,2.79-11.64,2.79c-6.43,0-11.64-1.25-11.64-2.79c0-1.54,5.21-2.79,11.64-2.79
		C228.82,349.74,234.03,350.99,234.03,352.54z"/>
	<ellipse class="st9" cx="279.96" cy="345.91" rx="8.51" ry="2.14"/>
	<path class="st13" d="M265.25,345.95c0,0.57-1.57,1.04-3.51,1.04c-1.94,0-3.51-0.47-3.51-1.04s1.57-1.04,3.51-1.04
		C263.68,344.91,265.25,345.38,265.25,345.95z"/>
	<path class="st13" d="M293.05,326.32c0,1.21-3.63,2.2-8.11,2.2c-4.48,0-8.11-0.98-8.11-2.2s3.63-2.2,8.11-2.2
		C289.42,324.12,293.05,325.11,293.05,326.32z"/>
	<path class="st9" d="M331.38,358.67c0,1.84-4.54,3.33-10.14,3.33c-5.6,0-10.14-1.49-10.14-3.33s4.54-3.33,10.14-3.33
		C326.84,355.33,331.38,356.82,331.38,358.67z"/>
	<path class="st13" d="M297.88,360.82c0,1.25-3.61,2.26-8.06,2.26c-4.45,0-8.06-1.01-8.06-2.26c0-1.25,3.61-2.26,8.06-2.26
		C294.27,358.56,297.88,359.57,297.88,360.82z"/>
	<path class="st13" d="M211.75,367.83c0,1.77-7.22,3.21-16.12,3.21c-8.9,0-16.12-1.44-16.12-3.21c0-1.77,7.22-3.21,16.12-3.21
		C204.53,364.62,211.75,366.06,211.75,367.83z"/>
	<path class="st13" d="M186.25,359.74c0,0.59-2.34,1.08-5.22,1.08c-2.88,0-5.22-0.48-5.22-1.08c0-0.6,2.34-1.08,5.22-1.08
		C183.91,358.67,186.25,359.15,186.25,359.74z"/>
	<path class="st13" d="M153.78,337.65c0,0.92-3.16,1.67-7.07,1.67c-3.9,0-7.07-0.75-7.07-1.67c0-0.92,3.16-1.67,7.07-1.67
		C150.61,335.98,153.78,336.73,153.78,337.65z"/>
	<path class="st9" d="M203.76,347.9c0,1.08-3.92,1.95-8.75,1.95c-4.83,0-8.75-0.87-8.75-1.95c0-1.08,3.92-1.95,8.75-1.95
		C199.84,345.95,203.76,346.83,203.76,347.9z"/>
	<path class="st9" d="M279.26,334.3c0,1.08-3.92,1.95-8.75,1.95c-4.83,0-8.75-0.87-8.75-1.95c0-1.08,3.92-1.95,8.75-1.95
		C275.34,332.35,279.26,333.22,279.26,334.3z"/>
	<path class="st14" d="M216.5,326.46c0,0.56-1.59,1.02-3.55,1.02c-1.96,0-3.56-0.46-3.56-1.02c0-0.56,1.59-1.02,3.56-1.02
		C214.91,325.44,216.5,325.89,216.5,326.46z"/>
	<ellipse class="st13" cx="362.68" cy="379.38" rx="20.11" ry="3.88"/>
	<path class="st13" d="M381.77,363.98c0,1.09-3.04,1.98-6.8,1.98c-3.75,0-6.8-0.88-6.8-1.98c0-1.09,3.04-1.98,6.8-1.98
		C378.72,362,381.77,362.88,381.77,363.98z"/>
	<ellipse class="st13" cx="341.69" cy="340.4" rx="9" ry="2.53"/>
	<path class="st13" d="M251.16,369.44c0,0.89-2.83,1.6-6.33,1.6c-3.5,0-6.33-0.72-6.33-1.6c0-0.89,2.83-1.6,6.33-1.6
		C248.33,367.83,251.16,368.55,251.16,369.44z"/>
	<path class="st13" d="M206.56,324.07c0,0.89-2.83,1.6-6.33,1.6c-3.49,0-6.33-0.72-6.33-1.6c0-0.89,2.83-1.6,6.33-1.6
		C203.73,322.47,206.56,323.19,206.56,324.07z"/>
	<path class="st9" d="M293.05,375.88c0,1.31-4.79,2.38-10.7,2.38c-5.91,0-10.7-1.06-10.7-2.38s4.79-2.38,10.7-2.38
		C288.26,373.5,293.05,374.56,293.05,375.88z"/>
	<path class="st13" d="M430.26,387.52c0,1.62-6.97,2.94-15.57,2.94c-8.6,0-15.57-1.32-15.57-2.94s6.97-2.94,15.57-2.94
		C423.28,384.59,430.26,385.9,430.26,387.52z"/>
	<path class="st13" d="M419.92,380.81c0,0.79-2.34,1.44-5.24,1.44s-5.24-0.64-5.24-1.44s2.34-1.44,5.24-1.44
		S419.92,380.02,419.92,380.81z"/>
	<path class="st13" d="M65,379.21c0,0.85-2.52,1.54-5.63,1.54s-5.63-0.69-5.63-1.54c0-0.85,2.52-1.54,5.63-1.54S65,378.35,65,379.21
		z"/>
	<path class="st9" d="M103.89,392.88c0,1.45-6.75,2.63-15.07,2.63c-8.32,0-15.07-1.18-15.07-2.63s6.75-2.63,15.07-2.63
		C97.15,390.25,103.89,391.43,103.89,392.88z"/>
	<path class="st13" d="M146.71,379.21c0,0.85-4.1,1.54-9.15,1.54c-5.05,0-9.15-0.69-9.15-1.54c0-0.85,4.09-1.54,9.15-1.54
		C142.61,377.66,146.71,378.35,146.71,379.21z"/>
	<path class="st12" d="M437.95,399.67c0,3.8-16.22,6.88-36.23,6.88c-20.01,0-36.22-3.08-36.22-6.88c0-3.8,16.22-6.88,36.22-6.88
		C421.73,392.8,437.95,395.88,437.95,399.67z"/>
	<path class="st12" d="M80.17,405.97c0,3.8-16.22,6.88-36.23,6.88s-36.23-3.08-36.23-6.88c0-3.8,16.22-6.88,36.23-6.88
		S80.17,402.17,80.17,405.97z"/>
	<path class="st12" d="M64.28,359.81c-5.92,0-11.59,0.19-16.84,0.53c-4.05-1.29-11.74-2.16-20.56-2.16c-13.03,0-23.6,1.89-23.6,4.23
		c0,1.71,5.63,3.17,13.74,3.84c-1.14,0.74-1.77,1.53-1.77,2.34c0,4.85,21.95,8.79,49.02,8.79s49.02-3.93,49.02-8.79
		C113.3,363.74,91.35,359.81,64.28,359.81z"/>
	<path class="st12" d="M437.07,354.06c0,2.34-10.56,4.23-23.6,4.23c-13.03,0-23.6-1.89-23.6-4.23c0-2.33,10.56-4.23,23.6-4.23
		C426.51,349.83,437.07,351.72,437.07,354.06z"/>
	<path class="st12" d="M395.07,349.85c0,1.58-7.13,2.85-15.93,2.85c-8.8,0-15.93-1.28-15.93-2.85c0-1.58,7.13-2.85,15.93-2.85
		C387.94,347,395.07,348.27,395.07,349.85z"/>
	<ellipse class="st12" cx="412.18" cy="363.1" rx="21.61" ry="2.85"/>
	<path class="st13" d="M41.24,383.5c0,1.52-6.6,2.75-14.75,2.75c-8.14,0-14.75-1.23-14.75-2.75s6.6-2.75,14.75-2.75
		C34.64,380.75,41.24,381.98,41.24,383.5z"/>
	<g class="st0">
		<polygon class="st15" points="438.15,380.76 434.53,390.27 420.24,394.01 408.74,392.57 387.47,394.63 369.52,392.57 
			360.58,389.3 360.49,389.09 356.75,380.9 362.53,365.7 367.24,362.41 373.25,353.09 388.16,344.06 395.49,345.54 403.91,343.32 
			411.8,347.41 418.84,357.83 422.45,360.01 431.85,365.7 		"/>
		<polygon class="st16" points="448.26,385.16 444.17,395.9 428.04,400.12 415.06,398.49 391.04,400.82 370.77,398.49 
			363.85,395.96 360.68,394.8 360.57,394.57 359.81,385.37 367.37,372.33 375.86,370.5 378.55,356.43 394.55,346.68 405.3,348.11 
			413.52,346.68 418.46,349.31 424.78,358.57 426.24,360.71 430.53,361.73 441.15,368.15 		"/>
		<path class="st17" d="M438.15,380.76l-3.62,9.51l-14.28,3.74l-11.5-1.44l-21.27,2.07l-17.95-2.07l-6.13-2.24
			c3.48-0.19,7.01-0.39,7.01-0.39l3.97-3.2l5.97,1.96l12.31,0.66l9.24-3.93h6.55l10.34,2.62l3.69-2.62l2.72-5.68l6.12-2.04
			l-3.64-5.1l2.33-3.63l1.85-3.28L438.15,380.76z"/>
		<path class="st15" d="M359.03,380.18c1.23-0.88,3.5-2.03,5.03-1.96c0.09-0.74,0.34-1.47,0.42-2.2c0.51-0.18,1.86-0.51,2.22-0.92
			c0.38-0.43,0.23-1.77,0.29-2.4c0.16-1.59,0.42-3.25,0.83-4.76c-0.66,0.16-2.07,1.92-2.56,2.6c-0.93,1.27-1.79,2.71-2.55,4.08
			C361.74,376.38,360.61,378.9,359.03,380.18z"/>
		<path class="st15" d="M369.62,368.04c1.44,0.06,2.82,0.61,4.18,1.07c0.45,0.15,1.04,0.57,1.48,0.41c0.4-0.14,0.75-0.89,1.04-1.19
			c1.32-1.34,2.83-2.66,3.8-4.33c-1.2,0.51-2.39,1.76-3.72,1.97c-1.39,0.23-3.1-2.33-3.79-3.46
			C371.59,364.38,370.15,365.95,369.62,368.04z"/>
		<path class="st15" d="M374.66,355.23c1.62,0.64,3.83,1.41,5.59,2.22c-0.7-1.52-0.99-3.47-1.8-4.86
			C377.07,353.73,376.17,354.31,374.66,355.23z"/>
		<path class="st15" d="M377.58,353.48c0,0.99,0.39,1.88,0.46,2.84c0.07,0.89-0.34,1.31-0.93,1.94c-0.61,0.66-1.36,1.23-1.96,1.92
			c-0.62,0.7-1.02,1.66-1.73,2.22c-0.15-1.08,0.43-2.59,0.54-3.7c0.09-0.82-0.09-2.56,0.38-3.21
			C374.68,355.04,377.26,353.41,377.58,353.48z"/>
		<path class="st15" d="M380.97,351.83c1.19,0.03,2.39-0.78,3.6-0.85c0.98-0.06,1.12,0.71,2.03,0.87c0.64,0.11,1.79-0.75,2.55-1.09
			c1-0.45,2-0.9,3.08-0.97c1.84-0.11,4.39,1.54,5.83,0.87c0.81-0.38,1.47-0.99,2.33-1.26c1.04-0.32,2.3-0.49,3.42-0.66
			c0.39-0.06,0.79-0.11,1.15-0.22c0.07,0,0.07,0.01,0,0.01c-1.03-0.4-2.53,0.16-3.58,0.41c-1.44,0.35-3.14,0.53-4.49,1
			c-1.24-0.51-2.43-1.6-3.79-1.71c-2-0.16-4.38,1.23-6.32,1.72c-0.91,0.23-0.81,0.09-1.55-0.29c-0.74-0.38-0.89-0.63-1.63-0.17
			c-0.46,0.29-0.78,0.79-1.26,1.08C381.5,351.11,381.88,351.41,380.97,351.83z"/>
		<path class="st15" d="M416.8,356.1c-0.98-0.95-1.76-2.92-3.11-3.3c-0.63-0.18-1.48,0.22-2.07-0.07c-0.56-0.28-0.99-1.19-1.43-1.63
			c-0.75-0.76-0.9-0.58-1.85-0.45c-0.74,0.1-1.46,0.04-2.11-0.2c-0.92-0.33-0.81-0.4-1.79,0c-0.72,0.3-1.42,0.42-2.18,0.51
			c1.31,0.12,3.21-0.31,4.36,0.39c0.54,0.32,0.71,1.29,1.26,1.53c0.53,0.23,1.22-0.47,1.9-0.25c0.83,0.28,1.53,1.64,2.35,2.09
			c0.68,0.38,1.33,0.31,2.06,0.58c1.33,0.5,2.27,1.71,3.54,2.25C417.31,356.74,417.41,356.69,416.8,356.1z"/>
		<path class="st15" d="M373.4,364.84c0.57-2.36,4.28-1.91,6-1.96c-0.03-0.54-0.24-1.06-0.29-1.63c-0.69,0.19-1.62,0.52-2.31,0.3
			c-0.7-0.21-1.23-1.47-1.94-1.48C373.12,360.04,373.4,363.67,373.4,364.84z"/>
		<path class="st15" d="M365.05,374.55c0.88-0.21,1.64-1.02,2.53-1.07c0.95-0.06,2.49,0.48,3.39,0.77
			c-0.54-0.76-1.21-1.54-1.72-2.34c-0.59-0.94-0.68-1.46-1.67-0.56C366.34,372.46,365.76,373.06,365.05,374.55z"/>
		<path class="st17" d="M369.13,391.54c-1.56-0.7-3.18-1.61-4.79-2.21c0.1-1.38,1.72-2.37,1.59-3.76c-0.1-1.09-1.29-2.46-1.74-3.45
			c1.84,1.18,5.42,2.28,5.05,4.72c-0.26,1.69-0.38,1.5,1.5,2.04c1.16,0.33,2.48,0.69,3.43,1.49c-0.92,0.33-2.06,0.29-3.04,0.4
			C369.9,390.91,370.34,391.28,369.13,391.54z"/>
		<path class="st17" d="M397.82,389.79c-2.36,0.34-4.99-1.93-7.43-2.05c-2.59-0.13-5.17-0.01-7.69-0.16
			c-0.99-2.24-3.37-1.87-5.41-2.15c-2.41-0.33-3.34-2.21-4.65-4.21c1.1,0.25,2.23,0.88,3.3,1.32c1.42,0.58,2.78,0.62,4.37,0.69
			c1.51,0.07,2.93-0.28,4.08,0.74c0.98,0.86,0.89,2.03,2.36,2.33c2.38,0.48,7.1-0.58,9.18-1.72c1.21-0.66,1.28-1.72,2.76-1.74
			c1.52-0.03,3.4,0.56,4.99,0.7c1.42,0.13,4.28-0.3,5.46,0.46c0.71,0.46,2.3,3.19,2.35,4.03
			C406.57,388.29,402.68,389.09,397.82,389.79z"/>
		<path class="st17" d="M403.21,384.84c1.09-1.45,4.36-2.65,6.12-3.24c1.87-0.62,2.62,1.34,4.4,1.9c1.14,0.36,3.89,0.1,4.63-0.55
			c0.5-0.44,0.93-1.85,1.31-2.47c0.56-0.92,1.34-1.95,2.15-2.61c-0.04,1.09-0.52,2.36-0.84,3.49c-0.24,0.84-0.43,2.71-1.02,3.31
			c-0.7,0.72-2.36,0.36-3.06,1.08c-0.67,0.69-0.59,2.51-0.75,3.44c-1.19,0.44-2.7-0.17-3.91-0.41c-1.92-0.39-3.88-0.81-5.8-1.2
			C405.15,387.31,403.22,386.33,403.21,384.84z"/>
		<path class="st17" d="M430.73,374.79c-2.91,0-5.7-0.53-8.57-0.6c-0.13-1.58,0.4-2.96,0.69-4.35c-1.14-0.5-2.54-0.94-3.75-1.18
			c0.11-1.18,1.62-2.63,2.31-3.62c0.61-0.88,1.18-2.08,2.01-2.75c0.03,0.92-0.48,1.87-0.7,2.75c-0.33,1.3-0.48,1.39,0.73,1.74
			c0.76,0.22,2.51-0.16,2.92,0.58c0.32,0.58-0.44,2.2-0.42,2.89c1.21,0.06,3.43,0.31,4.38,1.15c0.98,0.87-0.03,3.01-0.03,4.51
			C430.29,375.65,430.67,375.06,430.73,374.79z"/>
		<path class="st17" d="M424.76,381.05c-0.19-0.1,0.54-3.36,0.72-4.21c1.34,0.86,3.48,2.66,4.07,4.18
			C428.19,381.44,426.1,381.77,424.76,381.05z"/>
	</g>
	<g class="st0">
		<polygon class="st15" points="114.43,367.05 110.81,376.56 96.53,380.3 85.03,378.85 63.77,380.92 45.83,378.85 36.9,375.59 
			36.8,375.38 33.07,367.19 38.84,351.99 43.55,348.71 49.56,339.39 64.46,330.36 71.79,331.84 80.21,329.63 88.09,333.71 
			95.13,344.12 98.74,346.31 108.13,351.99 		"/>
		<polygon class="st16" points="114.43,367.05 110.81,376.56 96.53,380.3 85.03,378.85 63.77,380.92 45.83,378.85 39.7,376.61 
			36.9,375.59 36.8,375.38 36.12,367.24 42.82,355.69 50.34,354.07 52.72,341.62 66.89,332.99 76.4,334.25 83.68,332.99 
			88.05,335.31 93.64,343.51 94.93,345.41 98.74,346.31 108.13,351.99 		"/>
		<path class="st17" d="M114.43,367.05l-3.62,9.51l-14.28,3.74l-11.5-1.44l-21.27,2.07l-17.94-2.07l-6.13-2.24
			c3.48-0.19,7.01-0.39,7.01-0.39l3.97-3.2l5.97,1.96l12.31,0.66l9.23-3.93h6.55l10.34,2.62l3.69-2.62l2.72-5.68l6.11-2.04
			l-3.64-5.1l2.33-3.63l1.85-3.28L114.43,367.05z"/>
		<path class="st15" d="M35.35,366.47c1.23-0.88,3.5-2.03,5.03-1.96c0.09-0.74,0.34-1.47,0.42-2.2c0.51-0.18,1.86-0.51,2.22-0.92
			c0.38-0.43,0.23-1.76,0.29-2.4c0.16-1.59,0.42-3.25,0.83-4.76c-0.66,0.16-2.07,1.92-2.56,2.6c-0.93,1.27-1.79,2.71-2.55,4.08
			C38.05,362.67,36.92,365.19,35.35,366.47z"/>
		<path class="st15" d="M45.92,354.34c1.44,0.06,2.82,0.6,4.18,1.07c0.45,0.15,1.04,0.57,1.48,0.41c0.4-0.14,0.75-0.89,1.04-1.19
			c1.32-1.34,2.83-2.66,3.8-4.33c-1.2,0.51-2.39,1.76-3.72,1.97c-1.39,0.23-3.09-2.33-3.79-3.46
			C47.9,350.68,46.46,352.25,45.92,354.34z"/>
		<path class="st15" d="M50.97,341.53c1.62,0.64,3.83,1.41,5.59,2.22c-0.7-1.52-0.99-3.47-1.8-4.86
			C53.38,340.03,52.47,340.61,50.97,341.53z"/>
		<path class="st15" d="M53.88,339.78c0,0.99,0.39,1.88,0.46,2.84c0.07,0.89-0.34,1.31-0.93,1.94c-0.61,0.66-1.36,1.23-1.96,1.92
			c-0.62,0.7-1.02,1.66-1.73,2.22c-0.15-1.08,0.43-2.59,0.54-3.7c0.09-0.82-0.09-2.56,0.38-3.21
			C50.99,341.34,53.57,339.71,53.88,339.78z"/>
		<path class="st15" d="M57.28,338.13c1.19,0.03,2.39-0.78,3.6-0.85c0.98-0.06,1.12,0.71,2.03,0.87c0.64,0.11,1.79-0.75,2.55-1.09
			c1-0.45,1.99-0.9,3.08-0.97c1.84-0.11,4.39,1.54,5.83,0.87c0.81-0.38,1.47-0.99,2.33-1.26c1.04-0.32,2.3-0.49,3.42-0.66
			c0.39-0.06,0.79-0.11,1.15-0.22c0.07,0,0.07,0.01,0,0.01c-1.03-0.4-2.53,0.16-3.57,0.41c-1.44,0.35-3.14,0.53-4.49,1
			c-1.24-0.51-2.43-1.59-3.79-1.71c-2-0.16-4.38,1.23-6.31,1.72c-0.91,0.23-0.81,0.09-1.55-0.29c-0.74-0.38-0.89-0.63-1.63-0.16
			c-0.46,0.29-0.78,0.79-1.26,1.08C57.81,337.42,58.19,337.71,57.28,338.13z"/>
		<path class="st15" d="M93.09,342.4c-0.98-0.95-1.76-2.92-3.11-3.3c-0.63-0.18-1.48,0.22-2.06-0.07c-0.56-0.28-0.99-1.19-1.43-1.63
			c-0.76-0.76-0.9-0.58-1.85-0.45c-0.74,0.1-1.46,0.03-2.11-0.2c-0.92-0.33-0.81-0.4-1.79,0c-0.72,0.3-1.42,0.42-2.18,0.51
			c1.31,0.12,3.21-0.31,4.36,0.39c0.54,0.32,0.71,1.29,1.26,1.53c0.53,0.23,1.22-0.47,1.9-0.25c0.83,0.28,1.53,1.64,2.35,2.09
			c0.68,0.38,1.33,0.31,2.06,0.58c1.33,0.5,2.27,1.71,3.54,2.25C93.6,343.04,93.7,342.99,93.09,342.4z"/>
		<path class="st15" d="M49.71,351.13c0.57-2.35,4.28-1.91,6-1.96c-0.03-0.54-0.24-1.06-0.29-1.63c-0.69,0.19-1.62,0.52-2.31,0.31
			c-0.7-0.21-1.23-1.47-1.94-1.48C49.42,346.34,49.71,349.97,49.71,351.13z"/>
		<path class="st15" d="M41.36,360.84c0.88-0.21,1.64-1.02,2.52-1.07c0.95-0.06,2.49,0.48,3.39,0.77c-0.54-0.76-1.21-1.54-1.72-2.34
			c-0.59-0.94-0.68-1.46-1.67-0.56C42.65,358.76,42.07,359.35,41.36,360.84z"/>
		<path class="st17" d="M45.44,377.82c-1.56-0.7-3.17-1.61-4.79-2.21c0.1-1.38,1.72-2.36,1.59-3.76c-0.1-1.09-1.29-2.46-1.74-3.44
			c1.84,1.18,5.42,2.28,5.04,4.72c-0.26,1.68-0.38,1.5,1.5,2.04c1.16,0.33,2.48,0.69,3.43,1.49c-0.92,0.33-2.06,0.29-3.03,0.4
			C46.21,377.2,46.64,377.57,45.44,377.82z"/>
		<path class="st17" d="M74.12,376.07c-2.36,0.34-4.99-1.92-7.42-2.05c-2.59-0.13-5.16-0.01-7.69-0.16
			c-0.99-2.23-3.37-1.87-5.41-2.15c-2.41-0.33-3.34-2.21-4.64-4.2c1.1,0.25,2.23,0.88,3.3,1.32c1.42,0.58,2.78,0.62,4.37,0.69
			c1.51,0.07,2.92-0.28,4.08,0.74c0.98,0.86,0.89,2.03,2.36,2.32c2.38,0.48,7.1-0.58,9.17-1.72c1.2-0.67,1.28-1.72,2.76-1.74
			c1.52-0.03,3.4,0.56,4.99,0.7c1.42,0.12,4.28-0.3,5.46,0.46c0.71,0.46,2.3,3.19,2.35,4.03C82.87,374.58,78.97,375.38,74.12,376.07
			z"/>
		<path class="st17" d="M79.5,371.13c1.09-1.45,4.35-2.65,6.11-3.24c1.87-0.62,2.62,1.34,4.4,1.9c1.14,0.36,3.89,0.1,4.63-0.55
			c0.5-0.44,0.93-1.85,1.31-2.47c0.56-0.92,1.34-1.95,2.15-2.61c-0.04,1.09-0.52,2.36-0.84,3.49c-0.24,0.84-0.43,2.71-1.02,3.31
			c-0.7,0.72-2.36,0.35-3.06,1.08c-0.67,0.69-0.59,2.51-0.75,3.44c-1.19,0.44-2.7-0.17-3.91-0.41c-1.92-0.39-3.88-0.81-5.79-1.2
			C81.45,373.6,79.52,372.62,79.5,371.13z"/>
		<path class="st17" d="M107.02,361.08c-2.9,0-5.7-0.53-8.57-0.6c-0.13-1.58,0.4-2.96,0.69-4.35c-1.14-0.5-2.54-0.94-3.74-1.18
			c0.11-1.18,1.62-2.63,2.31-3.62c0.61-0.88,1.18-2.08,2.01-2.75c0.03,0.92-0.48,1.87-0.7,2.75c-0.33,1.3-0.48,1.39,0.73,1.74
			c0.76,0.22,2.51-0.16,2.92,0.58c0.32,0.58-0.44,2.2-0.43,2.89c1.21,0.06,3.43,0.31,4.38,1.15c0.98,0.87-0.03,3-0.03,4.51
			C106.57,361.94,106.96,361.35,107.02,361.08z"/>
		<path class="st17" d="M101.05,367.34c-0.19-0.1,0.54-3.36,0.72-4.21c1.34,0.86,3.48,2.66,4.07,4.18
			C104.48,367.73,102.39,368.06,101.05,367.34z"/>
	</g>
</g>
</svg>
