<?xml version="1.0" encoding="utf-8"?>
<!-- Generator: Adobe Illustrator 23.0.0, SVG Export Plug-In . SVG Version: 6.00 Build 0)  -->
<svg version="1.1" id="Calque_1" xmlns="http://www.w3.org/2000/svg" xmlns:xlink="http://www.w3.org/1999/xlink" x="0px" y="0px"
	 viewBox="0 0 200 200" enable-background="new 0 0 200 200" xml:space="preserve">
<rect y="0" fill="#F6A458" width="200" height="200"/>
<g>
	<path fill="#9F5940" d="M175.767,58.892l-75.521,43.612L36.304,65.819l-12.071-6.925l67.036-38.727
		c5.357-3.095,11.824-3.659,17.642-1.538l38.074,13.878c2.203,0.803,4.204,2.07,5.867,3.715L175.767,58.892z"/>
	<path fill="#964C31" d="M175.767,59.204v79.523l-75.521,43.909v-80.706l18.45-10.727c2.626-1.527,5.027-3.412,7.132-5.602
		l17.325-18.016c5.243-5.452,12.383-8.678,19.939-9.009l11.492-0.504C175.229,58.045,175.767,58.56,175.767,59.204z"/>
	<path fill="#7F483A" d="M100.246,102.372v80.264L24.233,138.97V58.706l21.797-1.877c4.998-0.43,9.931,1.362,13.473,4.896
		L100.246,102.372z"/>
	<path fill="#A26C5A" d="M163.007,82.928c5.085-2.936,9.215-2.941,9.224,0c0.008,2.934-4.109,7.691-9.194,10.627
		s-9.215,2.941-9.224,0.007C153.805,90.621,157.923,85.864,163.007,82.928"/>
	<path fill="#A26C5A" d="M140.155,110.161c3.469-2.003,6.293-1.936,6.299,0.154c0.006,2.09-2.809,5.412-6.277,7.415
		c-3.475,2.006-6.293,1.936-6.299-0.154C133.872,115.485,136.68,112.166,140.155,110.161"/>
	<path fill="#954F36" d="M71.105,113.853c3.469,2.003,6.278,5.322,6.272,7.412c-0.006,2.09-2.824,2.154-6.293,0.151
		c-3.474-2.006-6.283-5.318-6.277-7.408C64.812,111.917,67.63,111.847,71.105,113.853"/>
	<path fill="#954F36" d="M34.155,124.337c2.988,2.003,5.407,5.322,5.402,7.412c-0.005,2.09-2.433,2.154-5.42,0.151
		c-2.993-2.006-5.412-5.318-5.407-7.408C28.735,122.401,31.162,122.33,34.155,124.337"/>
	<path fill="#954F36" d="M83.902,153.036c0.357,0.206,0.721,0.445,1.089,0.718c3.185,2.366,5.488,6.342,5.141,8.886
		c-0.307,2.256-2.581,2.637-5.306,1.064c-0.356-0.206-0.721-0.445-1.089-0.718c-3.185-2.366-5.488-6.342-5.141-8.892
		C78.902,151.844,81.177,151.463,83.902,153.036"/>
	<path fill="#954F36" d="M36.994,83.669c0.161,0.092,0.325,0.2,0.49,0.323c1.434,1.065,2.471,2.855,2.315,4
		c-0.138,1.015-1.162,1.187-2.389,0.479c-0.16-0.092-0.325-0.2-0.49-0.323c-1.434-1.065-2.471-2.855-2.315-4.003
		C34.743,83.133,35.767,82.961,36.994,83.669"/>
	<path fill="#954F36" d="M45.919,112.038c1.605,0.926,2.905,3.374,2.899,5.465c-0.006,2.084-1.316,3.025-2.92,2.098
		c-1.605-0.926-2.899-3.371-2.893-5.455C43.01,112.056,44.315,111.112,45.919,112.038"/>
	<path fill="#A26C5A" d="M118.176,149.227c3.085-1.781,5.592-1.545,5.598,0.526c0.006,2.077-2.492,5.204-5.577,6.985
		c-3.085,1.781-5.587,1.541-5.592-0.536C112.599,154.13,115.091,151.008,118.176,149.227"/>
	<path fill="#A26C5A" d="M159.252,121.199c3.085-1.781,5.587-1.574,5.592,0.465c0.006,2.038-2.487,5.136-5.571,6.917
		c-3.085,1.781-5.592,1.57-5.598-0.468C153.669,126.074,156.167,122.98,159.252,121.199"/>
	<path fill="#A26C5A" d="M112.869,112.904c1.644-0.949,2.975-0.411,2.98,1.205c0.005,1.61-1.319,3.681-2.963,4.631
		c-1.638,0.946-2.97,0.407-2.974-1.202C109.907,115.921,111.231,113.849,112.869,112.904"/>
</g>
</svg>
