<?xml version="1.0" encoding="utf-8"?>
<!-- Generator: Adobe Illustrator 23.0.0, SVG Export Plug-In . SVG Version: 6.00 Build 0)  -->
<svg version="1.1" id="Calque_1" xmlns="http://www.w3.org/2000/svg" xmlns:xlink="http://www.w3.org/1999/xlink" x="0px" y="0px"
	 viewBox="0 0 200 200" style="enable-background:new 0 0 200 200;" xml:space="preserve">
<style type="text/css">
	.st0{fill:#CEC7E0;}
	.st1{fill:#E6E6E6;}
	.st2{fill:#F2F2F2;}
	.st3{fill:#6B9BD2;}
	.st4{fill:#DE636F;}
	.st5{fill:#7EC5AD;}
</style>
<rect y="0" class="st0" width="200" height="200"/>
<path class="st1" d="M128.35,165.72V26.8L74.49,41.24v138.65L128.35,165.72z"/>
<g>
	<path class="st2" d="M17.78,26.8v138.65l56.7,14.44V41.24L17.78,26.8z"/>
	<path class="st2" d="M182.22,38.35V177l-53.87-11.29V26.8L182.22,38.35z"/>
</g>
<g>
	<path class="st3" d="M34.79,156.73c-1.57,0-2.84-1.27-2.84-2.83c0-0.69,0.25-1.36,0.71-1.88l3.76-4.25c1.04-1.17,2.83-1.29,4-0.25
		c1.17,1.04,1.29,2.83,0.25,4l-3.75,4.25C36.38,156.38,35.61,156.73,34.79,156.73L34.79,156.73z"/>
	<path class="st3" d="M43.95,146.36c-1.57,0-2.83-1.27-2.83-2.84c0-0.69,0.25-1.36,0.71-1.87l7.2-8.15c1.04-1.17,2.83-1.29,4-0.25
		c1.17,1.04,1.29,2.83,0.25,4l-7.2,8.15C45.54,146.02,44.76,146.36,43.95,146.36L43.95,146.36z"/>
	<path class="st3" d="M56.55,132.1c-1.57,0-2.83-1.27-2.83-2.84c0-0.69,0.25-1.36,0.71-1.88l2.43-2.75l-1.78-3.21
		c-0.76-1.37-0.26-3.1,1.11-3.85c1.37-0.76,3.1-0.26,3.85,1.11l2.75,4.96c0.58,1.05,0.44,2.34-0.35,3.24l-3.76,4.25
		C58.14,131.74,57.37,132.09,56.55,132.1L56.55,132.1z"/>
	<path class="st3" d="M53.26,115.11c-1.03,0-1.98-0.56-2.48-1.46l-5.74-10.37c-0.76-1.37-0.26-3.1,1.11-3.85
		c1.37-0.76,3.1-0.26,3.85,1.11l5.74,10.37c0.76,1.37,0.26,3.09-1.11,3.85C54.21,114.99,53.74,115.11,53.26,115.11L53.26,115.11z"/>
	<path class="st3" d="M43.21,96.97c-1.03,0-1.98-0.56-2.48-1.46l-2.75-4.96c-0.76-1.37-0.26-3.1,1.11-3.85
		c0.69-0.38,1.52-0.46,2.27-0.21l5.39,1.79c1.48,0.5,2.29,2.1,1.79,3.59c-0.37,1.09-1.35,1.85-2.5,1.93
		c0.19,1.55-0.92,2.97-2.47,3.16C43.45,96.96,43.34,96.97,43.21,96.97L43.21,96.97z"/>
	<path class="st3" d="M74.49,103.35c-0.3,0-0.61-0.05-0.9-0.14l-3.91-1.3c-1.49-0.49-2.29-2.1-1.8-3.59c0.49-1.49,2.1-2.29,3.59-1.8
		l0,0l2.8,0.93l4.59-2.29c1.41-0.69,3.1-0.11,3.79,1.3c0.68,1.39,0.12,3.07-1.26,3.77l-5.64,2.83
		C75.36,103.25,74.92,103.35,74.49,103.35L74.49,103.35z M63.15,99.57c-0.3,0-0.61-0.05-0.9-0.14l-9.88-3.3
		c-1.49-0.5-2.29-2.1-1.8-3.59c0.5-1.49,2.1-2.29,3.59-1.8l9.89,3.3c1.49,0.48,2.3,2.08,1.82,3.57
		C65.49,98.79,64.39,99.58,63.15,99.57z M87.11,97.02c-1.57,0-2.83-1.27-2.83-2.83c0-1.07,0.61-2.05,1.56-2.53L95.18,87
		c1.4-0.71,3.1-0.16,3.81,1.24c0.71,1.4,0.16,3.1-1.24,3.81c-0.01,0.01-0.03,0.01-0.04,0.02l-9.34,4.66c-0.39,0.2-0.82,0.3-1.26,0.3
		L87.11,97.02z"/>
	<path class="st3" d="M111.76,90.98c-0.92,0-1.79-0.45-2.32-1.21l-1.85-2.64l-2.88,1.44c-1.4,0.71-3.1,0.16-3.81-1.24
		c-0.71-1.39-0.16-3.1,1.24-3.81c0.01-0.01,0.03-0.01,0.04-0.02l5.07-2.54c1.26-0.63,2.78-0.24,3.59,0.91l3.25,4.64
		c0.9,1.28,0.59,3.05-0.7,3.95C112.91,90.8,112.34,90.98,111.76,90.98L111.76,90.98z"/>
	<path class="st3" d="M152.81,125.97c-0.41,0-0.82-0.09-1.19-0.26l-9.66-4.46c-1.4-0.7-1.97-2.4-1.27-3.8
		c0.67-1.34,2.27-1.93,3.65-1.34l9.66,4.46c1.42,0.66,2.04,2.34,1.39,3.76C154.92,125.33,153.91,125.97,152.81,125.97L152.81,125.97
		z M135.9,118.17c-0.41,0-0.81-0.09-1.19-0.26l-7.55-3.48c-0.46-0.21-0.85-0.54-1.14-0.95l-1.34-1.91c-0.9-1.28-0.59-3.05,0.7-3.95
		c1.28-0.9,3.05-0.59,3.95,0.7l0.9,1.28l6.86,3.16c1.42,0.66,2.04,2.34,1.39,3.76C138.01,117.53,137.01,118.17,135.9,118.17
		L135.9,118.17z M122.44,106.24c-0.93,0-1.8-0.45-2.33-1.21l-6.1-8.72c-0.91-1.28-0.61-3.05,0.66-3.95
		c1.28-0.91,3.05-0.61,3.96,0.66c0.01,0.01,0.02,0.03,0.03,0.04l6.1,8.72c0.9,1.28,0.59,3.05-0.69,3.95
		C123.59,106.06,123.02,106.24,122.44,106.24L122.44,106.24z"/>
	<path class="st3" d="M165.21,131.7c-0.41,0-0.82-0.09-1.19-0.26l-5.15-2.38c-1.42-0.66-2.04-2.34-1.39-3.76
		c0.66-1.42,2.34-2.04,3.76-1.39l0.09,0.04l-0.02-0.1c-0.28-1.54,0.73-3.02,2.27-3.3c1.51-0.28,2.97,0.69,3.29,2.19l1.11,5.55
		c0.31,1.54-0.68,3.03-2.21,3.34C165.59,131.68,165.4,131.7,165.21,131.7L165.21,131.7z"/>
	<path class="st3" d="M162.21,116.71c-1.35,0-2.51-0.95-2.78-2.27l-2.51-12.57c-0.29-1.54,0.73-3.02,2.27-3.3
		c1.51-0.28,2.97,0.69,3.29,2.19l2.51,12.56c0.31,1.54-0.69,3.03-2.22,3.34C162.58,116.7,162.39,116.72,162.21,116.71L162.21,116.71
		z"/>
	<path class="st3" d="M157.81,94.73c-1.35,0-2.51-0.95-2.78-2.27l-1.11-5.56c-0.36-1.52,0.58-3.05,2.11-3.41
		c1.52-0.36,3.05,0.58,3.41,2.11c0.01,0.06,0.03,0.13,0.04,0.19l1.11,5.56c0.31,1.54-0.69,3.03-2.23,3.33
		C158.18,94.72,158,94.73,157.81,94.73L157.81,94.73z"/>
</g>
<path class="st4" d="M156.7,75.91l-9.4-14.42c-1.27-1.93-1.94-4.18-1.94-6.49c0.05-4.52,2.89-8.54,7.13-10.1
	c2.71-1.03,5.71-1.03,8.43,0c4.24,1.56,7.08,5.58,7.13,10.1c0,2.3-0.68,4.56-1.94,6.49L156.7,75.91z"/>
<path class="st2" d="M156.7,49.95c3.13,0,5.67,2.55,5.67,5.7c0,3.15-2.54,5.7-5.67,5.7c-3.13,0-5.67-2.55-5.67-5.7
	C151.03,52.5,153.57,49.95,156.7,49.95z"/>
<g>
	<path class="st5" d="M113.21,148.87l-7.82-6.84l6.71-7.98c1.04-1.17,0.93-2.96-0.24-4c-1.17-1.04-2.96-0.93-4,0.24
		c-0.03,0.04-0.06,0.08-0.1,0.11l-6.64,7.9l-7.75-6.77c-1.18-1.03-2.97-0.91-4,0.27c-1.03,1.18-0.91,2.97,0.27,4l7.83,6.83
		l-6.71,7.98c-1.04,1.17-0.93,2.96,0.24,4c1.17,1.04,2.96,0.93,4-0.24c0.03-0.04,0.06-0.07,0.09-0.11l6.65-7.9l7.75,6.77
		c1.18,1.03,2.97,0.91,4-0.27C114.51,151.69,114.39,149.9,113.21,148.87L113.21,148.87z"/>
	<path class="st5" d="M46.13,78.74c-7.95,0.12-14.49-6.23-14.6-14.17c-0.12-7.95,6.23-14.49,14.17-14.6
		c7.95-0.12,14.49,6.23,14.6,14.17c0,0.07,0,0.14,0,0.21C60.36,72.23,54.02,78.67,46.13,78.74z M46.13,55.63
		c-4.81-0.12-8.81,3.69-8.93,8.5c-0.12,4.81,3.69,8.81,8.5,8.93c4.81,0.12,8.81-3.69,8.93-8.5c0-0.07,0-0.14,0-0.22
		C54.69,59.6,50.89,55.7,46.13,55.63z"/>
</g>
</svg>
