<?xml version="1.0" encoding="utf-8"?>
<!-- Generator: Adobe Illustrator 23.0.0, SVG Export Plug-In . SVG Version: 6.00 Build 0)  -->
<svg version="1.1" id="Calque_1" xmlns="http://www.w3.org/2000/svg" xmlns:xlink="http://www.w3.org/1999/xlink" x="0px" y="0px"
	 viewBox="0 0 200 200" enable-background="new 0 0 200 200" xml:space="preserve">
<rect fill="#B6D5E9" width="200" height="200"/>
<g>
	<path fill="#EF9B06" d="M126.954,38.941h18.317v52.08h-18.317V38.941z"/>
	<path fill="#EF9B06" d="M140.725,150.668c-2.462,0-4.459-1.131-4.459-2.527v-47.848c0-1.395,1.997-2.527,4.459-2.527
		c2.461,0,4.459,1.132,4.459,2.527v47.848C145.181,149.537,143.186,150.668,140.725,150.668z"/>
	<path fill="#EF9B06" d="M165.48,19.11v9.477c0,10.953-8.877,19.829-19.83,19.829h-9.476V38.94c0-10.953,8.876-19.83,19.829-19.83
		H165.48z"/>
	<path fill="#FFDE5A" d="M165.48,19.11v9.477c0,10.953-8.877,19.829-19.83,19.829h-0.38V38.94c0-10.953,8.876-19.83,19.829-19.83
		H165.48z"/>
	<path fill="#EF9B06" d="M136.175,38.941v9.477h-9.477c-10.953,0-19.829-8.877-19.829-19.83v-9.476h9.476
		C127.297,19.113,136.175,27.99,136.175,38.941z"/>
	<path fill="#FFDE5A" d="M136.175,38.941v9.477h-0.719c-10.953,0-19.829-8.877-19.829-19.83v-9.476h0.717
		C127.297,19.113,136.175,27.99,136.175,38.941z"/>
	<path fill="#EF9B06" d="M165.48,45.048v9.477c0,10.953-8.877,19.829-19.83,19.829h-9.476v-9.476c0-10.953,8.876-19.83,19.829-19.83
		H165.48z"/>
	<path fill="#FFDE5A" d="M165.48,45.048v9.477c0,10.953-8.877,19.829-19.83,19.829h-0.38v-9.476c0-10.953,8.876-19.83,19.829-19.83
		H165.48z"/>
	<path fill="#EF9B06" d="M136.175,64.879v9.477h-9.477c-10.953,0-19.829-8.877-19.829-19.829V45.05h9.476
		C127.297,45.05,136.175,53.928,136.175,64.879z"/>
	<path fill="#FFDE5A" d="M136.175,64.879v9.477h-0.719c-10.953,0-19.829-8.877-19.829-19.829V45.05h0.717
		C127.297,45.05,136.175,53.928,136.175,64.879z"/>
	<path fill="#EF9B06" d="M136.175,90.815v9.477h-9.477c-10.953,0-19.829-8.877-19.829-19.829v-9.477h9.476
		C127.297,70.987,136.175,79.864,136.175,90.815z"/>
	<path fill="#FFDE5A" d="M136.175,90.815v9.477h-0.719c-10.953,0-19.829-8.877-19.829-19.829v-9.477h0.717
		C127.297,70.987,136.175,79.864,136.175,90.815z"/>
	<path fill="#EF9B06" d="M165.48,70.987v9.477c0,10.953-8.877,19.829-19.83,19.829h-9.476v-9.477
		c0-10.951,8.876-19.829,19.829-19.829H165.48z"/>
	<path fill="#FFDE5A" d="M165.48,70.987v9.477c0,10.953-8.877,19.829-19.83,19.829h-0.38v-9.477
		c0-10.951,8.876-19.829,19.829-19.829H165.48z"/>
</g>
<g>
	<path opacity="0.79" fill="#A7C836" d="M54.667,125.185c-13.909,0-25.185-11.275-25.185-25.185c0-2.782,2.255-5.037,5.037-5.037
		c13.909,0,25.185,11.275,25.185,25.185C59.704,122.93,57.45,125.185,54.667,125.185z"/>
	<path opacity="0.79" fill="#A7C836" d="M54.667,84.889c-13.909,0-25.185-11.275-25.185-25.185c0-2.782,2.255-5.037,5.037-5.037
		c13.909,0,25.185,11.275,25.185,25.185C59.704,82.634,57.45,84.889,54.667,84.889z"/>
	<path opacity="0.79" fill="#93C020" d="M64.741,125.185c13.909,0,25.185-11.275,25.185-25.185c0-2.782-2.255-5.037-5.037-5.037
		c-13.909,0-25.185,11.275-25.185,25.185C59.704,122.93,61.959,125.185,64.741,125.185z"/>
	<path opacity="0.79" fill="#93C020" d="M64.741,84.889c13.909,0,25.185-11.275,25.185-25.185c0-2.782-2.255-5.037-5.037-5.037
		c-13.909,0-25.185,11.275-25.185,25.185C59.704,82.634,61.959,84.889,64.741,84.889z"/>
	<path opacity="0.79" fill="#B8CF42" d="M64.741,59.704v100.739c0,2.82-2.215,5.037-5.037,5.037s-5.037-2.217-5.037-5.037V59.704
		c0-2.821,2.215-5.037,5.037-5.037S64.741,56.883,64.741,59.704z"/>
	<path opacity="0.79" fill="#A7C836" d="M59.704,165.48V54.667c2.821,0,5.037,2.215,5.037,5.037v100.739
		C64.741,163.264,62.526,165.48,59.704,165.48z"/>
	<path opacity="0.79" fill="#A7C836" d="M63.03,15.345c-0.908-0.906-2.116-1.309-3.325-1.309c-1.209,0-2.417,0.403-3.325,1.309
		c-0.502,0.403-11.786,11.014-11.786,24.211s11.283,23.472,11.786,23.876c0.908,0.906,2.116,1.309,3.325,1.309
		c1.209,0,2.417-0.403,3.325-1.309c0.502-0.404,11.786-10.679,11.786-23.876S63.532,15.748,63.03,15.345z"/>
	<path opacity="0.79" fill="#93C020" d="M74.815,39.557c0,13.197-11.283,23.472-11.786,23.876c-0.908,0.906-2.116,1.309-3.325,1.309
		V14.036c1.209,0,2.417,0.403,3.325,1.309C63.532,15.748,74.815,26.36,74.815,39.557z"/>
</g>
<path fill="#7F5E41" d="M182.841,142.814c-1.41-0.605-2.72-1.309-3.929-2.116c-10.881-7.252-25.218-7.252-36.098,0
	c-7.555,4.937-17.227,4.937-24.681,0c-5.541-3.627-11.787-5.44-18.133-5.44c-6.044,0-12.289,1.813-17.629,5.44
	c-7.555,4.937-17.227,4.937-24.681,0c-10.881-7.252-25.218-7.252-36.098,0c-0.906,0.605-1.914,0.906-2.921,1.007
	c-2.619,0.202-4.634,2.417-4.634,5.037v34.184c0,2.821,2.215,5.037,5.037,5.037h161.854c2.821,0,5.037-2.215,5.037-5.037v-33.479
	C185.964,145.434,184.754,143.52,182.841,142.814z"/>
<path fill="#694E35" d="M185.964,147.448v33.479c0,2.821-2.215,5.037-5.037,5.037H100v-50.705c6.346,0,12.592,1.813,18.133,5.44
	c7.454,4.937,17.126,4.937,24.681,0c10.881-7.252,25.218-7.252,36.098,0c1.209,0.807,2.518,1.511,3.929,2.116
	C184.754,143.52,185.964,145.434,185.964,147.448z"/>
<path fill="#5D4530" d="M49.631,165.48H39.557c-2.783,0-5.037-2.254-5.037-5.037c0-2.783,2.254-5.037,5.037-5.037h10.074
	c2.783,0,5.037,2.254,5.037,5.037C54.667,163.227,52.414,165.48,49.631,165.48z"/>
<path fill="#4C3828" d="M160.443,165.48h-10.074c-2.783,0-5.037-2.254-5.037-5.037c0-2.783,2.254-5.037,5.037-5.037h10.074
	c2.783,0,5.037,2.254,5.037,5.037C165.48,163.227,163.227,165.48,160.443,165.48z"/>
<path fill="#5D4530" d="M110.074,160.443c0,2.821-2.215,5.037-5.037,5.037H94.963c-2.821,0-5.037-2.215-5.037-5.037
	c0-2.821,2.215-5.037,5.037-5.037h10.074C107.858,155.406,110.074,157.622,110.074,160.443z"/>
<path fill="#4C3828" d="M110.074,160.443c0,2.821-2.215,5.037-5.037,5.037H100v-10.074h5.037
	C107.858,155.406,110.074,157.622,110.074,160.443z"/>
</svg>
