<?xml version="1.0" encoding="utf-8"?>
<!-- Generator: Adobe Illustrator 23.0.0, SVG Export Plug-In . SVG Version: 6.00 Build 0)  -->
<svg version="1.1" id="Calque_1" xmlns="http://www.w3.org/2000/svg" xmlns:xlink="http://www.w3.org/1999/xlink" x="0px" y="0px"
	 viewBox="0 0 200 200" style="enable-background:new 0 0 200 200;" xml:space="preserve">
<style type="text/css">
	.st0{fill:#9E6EAD;}
	.st1{fill:#CCD1D9;}
	.st2{fill:#E6E9ED;}
	.st3{fill:#DD636F;}
	.st4{fill:#FDD870;}
	.st5{fill:#FFEBA7;}
	.st6{fill:#979FAA;}
</style>
<rect y="0" class="st0" width="200" height="200"/>
<g>
	<path class="st1" d="M52.62,90.33v69.06c-19.36-5.82-31.88-15.06-31.88-25.5V64.83C20.75,75.27,33.26,84.52,52.62,90.33z"/>
	<path class="st1" d="M180.13,64.83v69.06c0,10.44-12.51,19.68-31.88,25.5V90.33C167.62,84.52,180.13,75.27,180.13,64.83
		L180.13,64.83z"/>
	<path class="st2" d="M148.25,90.33v69.06c-13.33,4.01-29.88,6.38-47.81,6.38s-34.48-2.36-47.81-6.38V90.33
		c13.33,4.01,29.88,6.38,47.81,6.38S134.92,94.34,148.25,90.33L148.25,90.33z"/>
	<path class="st3" d="M135.26,127.39c1.43,0.74,2.36,2.23,2.36,3.85c0,1.62-0.93,3.11-2.36,3.85l-14.34,7.15
		c-2.98,1.51-6.3,2.28-9.62,2.28c-1.91,0-3.83-0.27-5.68-0.77l-26.43-7.2l-15.94,7.97v-26.56l15.94,7.97l26.43-7.2
		c1.86-0.5,3.77-0.77,5.68-0.77c3.32,0,6.64,0.77,9.62,2.28L135.26,127.39z"/>
	<path class="st4" d="M180.13,64.83c0,10.44-12.51,19.68-31.88,25.5c-13.33,4.01-29.88,6.38-47.81,6.38s-34.48-2.36-47.81-6.38
		c-19.36-5.82-31.88-15.06-31.88-25.5c0-17.61,35.67-31.88,79.69-31.88S180.13,47.22,180.13,64.83z"/>
	<path class="st5" d="M100.44,43.58c45.56,0,69.06,14.9,69.06,21.25s-23.51,21.25-69.06,21.25s-69.06-14.9-69.06-21.25
		S54.88,43.58,100.44,43.58z"/>
	<path class="st6" d="M121.98,56.89l23.99,1.83c2.74,0.21,5.37,1.54,6.83,3.85c0.5,0.82,0.77,1.59,0.77,2.26s-0.27,1.43-0.77,2.26
		c-1.46,2.31-4.09,3.64-6.83,3.85l-23.99,1.83c-0.19,0.03-0.4,0.03-0.58,0.03c-4.25,0-7.68-3.43-7.68-7.68v-0.16
		c0-4.12,3.05-7.81,7.17-8.08C121.24,56.86,121.61,56.86,121.98,56.89L121.98,56.89z"/>
</g>
</svg>
