<?xml version="1.0" encoding="utf-8"?>
<!-- Generator: Adobe Illustrator 23.0.0, SVG Export Plug-In . SVG Version: 6.00 Build 0)  -->
<svg version="1.1" id="Calque_1" xmlns="http://www.w3.org/2000/svg" xmlns:xlink="http://www.w3.org/1999/xlink" x="0px" y="0px"
	 viewBox="0 0 200 200" enable-background="new 0 0 200 200" xml:space="preserve">
<rect x="0.255" y="0" fill="#D97058" width="200" height="200"/>
<g>
	<g>
		<path fill="#F3D69F" d="M153.038,135.757c0.148-0.123,2.706-3.705,7.788-4.191c-0.99-4.834-2.001-12.532-2.001-22.557h-3.734
			h-0.15h-3.734c0,9.914-0.988,17.559-1.968,22.395C150.753,132.589,152.048,134.059,153.038,135.757z"/>
		<path fill="#EDBF77" d="M153.155,135.619c0.969-5.797,1.936-14.874,1.936-26.609h0h-0.15h-3.734
			c0,9.914-0.988,17.559-1.968,22.395c1.515,1.185,2.809,2.655,3.799,4.353C153.051,135.741,153.141,135.635,153.155,135.619z"/>
		<path fill="#F3D69F" d="M135.72,109.01c-2.984,0-3.953-1.654-3.348-3.728c0.043-0.105,0.869-3.426,3.613-7.273
			c-2.539,0-5.573,0-10.032,0c0,19.77-2.98,32.233-4.394,36.814c1.713,0.051,3.306,0.659,4.579,1.678c0,0,0,0,0,0.001
			c2.474-4.704,7.216-7.818,12.611-8.164c-0.947-4.496-1.772-11.237-2.265-19.327L135.72,109.01L135.72,109.01z"/>
		<path fill="#EDBF77" d="M129.882,98.008h-3.928c0,19.77-2.98,32.233-4.394,36.814c1.516,0.045,2.939,0.527,4.128,1.344
			C127.164,130.833,129.882,117.939,129.882,98.008z"/>
		<path fill="#E94545" d="M160.776,93.001c-3.752-13.002-15.738-22.512-29.949-22.512c-14.034,0-26.102,9.312-29.938,22.476
			c-0.152,0.53-1.282,5.043,4.406,5.043h51.426C161.946,98.008,160.843,93.273,160.776,93.001z"/>
		<path fill="#C73737" d="M104.777,92.965c0.005-0.017,0.01-0.034,0.015-0.051l0-0.001c3.606-12.36,14.66-21.544,27.978-22.364
			c-14.829-0.912-27.89,8.655-31.881,22.416c-0.152,0.53-1.282,5.043,4.406,5.043h3.887
			C103.495,98.008,104.624,93.495,104.777,92.965z"/>
		<path fill="#EFEFEF" d="M119.633,82.086c5.743,0,8.97-6.515,5.679-11.081c-4.621,0.847-8.888,2.708-12.561,5.343
			C113.344,79.611,116.198,82.086,119.633,82.086z"/>
		<path fill="#DDDDDD" d="M125.293,70.98c-4.701,0.831-8.892,2.667-12.566,5.302c0.154,0.846,0.484,1.705,0.913,2.416
			c3.433-3.153,7.574-5.546,12.159-6.913C125.653,71.514,125.472,71.228,125.293,70.98z"/>
		<circle fill="#EFEFEF" cx="135.539" cy="81.678" r="3.479"/>
		<path fill="#DDDDDD" d="M135.27,81.678c0-1.342,0.761-2.506,1.874-3.087c-0.48-0.25-1.026-0.393-1.605-0.393
			c-1.922,0-3.479,1.558-3.479,3.479c0,1.922,1.558,3.479,3.479,3.479c0.579,0,1.125-0.142,1.605-0.393
			C136.031,84.184,135.27,83.02,135.27,81.678z"/>
		<circle fill="#EFEFEF" cx="123.945" cy="90.57" r="2.386"/>
		<path fill="#E94545" d="M177.864,105.348c-2.86-9.913-11.999-17.164-22.833-17.164c-10.699,0-19.901,7.1-22.825,17.136
			c-0.116,0.404-0.978,3.845,3.359,3.845h39.208C178.755,109.165,177.915,105.555,177.864,105.348z"/>
		<path fill="#C73737" d="M136.118,105.281L136.118,105.281c2.707-9.279,10.918-16.21,20.863-17.018
			c-11.163-0.907-21.554,6.069-24.775,17.057c-0.116,0.404-0.978,3.845,3.359,3.845h3.901
			C136.463,109.165,135.5,107.385,136.118,105.281z"/>
		<path fill="#EFEFEF" d="M176.341,101.423c-2.312-4.611-5.387-7.724-9.445-10.068c-5.374,3.967-2.582,12.547,4.124,12.547
			C173.155,103.903,175.066,102.938,176.341,101.423z"/>
		<path fill="#DDDDDD" d="M168.908,92.654c-0.646-0.465-1.313-0.903-2.006-1.303c-4.752,3.509-3.232,10.982,2.497,12.356
			C167.591,102.451,165.387,95.592,168.908,92.654z"/>
		<circle fill="#EFEFEF" cx="156.578" cy="94.2" r="2.339"/>
		<g>
			<path fill="#DDDDDD" d="M123.946,90.57c0-0.883,0.481-1.652,1.193-2.064c-0.351-0.203-0.758-0.322-1.193-0.322
				c-1.318,0-2.386,1.068-2.386,2.386c0,1.318,1.068,2.386,2.386,2.386c0.435,0,0.842-0.118,1.193-0.322
				C124.426,92.222,123.946,91.453,123.946,90.57z"/>
			<path fill="#DDDDDD" d="M157.771,92.191c-1.547-0.921-3.532,0.19-3.532,2.009c0,1.816,1.981,2.933,3.532,2.009
				C156.244,95.301,156.243,93.1,157.771,92.191z"/>
		</g>
		<circle fill="#EFEFEF" cx="145.66" cy="101.213" r="3.578"/>
		<path fill="#DDDDDD" d="M147.45,98.115c-2.364-1.368-5.367,0.332-5.367,3.098c0,2.766,3.003,4.466,5.367,3.098
			C145.066,102.931,145.067,99.494,147.45,98.115z"/>
	</g>
	<g>
		<path fill="#498A61" d="M75.331,89.272l-1.904,6.012L62.579,110.14L47.015,93.869l3.962-9.938
			c0.332-2.641,1.145-5.193,2.203-7.561c3.589-8.023,9.998-13.919,9.998-13.919s10.278,9.454,12.09,20.712
			C75.589,85.156,75.646,87.207,75.331,89.272z"/>
		<path fill="#60A672" d="M75.268,83.163c-2.226,1.064-4.718,1.66-7.352,1.66c-6.283,0-11.774-3.396-14.736-8.454
			c3.589-8.023,9.998-13.919,9.998-13.919S73.456,71.905,75.268,83.163z"/>
		<g>
			<path fill="#346E4E" d="M63.178,92.467c-0.651,0-1.179-0.528-1.179-1.179V77.501c0-0.651,0.528-1.179,1.179-1.179
				c0.651,0,1.179,0.528,1.179,1.179v13.787C64.357,91.939,63.829,92.467,63.178,92.467z"/>
			<path fill="#346E4E" d="M63.178,87.893c-0.313,0-0.613-0.124-0.834-0.345l-6.05-6.05c-0.461-0.461-0.461-1.207,0-1.667
				c0.461-0.461,1.207-0.461,1.667,0l5.216,5.216l5.216-5.216c0.461-0.461,1.207-0.461,1.668,0c0.46,0.461,0.461,1.207,0,1.667
				l-6.05,6.05C63.79,87.769,63.491,87.893,63.178,87.893z"/>
		</g>
		<path fill="#60A672" d="M61.58,112.443l-12.732,9.715c-11.501,2.401-24.41-4.739-24.41-4.739s2.957-6.597,8.382-12.265
			c1.27-1.327,2.674-2.602,4.209-3.731l9.043-12.743l9.281,14.221L61.58,112.443z"/>
		<path fill="#498A61" d="M55.353,102.901c-0.105,1.954-0.415,4.067-0.959,6.355c-10.3,2.451-17.095,0.141-21.574-4.102
			c1.27-1.327,2.674-2.602,4.209-3.731l9.043-12.743L55.353,102.901z"/>
		<path fill="#60A672" d="M54.647,102.674C62.21,70.9,24.451,72.479,24.451,72.479S22.872,110.238,54.647,102.674z"/>
		<g>
			<path fill="#346E4E" d="M58.358,107.565c-0.302,0-0.604-0.115-0.834-0.345L34.259,83.954c-0.461-0.461-0.461-1.207,0-1.667
				c0.461-0.461,1.207-0.461,1.667,0l23.266,23.266c0.461,0.461,0.461,1.207,0,1.667C58.962,107.45,58.66,107.565,58.358,107.565z"
				/>
			<path fill="#346E4E" d="M41.607,90.814h-8.555c-0.651,0-1.179-0.528-1.179-1.179s0.528-1.179,1.179-1.179h7.376V81.08
				c0-0.651,0.528-1.179,1.179-1.179c0.651,0,1.179,0.528,1.179,1.179v8.555C42.786,90.286,42.259,90.814,41.607,90.814z"/>
			<path fill="#346E4E" d="M32.645,115.86c-0.493,0-0.954-0.312-1.118-0.806c-0.206-0.618,0.127-1.286,0.745-1.492l21.081-7.035
				c0.618-0.206,1.286,0.127,1.492,0.745c0.206,0.618-0.127,1.286-0.745,1.492l-21.081,7.035
				C32.895,115.84,32.769,115.86,32.645,115.86z"/>
			<path fill="#346E4E" d="M39.794,119.957c-0.177,0-0.357-0.04-0.526-0.125c-0.583-0.291-0.819-0.999-0.528-1.582l3.297-6.599
				l-6.599-3.296c-0.583-0.291-0.819-0.999-0.528-1.582c0.291-0.583,0.999-0.819,1.582-0.528l7.653,3.823
				c0.28,0.14,0.493,0.385,0.591,0.682c0.099,0.297,0.076,0.62-0.064,0.9l-3.823,7.653
				C40.643,119.717,40.227,119.957,39.794,119.957z"/>
			<path fill="#346E4E" d="M49.156,98.363H38.192c-0.651,0-1.179-0.528-1.179-1.179c0-0.651,0.528-1.179,1.179-1.179h9.785V86.22
				c0-0.651,0.528-1.179,1.179-1.179c0.651,0,1.179,0.528,1.179,1.179v10.964C50.335,97.835,49.807,98.363,49.156,98.363z"/>
		</g>
		<circle fill="#E94545" cx="71.7" cy="102.659" r="16.158"/>
		<path fill="#C73737" d="M65.308,102.659c0-7.222,4.738-13.336,11.275-15.406c-1.541-0.488-3.181-0.752-4.883-0.752
			c-8.924,0-16.158,7.234-16.158,16.158s7.234,16.158,16.158,16.158c1.702,0,3.342-0.264,4.883-0.752
			C70.046,115.995,65.308,109.88,65.308,102.659z"/>
		<circle fill="#E94545" cx="86.36" cy="107.913" r="16.158"/>
		<path fill="#C73737" d="M79.968,107.914c0-7.222,4.738-13.336,11.275-15.406c-1.541-0.488-3.181-0.752-4.883-0.752
			c-8.924,0-16.158,7.234-16.158,16.158c0,8.924,7.234,16.158,16.158,16.158c1.702,0,3.342-0.264,4.883-0.752
			C84.706,121.25,79.968,115.136,79.968,107.914z"/>
		<circle fill="#E94545" cx="63.967" cy="116.449" r="16.158"/>
		<path fill="#C73737" d="M57.575,116.449c0-7.222,4.738-13.336,11.275-15.406c-1.541-0.488-3.181-0.752-4.883-0.752
			c-8.924,0-16.158,7.234-16.158,16.158s7.234,16.158,16.158,16.158c1.702,0,3.342-0.264,4.883-0.752
			C62.313,129.785,57.575,123.671,57.575,116.449z"/>
		<g>
			<circle fill="#343434" cx="68.474" cy="117.128" r="4.284"/>
			<ellipse fill="#343434" cx="86.047" cy="98.961" rx="5.019" ry="2.563"/>
		</g>
	</g>
	<path fill="#94492C" d="M163.828,169.636l15.967-47.716c-8.806,0-150.617,0-159.588,0l15.967,47.716
		c0.036,0.094,4.26,11.144,16.757,11.144h47.07h47.069C159.568,180.78,163.792,169.73,163.828,169.636z"/>
	<path fill="#853B25" d="M40.595,142.218c0-7.176,1.393-14.026,3.918-20.298H20.206l15.967,47.716
		c0.036,0.094,4.26,11.144,16.757,11.144h3.703C46.728,170.93,40.595,157.29,40.595,142.218z"/>
	<path fill="#AB573D" d="M171.926,135.251l6.764-9.697l1.104-3.634h-5.402l-5.757,8.614l-5.757-8.614h-11.441l-5.757,8.614
		l-5.757-8.614h-11.441l-5.757,8.614l-5.757-8.614h-11.44l-5.758,8.614l-5.758-8.614H82.573l-5.758,8.614l-5.758-8.614h-11.44
		l-5.758,8.614l-5.758-8.614H36.662l-5.757,8.614l-5.758-8.614h-4.941l1.535,4.914l5.872,8.419l-2.045,2.932l2.145,6.362
		l3.191-4.575l8.186,11.736l-6.042,8.663l2.145,6.361l7.189-10.306l8.186,11.736l-7.025,10.071c1.454,0.891,3.155,1.634,5.13,2.083
		l5.187-7.436l5.511,7.901h11.933l5.511-7.901l5.511,7.901h11.933l5.511-7.901l5.511,7.901h11.933l5.511-7.901l5.511,7.901h11.933
		l5.511-7.901l5.243,7.517c1.998-0.407,3.725-1.11,5.206-1.973l-7.158-10.262l8.186-11.736l7.499,10.752l2.145-6.362l-6.353-9.109
		l8.187-11.737l3.502,5.021l2.145-6.362L171.926,135.251z M134.202,123.155l8.186,12.097l-8.186,11.736l-8.187-11.737
		L134.202,123.155z M111.247,123.155l8.186,12.096l-8.186,11.737l-8.186-11.736L111.247,123.155z M88.292,123.156l8.186,12.097
		l-8.186,11.736l-8.186-11.736L88.292,123.156z M65.338,123.155l8.186,12.097l-8.186,11.736l-8.186-11.736L65.338,123.155z
		 M34.196,135.252l8.186-12.097l8.187,12.097l-8.187,11.736L34.196,135.252z M45.673,151.706l8.186-11.736l8.186,11.736
		l-8.186,11.736L45.673,151.706z M65.338,179.898l-8.186-11.736l8.186-11.736l8.186,11.736L65.338,179.898z M68.629,151.706
		l8.186-11.736l8.186,11.736l-8.186,11.736L68.629,151.706z M88.292,179.898l-8.186-11.736l8.186-11.736l8.186,11.736
		L88.292,179.898z M91.583,151.706l8.186-11.736l8.186,11.736l-8.186,11.736L91.583,151.706z M111.247,179.898l-8.186-11.736
		l8.186-11.737l8.187,11.737L111.247,179.898z M114.538,151.706l8.186-11.737l8.187,11.737l-8.186,11.736L114.538,151.706z
		 M134.202,179.898l-8.186-11.736l8.186-11.736l8.186,11.736L134.202,179.898z M145.68,163.443l-8.186-11.736l8.186-11.737
		l8.186,11.737L145.68,163.443z M157.158,146.988l-8.186-11.736l8.187-12.097l8.186,12.097L157.158,146.988z"/>
	<g>
		<path fill="#9F4D37" d="M52.004,175.541c-1.176-1.514-2.273-3.091-3.286-4.726l-5.174,7.417c0.204,0.125,0.413,0.246,0.627,0.364
			c0.087,0.049,0.177,0.095,0.266,0.142c0.144,0.077,0.29,0.152,0.439,0.226c0.097,0.048,0.195,0.096,0.294,0.143
			c0.168,0.079,0.339,0.155,0.512,0.23c0.079,0.035,0.157,0.071,0.238,0.104c0.235,0.097,0.477,0.189,0.722,0.278
			c0.106,0.038,0.214,0.074,0.322,0.11c0.164,0.056,0.33,0.109,0.498,0.16c0.116,0.035,0.232,0.07,0.35,0.104
			c0.191,0.053,0.385,0.103,0.581,0.152c0.094,0.023,0.185,0.048,0.28,0.07h0L52.004,175.541z"/>
		<path fill="#9F4D37" d="M27.614,135.252l-1.991,2.855l2.134,6.377l3.148-4.514l8.186,11.736l-6.026,8.64l2.133,6.377l7.184-10.299
			l0.15,0.215c-1.068-3.89-1.713-7.954-1.886-12.141l-6.45-9.248l8.186-12.096l1.084,1.601c0.325-0.958,0.672-1.904,1.047-2.837
			h-7.851l-5.757,8.614l-5.758-8.614h-4.941l1.744,5.213L27.614,135.252z"/>
	</g>
	<path fill="#F3D69F" d="M27.879,111.072v-8.27c0-39.909,32.468-72.376,72.375-72.376s72.376,32.467,72.376,72.376v8.27
		c6.574,0,4.614,0,11.207,0v-8.27c0-46.088-37.495-83.583-83.582-83.583c-46.087,0-83.582,37.495-83.582,83.583v8.27H27.879z"/>
	<path fill="#EDBF77" d="M100.254,25.172c-43.1,0-78.164,35.065-78.164,78.165v7.734h5.789v-8.27
		c0-39.909,32.468-72.376,72.375-72.376s72.375,32.467,72.375,72.376v8.27c3.352,0,2.404,0,5.79,0v-7.734
		C178.419,60.238,143.355,25.172,100.254,25.172z"/>
	<path fill="#F6B238" d="M183.829,122.28H16.171c-3.095,0-5.604-2.509-5.604-5.604c0-3.096,2.509-5.604,5.604-5.604h167.657
		c3.095,0,5.604,2.508,5.604,5.604C189.433,119.771,186.924,122.28,183.829,122.28z"/>
	<path fill="#F29130" d="M183.829,116.676H16.171c-2.073,0-3.879-1.129-4.848-2.802c-2.143,3.697,0.509,8.406,4.848,8.406h167.657
		c4.34,0,6.989-4.71,4.848-8.406C187.708,115.548,185.902,116.676,183.829,116.676z"/>
</g>
</svg>
