<?xml version="1.0" encoding="utf-8"?>
<!-- Generator: Adobe Illustrator 23.0.0, SVG Export Plug-In . SVG Version: 6.00 Build 0)  -->
<svg version="1.1" id="Layer_1" xmlns="http://www.w3.org/2000/svg" xmlns:xlink="http://www.w3.org/1999/xlink" x="0px" y="0px"
	 viewBox="0 0 512 512" style="enable-background:new 0 0 512 512;" xml:space="preserve">
<style type="text/css">
	.st0{fill:#96D6D4;}
	.st1{fill:#594A40;}
	.st2{fill:#775238;}
	.st3{fill:#298B65;}
	.st4{fill:#247A59;}
	.st5{fill:#206B4E;}
	.st6{fill:#32A670;}
	.st7{fill:#1B5C43;}
	.st8{fill:#2E9968;}
	.st9{fill:#FFFFFF;}
	.st10{opacity:0.6;}
</style>
<rect class="st0" width="511.59" height="416.36"/>
<path class="st1" d="M0.26,380.6c71.85-56.87,148.42-97.32,239.24-129.03c86.91-30.34,179.12-38.62,272.33-36.52v296.61H0
	L0.26,380.6z"/>
<rect x="156.34" y="255.75" class="st2" width="14" height="64.02"/>
<rect x="208.49" y="416.36" class="st2" width="14" height="64.02"/>
<rect x="139.41" y="407.4" class="st2" width="14" height="64.02"/>
<rect x="317.71" y="300.43" class="st2" width="14" height="64.02"/>
<rect x="406.46" y="303.43" class="st2" width="14" height="64.02"/>
<rect x="468.07" y="340.56" class="st2" width="14" height="64.02"/>
<path class="st3" d="M345.97,260.55l-31.5,31.5l69.24,57.69h91.36V209.19l-42.8-57.74h25.17l-41.81-57.12l-41.81,57.12h25.17
	l-49.47,67.57h26.86L345.97,260.55z"/>
<path class="st4" d="M432.26,151.45h25.17l-41.81-57.12l-15.43,21.08l26.38,36.04H401.4l73.67,98.38v-40.64L432.26,151.45z"/>
<path class="st3" d="M187.76,231.5h16.82l-41.4-67.68l-41.4,67.68h16.82l-34.41,56.26h118.29L187.76,231.5z"/>
<rect x="267.64" y="235.99" class="st2" width="14" height="64.02"/>
<path class="st3" d="M299.06,211.74h16.82l-41.4-67.68l-41.4,67.68h16.82L215.49,268h118.29L299.06,211.74z"/>
<rect x="45.53" y="389.41" class="st2" width="14" height="64.02"/>
<path class="st5" d="M324.71,225.79l-41.4,62.67h16.82l-34.41,52.1H383.7l-34.41-52.1h16.82L324.71,225.79z"/>
<path class="st5" d="M71.91,365.16h13.35l-32.85-67.68l-32.85,67.68H32.9L5.59,421.42h93.88L71.91,365.16z"/>
<path class="st5" d="M142.78,303.18h13.35l-32.85-67.68l-32.85,67.68h13.35l-27.31,56.26h93.88L142.78,303.18z"/>
<path class="st6" d="M165.79,391.72h13.35l-32.85-67.68l-32.85,67.68h13.35l-27.31,56.26h93.88L165.79,391.72z"/>
<path class="st6" d="M0.26,488.23h52.27l-27.56-56.26h13.35L0.26,364.28v64.3"/>
<path class="st5" d="M308.05,439.41l-54.93-71.63h25.63l-47.2-64.48h24.02l-39.9-54.5l-39.9,54.5h24.02l-47.2,64.48h25.63
	l-39.21,53.56l12.18,18.07H308.05z"/>
<path class="st6" d="M429.01,498.51l-41.64-54.31h19.43l-35.79-48.88h18.21L358.98,354l-30.25,41.32h18.21l-35.79,48.88h19.43
	l-29.73,40.61l9.23,13.7H429.01z"/>
<path class="st7" d="M344.02,494.97l-17.88-29.23h17.11l-42.12-68.86l-42.12,68.86h17.11l-28.09,45.92h105.62L344.02,494.97z"/>
<path class="st5" d="M272.56,503.66l-17.88-14.62h17.11l-42.12-34.43l-42.12,34.43h17.11L176.59,512h105.62L272.56,503.66z"/>
<path class="st3" d="M180.05,511.66l-52.44-71.63h25.63l-47.2-64.48h24.02l-39.9-54.5l-39.9,54.5h24.02l-47.2,64.48H52.7
	L0.26,511.66H180.05z"/>
<path class="st6" d="M382.19,375.45l52.44-71.63h-25.63l47.2-64.48h-24.02l39.9-54.5l39.92,54.5h-24.04l23.88,33.06v103.05H389.66"
	/>
<path class="st8" d="M504.3,303.82l-47.2-64.48h24.02l-24.47-33.42l15.43-21.08l39.9,54.5h-24.02l23.88,33.06v34.23v42.25
	l-33.17-45.06L504.3,303.82z"/>
<path class="st5" d="M331.8,511.66l52.44-71.63h-25.63l47.2-64.48H381.8l39.9-54.5l39.9,54.5h-24.02l47.2,64.48h-25.63l52.44,71.63
	H331.8z"/>
<path class="st7" d="M459.15,440.03h25.63l-47.2-64.48h24.02l-39.9-54.5l-15.43,21.08l24.47,33.42h-24.02l47.2,64.48h-25.63
	l52.44,71.63h30.86L459.15,440.03z"/>
<g>
	<path class="st9" d="M165,81.69c0-15.33-12.39-27.72-27.72-27.72c-2.29,0-4.5,0.37-6.7,0.92c-7.25-7.8-17.53-12.76-29.01-12.76
		c-21.94,0-39.65,17.72-39.65,39.65L165,81.69L165,81.69z"/>
</g>
<g>
	<path class="st9" d="M297.37,94.16c-1.78,0-3.55,0.36-5.21,0.83c-5.21-7.46-13.85-12.43-23.79-12.43
		c-9.94,0-18.47,4.97-23.79,12.43c-1.66-0.47-3.31-0.83-5.21-0.83c-9.59,0-17.4,7.81-17.4,17.4h92.56
		C314.77,101.97,306.96,94.16,297.37,94.16z"/>
</g>
<g class="st10">
	<path class="st9" d="M385.23,67.51c0-14.44-11.72-26.16-26.16-26.16c-2.13,0-4.26,0.36-6.27,0.83
		c-6.87-7.34-16.57-12.07-27.34-12.07c-20.71,0-37.4,16.81-37.4,37.4H385.23L385.23,67.51z"/>
</g>
<g class="st10">
	<path class="st9" d="M412.49,50.35c-1.78,0-3.55,0.36-5.09,0.83c-5.21-7.46-13.73-12.31-23.44-12.31s-18.35,4.85-23.44,12.31
		c-1.66-0.47-3.31-0.83-5.09-0.83c-9.47,0-17.16,7.69-17.16,17.16h91.5C429.65,58.04,421.96,50.35,412.49,50.35z"/>
</g>
<g>
	<path class="st9" d="M348.42,97.59c-1.42,0-2.84,0.24-4.14,0.71c-4.26-6.04-11.25-10.06-19.06-10.06
		c-7.81,0-14.91,4.02-19.06,10.06c-1.3-0.47-2.72-0.71-4.14-0.71c-7.69,0-13.97,6.27-13.97,13.97h74.57
		C362.39,103.86,356.12,97.59,348.42,97.59z"/>
</g>
</svg>
