<?xml version="1.0" encoding="utf-8"?>
<!-- Generator: Adobe Illustrator 23.0.0, SVG Export Plug-In . SVG Version: 6.00 Build 0)  -->
<svg version="1.1" id="Calque_1" xmlns="http://www.w3.org/2000/svg" xmlns:xlink="http://www.w3.org/1999/xlink" x="0px" y="0px"
	 viewBox="0 0 200 200" style="enable-background:new 0 0 200 200;" xml:space="preserve">
<style type="text/css">
	.st0{clip-path:url(#SVGID_2_);fill:#C2E5F4;}
	.st1{clip-path:url(#SVGID_2_);}
	.st2{fill:#FDECA2;}
	.st3{opacity:0.35;}
	.st4{fill:#FFFFFF;}
	.st5{fill:#257D86;}
	.st6{fill:#22868B;}
	.st7{fill:#268995;}
	.st8{fill:#318F98;}
	.st9{fill:#278B97;}
	.st10{fill:#2A929B;}
	.st11{fill:#389AAC;}
	.st12{fill:#40A3B1;}
	.st13{fill:#00A49D;}
	.st14{fill:#53BBB1;}
</style>
<g>
	<defs>
		<rect id="SVGID_1_" width="200" height="200"/>
	</defs>
	<clipPath id="SVGID_2_">
		<use xlink:href="#SVGID_1_"  style="overflow:visible;"/>
	</clipPath>
	<rect class="st0" width="200" height="200"/>
	<g class="st1">
		<circle class="st2" cx="75.84" cy="34.8" r="20.2"/>
		<g>
			<g>
				<g class="st3">
					<path class="st4" d="M68.85,31.85c-2.2,0-4.27,0.66-6.06,1.81c-2.1-1.83-4.71-2.92-7.54-2.92c-0.01,0-0.03,0-0.04,0
						c-0.37-5.6-3.5-10.3-7.83-12.29c-1.85-5.3-6.34-9.04-11.6-9.04c-3.37,0-6.43,1.54-8.67,4.04c-1.21-0.45-2.49-0.69-3.83-0.69
						c-1.84,0-3.58,0.46-5.15,1.28c0.03-0.42,0.05-0.85,0.05-1.28c0-7.97-5.6-14.42-12.5-14.42c-6.9,0-12.5,6.46-12.5,14.42
						s5.6,14.42,12.5,14.42c1.84,0,3.58-0.46,5.15-1.28c-0.03,0.42-0.05,0.85-0.05,1.28c0,7.97,5.6,14.42,12.5,14.42
						c3.13,0,6-1.33,8.19-3.53c2.01,4.85,6.31,8.19,11.28,8.19c0.01,0,0.03,0,0.04,0c0.49,7.45,5.88,13.32,12.46,13.32
						c2.2,0,4.27-0.66,6.06-1.81c2.1,1.83,4.71,2.92,7.54,2.92c6.9,0,12.5-6.46,12.5-14.42C81.35,38.31,75.76,31.85,68.85,31.85z"/>
					<path class="st4" d="M201.85,11.07c-3.38,0-6.44,1.55-8.69,4.06c-1.95-1.46-4.28-2.31-6.78-2.31c-6.01,0-11.03,4.9-12.23,11.42
						c-0.78-0.26-1.61-0.41-2.47-0.41c-2.22,0-4.25,0.96-5.8,2.53c-1.55-1.57-3.57-2.53-5.8-2.53c-4.49,0-8.2,3.9-8.71,8.93
						c-2.74,1.71-4.6,5.06-4.6,8.9c0,5.59,3.93,10.12,8.77,10.12c4.49,0,8.2-3.9,8.71-8.93c0.59-0.37,1.13-0.81,1.63-1.31
						c1.55,1.57,3.57,2.53,5.8,2.53c3.22,0,6.04-2.01,7.56-4.99c2.02,1.63,4.48,2.58,7.14,2.58c3.38,0,6.44-1.55,8.69-4.06
						c1.95,1.46,4.28,2.31,6.78,2.31c6.9,0,12.5-6.46,12.5-14.42S208.76,11.07,201.85,11.07z"/>
					<path class="st4" d="M132.17,51.85c-2.57,0-4.91,1.18-6.62,3.1c-1.19-0.44-2.47-0.68-3.79-0.68c-3.36,0-6.4,1.53-8.65,4.01
						c-1.78-1.12-3.81-1.75-5.98-1.75c-6.9,0-12.5,6.46-12.5,14.42s5.6,14.42,12.5,14.42c3.36,0,6.4-1.53,8.65-4.01
						c1.78,1.12,3.81,1.75,5.98,1.75c5.39,0,9.98-3.93,11.73-9.44c4.62-0.75,8.18-5.32,8.18-10.86
						C141.67,56.76,137.42,51.85,132.17,51.85z"/>
				</g>
				<g>
					<path class="st4" d="M106.79,74.43c-0.76,0-1.5,0.08-2.22,0.24c-1.94-3.31-4.68-6.01-7.91-7.79c0.05-0.62,0.08-1.26,0.08-1.89
						c0-11.06-8.2-20.02-18.32-20.02c-2.21,0-4.33,0.43-6.29,1.21c-2.09-2.78-5.25-4.55-8.8-4.55c-3.77,0-7.12,2.01-9.19,5.1
						c-3.54-6.16-9.81-10.26-16.96-10.26c-1.78,0-3.51,0.26-5.15,0.74c-1.43-10.55-9.75-18.65-19.8-18.65
						c-2.02,0-3.98,0.33-5.82,0.94c-2.05-3.26-5.49-5.39-9.38-5.39c-6.29,0-11.38,5.57-11.38,12.43c0,5.04,2.75,9.38,6.7,11.33
						c-0.09,0.84-0.14,1.69-0.14,2.56c0,3.96,0.97,7.67,2.65,10.88c-4.72,4-7.76,10.26-7.76,17.29c0,12.08,8.96,21.88,20.02,21.88
						c8.55,0,15.85-5.86,18.72-14.1c3.23,2.43,7.13,3.85,11.35,3.85c0.37,0,0.74-0.01,1.1-0.03c2.71,8.57,10.16,14.72,18.92,14.72
						c4.06,0,7.83-1.32,10.99-3.59c2.03,9.74,9.99,17.01,19.52,17.01c6.8,0,12.81-3.71,16.42-9.37c0.85,0.22,1.75,0.35,2.66,0.35
						c6.29,0,11.38-5.57,11.38-12.43C118.17,80,113.07,74.43,106.79,74.43z"/>
					<path class="st4" d="M206.07,53.06c0.22-1.29,0.34-2.62,0.34-3.99c0-3.57-0.79-6.94-2.18-9.92c0.66-1.58,1.03-3.33,1.03-5.18
						c0-6.87-5.1-12.43-11.38-12.43c-4.04,0-7.59,2.3-9.61,5.77c-7.18,0.82-13.22,5.79-16.1,12.67c-2.47-1.19-5.2-1.86-8.08-1.86
						c-10.96,0-19.85,9.62-20.01,21.55c-10.26,0.94-18.32,10.34-18.32,21.79c0,12.08,8.96,21.88,20.02,21.88
						c10.96,0,19.85-9.62,20.01-21.55c4.29-0.39,8.19-2.26,11.28-5.15c3.06,7.81,10.15,13.28,18.41,13.28
						c11.06,0,20.02-9.79,20.02-21.88C211.51,62.25,209.44,56.98,206.07,53.06z"/>
				</g>
			</g>
		</g>
	</g>
	<g class="st1">
		<g>
			<g>
				<g>
					<polygon class="st5" points="0,92.74 18.4,54.54 33.51,89.73 41.2,78.12 53.2,101.82 64,89.73 93.73,162.2 0,188.01 					"/>
					<polygon class="st6" points="4.16,84.1 7.4,113.65 15.3,110.42 17.73,133.62 22.39,126.24 40.1,149.18 0,171.53 0,92.74 					
						"/>
					<path class="st5" d="M0,124.81l6.27,1.41l0.13,16.82l14.64,3.13C20.13,148.87,0,169.4,0,169.4L0,124.81z"/>
				</g>
				<g>
					<polygon class="st7" points="18.4,54.54 33.51,89.73 41.2,78.12 53.2,101.82 64,89.73 71.11,107.07 68.16,109.73 64.63,103.61 
						50.53,113.65 38.27,96.77 24.93,104.22 18.4,64.92 9.09,73.88 					"/>
					<g>
						<g>
							<g>
								<g>
									<path class="st8" d="M26.96,81.34l1.2,3.77c0.16,0.51-0.06,1.08-0.49,1.27s-0.91-0.07-1.08-0.58l-1.2-3.77
										c-0.16-0.51,0.06-1.08,0.49-1.27C26.32,80.58,26.8,80.84,26.96,81.34z"/>
									<path class="st8" d="M22.15,66.28l1.2,3.77c0.16,0.51-0.06,1.08-0.49,1.27c-0.43,0.19-0.91-0.07-1.08-0.58l-1.2-3.77
										c-0.16-0.51,0.06-1.08,0.49-1.27C21.51,65.51,21.99,65.77,22.15,66.28z"/>
									<path class="st8" d="M24.56,73.81l1.2,3.77c0.16,0.51-0.06,1.08-0.49,1.27c-0.43,0.19-0.91-0.07-1.08-0.58l-1.2-3.77
										c-0.16-0.51,0.06-1.08,0.49-1.27S24.39,73.3,24.56,73.81z"/>
								</g>
							</g>
							<g>
								<g>
									<path class="st8" d="M27.47,91.75l1.2,3.77c0.16,0.51-0.06,1.08-0.49,1.27c-0.43,0.19-0.91-0.07-1.08-0.58l-1.2-3.77
										c-0.16-0.51,0.06-1.08,0.49-1.27C26.82,90.98,27.3,91.24,27.47,91.75z"/>
									<path class="st8" d="M22.66,76.68l1.2,3.77c0.16,0.51-0.06,1.08-0.49,1.27s-0.91-0.07-1.08-0.58l-1.2-3.77
										c-0.16-0.51,0.06-1.08,0.49-1.27S22.5,76.17,22.66,76.68z"/>
									<path class="st8" d="M25.06,84.21l1.2,3.77c0.16,0.51-0.06,1.08-0.49,1.27c-0.43,0.19-0.91-0.07-1.08-0.58l-1.2-3.77
										c-0.16-0.51,0.06-1.08,0.49-1.27C24.42,83.45,24.9,83.7,25.06,84.21z"/>
								</g>
							</g>
						</g>
						<g>
							<g>
								<g>
									<path class="st8" d="M47.68,95.41l1.39,3.04c0.19,0.41,0.06,0.93-0.29,1.15s-0.79,0.07-0.97-0.34l-1.39-3.04
										c-0.19-0.41-0.06-0.93,0.29-1.15S47.49,95,47.68,95.41z"/>
									<path class="st8" d="M42.1,83.24l1.39,3.04c0.19,0.41,0.06,0.93-0.29,1.15s-0.79,0.07-0.97-0.34l-1.39-3.04
										c-0.19-0.41-0.06-0.93,0.29-1.15S41.91,82.82,42.1,83.24z"/>
									<path class="st8" d="M44.89,89.32l1.39,3.04c0.19,0.41,0.06,0.93-0.29,1.15c-0.35,0.22-0.79,0.07-0.97-0.34l-1.39-3.04
										c-0.19-0.41-0.06-0.93,0.29-1.15C44.26,88.76,44.7,88.91,44.89,89.32z"/>
								</g>
							</g>
							<g>
								<g>
									<path class="st8" d="M43.76,93.45l1.39,3.04c0.19,0.41,0.06,0.93-0.29,1.15s-0.79,0.07-0.97-0.34l-1.39-3.04
										c-0.19-0.41-0.06-0.93,0.29-1.15S43.57,93.04,43.76,93.45z"/>
									<path class="st8" d="M40.97,87.36l1.39,3.04c0.19,0.41,0.06,0.93-0.29,1.15s-0.79,0.07-0.97-0.34l-1.39-3.04
										c-0.19-0.41-0.06-0.93,0.29-1.15S40.78,86.95,40.97,87.36z"/>
								</g>
							</g>
						</g>
						<g>
							<g>
								<g>
									<path class="st8" d="M68.37,102.62l1.17,2.56c0.16,0.35,0.05,0.78-0.24,0.97c-0.29,0.19-0.66,0.06-0.82-0.29l-1.17-2.56
										c-0.16-0.35-0.05-0.78,0.24-0.97C67.85,102.15,68.21,102.27,68.37,102.62z"/>
									<path class="st8" d="M63.68,92.39l1.17,2.56c0.16,0.35,0.05,0.78-0.24,0.97c-0.29,0.19-0.66,0.06-0.82-0.29l-1.17-2.56
										c-0.16-0.35-0.05-0.78,0.24-0.97C63.16,91.91,63.53,92.04,63.68,92.39z"/>
									<path class="st8" d="M66.03,97.51l1.17,2.56c0.16,0.35,0.05,0.78-0.24,0.97c-0.29,0.19-0.66,0.06-0.82-0.29l-1.17-2.56
										c-0.16-0.35-0.05-0.78,0.24-0.97C65.5,97.03,65.87,97.16,66.03,97.51z"/>
								</g>
							</g>
							<g>
								<g>
									<path class="st8" d="M65.35,100.27l1.17,2.56c0.16,0.35,0.05,0.78-0.24,0.97c-0.29,0.19-0.66,0.06-0.82-0.29l-1.17-2.56
										c-0.16-0.35-0.05-0.78,0.24-0.97C64.82,99.8,65.19,99.93,65.35,100.27z"/>
									<path class="st8" d="M63,95.16l1.17,2.56c0.16,0.35,0.05,0.78-0.24,0.97c-0.29,0.19-0.66,0.06-0.82-0.29l-1.17-2.56
										c-0.16-0.35-0.05-0.78,0.24-0.97S62.84,94.81,63,95.16z"/>
								</g>
							</g>
						</g>
					</g>
				</g>
			</g>
			<g>
				<g>
					<g>
						<polygon class="st9" points="151.1,63.01 163.67,71.88 157.6,80.17 						"/>
						<polygon class="st9" points="122.14,75.39 135.87,82.84 129.92,90.58 						"/>
						<polygon class="st9" points="86.57,98.23 104.42,103.73 99.6,111.45 						"/>
					</g>
					<g>
						<polygon class="st9" points="188.02,38.64 157.6,80.17 151.1,63.01 129.92,90.58 122.14,75.39 99.6,111.45 86.57,98.23 
							54.07,136.47 40.53,150.58 162.43,197.98 200,181.93 200,61.58 						"/>
						<polygon class="st10" points="87.62,125.08 98.37,121.46 84.04,136.12 101.58,136.12 88.98,145.09 97.94,156.71 40.53,150.58 
							81.45,111.45 						"/>
						<polygon class="st10" points="143.04,104.84 122.14,132.01 143.04,124.88 127.02,145.09 151.1,145.09 145.17,154.71 
							178.14,161.08 194.07,137.31 174.81,129.58 183.33,104.84 154.18,120.27 157.4,93.32 						"/>
					</g>
				</g>
				<g>
					<polygon class="st11" points="188.02,38.64 174.44,73.11 186.66,71.59 154.18,120.27 155.67,95.11 115.9,126.61 115.9,106.4 
						84.41,127.2 81.08,118.31 45.8,145.09 86.57,98.23 99.6,111.45 122.14,75.39 129.92,90.58 151.1,63.01 157.6,80.17 					"/>
					<g>
						<g>
							<path class="st12" d="M76.5,114.25l-2.56,2.98c-0.35,0.4-0.83,0.28-1.08-0.28c-0.25-0.56-0.17-1.33,0.17-1.74l2.56-2.98
								c0.35-0.4,0.83-0.28,1.08,0.28C76.93,113.07,76.85,113.85,76.5,114.25z"/>
							<path class="st12" d="M86.74,102.34l-2.56,2.98c-0.35,0.4-0.83,0.28-1.08-0.28c-0.25-0.56-0.17-1.33,0.17-1.74l2.56-2.98
								c0.35-0.4,0.83-0.28,1.08,0.28C87.16,101.16,87.08,101.93,86.74,102.34z"/>
							<path class="st12" d="M81.62,108.3l-2.56,2.98c-0.35,0.4-0.83,0.28-1.08-0.28s-0.17-1.33,0.17-1.74l2.56-2.98
								c0.35-0.4,0.83-0.28,1.08,0.28C82.04,107.12,81.97,107.89,81.62,108.3z"/>
						</g>
						<g>
							<path class="st12" d="M81.13,114.25l-2.56,2.98c-0.35,0.4-0.83,0.28-1.08-0.28s-0.17-1.33,0.17-1.74l2.56-2.98
								c0.35-0.4,0.83-0.28,1.08,0.28C81.56,113.07,81.48,113.85,81.13,114.25z"/>
							<path class="st12" d="M86.25,108.3l-2.56,2.98c-0.35,0.4-0.83,0.28-1.08-0.28c-0.25-0.56-0.17-1.33,0.17-1.74l2.56-2.98
								c0.35-0.4,0.83-0.28,1.08,0.28C86.67,107.12,86.6,107.89,86.25,108.3z"/>
						</g>
					</g>
					<g>
						<g>
							<path class="st12" d="M113.47,95.73l-2.12,3.77c-0.29,0.51-0.78,0.55-1.09,0.09c-0.32-0.46-0.34-1.25-0.06-1.75l2.12-3.77
								c0.29-0.51,0.78-0.55,1.09-0.09C113.73,94.43,113.75,95.22,113.47,95.73z"/>
							<path class="st12" d="M121.94,80.66l-2.12,3.77c-0.29,0.51-0.78,0.55-1.09,0.09c-0.32-0.46-0.34-1.25-0.06-1.75l2.12-3.77
								c0.29-0.51,0.78-0.55,1.09-0.09C122.2,79.37,122.22,80.15,121.94,80.66z"/>
							<path class="st12" d="M117.7,88.19l-2.12,3.77c-0.29,0.51-0.78,0.55-1.09,0.09c-0.32-0.46-0.34-1.25-0.06-1.75l2.12-3.77
								c0.29-0.51,0.78-0.55,1.09-0.09C117.96,86.9,117.99,87.69,117.7,88.19z"/>
						</g>
						<g>
							<path class="st12" d="M114.31,100.67l-2.12,3.77c-0.29,0.51-0.78,0.55-1.09,0.09c-0.32-0.46-0.34-1.25-0.06-1.75l2.12-3.77
								c0.29-0.51,0.78-0.55,1.09-0.09C114.57,99.37,114.59,100.16,114.31,100.67z"/>
							<path class="st12" d="M122.78,85.61l-2.12,3.77c-0.29,0.51-0.78,0.55-1.09,0.09c-0.32-0.46-0.34-1.25-0.06-1.75l2.12-3.77
								c0.29-0.51,0.78-0.55,1.09-0.09C123.04,84.31,123.06,85.1,122.78,85.61z"/>
							<path class="st12" d="M118.54,93.14l-2.12,3.77c-0.29,0.51-0.78,0.55-1.09,0.09c-0.32-0.46-0.34-1.25-0.06-1.75l2.12-3.77
								c0.29-0.51,0.78-0.55,1.09-0.09C118.8,91.84,118.83,92.63,118.54,93.14z"/>
						</g>
					</g>
					<g>
						<g>
							<path class="st12" d="M139.72,85.53l-2.23,3.59c-0.3,0.49-0.79,0.49-1.1,0s-0.3-1.27,0-1.76l2.23-3.59
								c0.3-0.49,0.79-0.49,1.1,0S140.02,85.04,139.72,85.53z"/>
							<path class="st12" d="M148.66,71.18l-2.23,3.59c-0.3,0.49-0.79,0.49-1.1,0s-0.3-1.27,0-1.76l2.23-3.59
								c0.3-0.49,0.79-0.49,1.1,0S148.96,70.7,148.66,71.18z"/>
							<path class="st12" d="M144.19,78.36l-2.23,3.59c-0.3,0.49-0.79,0.49-1.1,0s-0.3-1.27,0-1.76l2.23-3.59
								c0.3-0.49,0.79-0.49,1.1,0C144.49,77.09,144.49,77.87,144.19,78.36z"/>
						</g>
						<g>
							<path class="st12" d="M140.14,92.63l-2.23,3.59c-0.3,0.49-0.79,0.49-1.1,0c-0.3-0.49-0.3-1.27,0-1.76l2.23-3.59
								c0.3-0.49,0.79-0.49,1.1,0S140.44,92.14,140.14,92.63z"/>
							<path class="st12" d="M149.08,78.28l-2.23,3.59c-0.3,0.49-0.79,0.49-1.1,0c-0.3-0.49-0.3-1.27,0-1.76l2.23-3.59
								c0.3-0.49,0.79-0.49,1.1,0S149.38,77.8,149.08,78.28z"/>
							<path class="st12" d="M144.61,85.46l-2.23,3.59c-0.3,0.49-0.79,0.49-1.1,0s-0.3-1.27,0-1.76l2.23-3.59
								c0.3-0.49,0.79-0.49,1.1,0S144.91,84.97,144.61,85.46z"/>
						</g>
					</g>
					<g>
						<g>
							<g>
								<path class="st12" d="M170.26,69.53l-2.19,3.65c-0.3,0.49-0.79,0.51-1.09,0.03s-0.32-1.26-0.02-1.76l2.19-3.65
									c0.3-0.49,0.79-0.51,1.09-0.03C170.55,68.25,170.56,69.03,170.26,69.53z"/>
								<path class="st12" d="M179.03,54.91l-2.19,3.65c-0.3,0.49-0.79,0.51-1.09,0.03s-0.32-1.26-0.02-1.76l2.19-3.65
									c0.3-0.49,0.79-0.51,1.09-0.03C179.32,53.63,179.33,54.42,179.03,54.91z"/>
								<path class="st12" d="M174.65,62.22l-2.19,3.65c-0.3,0.49-0.79,0.51-1.09,0.03s-0.32-1.26-0.02-1.76l2.19-3.65
									c0.3-0.49,0.79-0.51,1.09-0.03S174.94,61.73,174.65,62.22z"/>
							</g>
						</g>
						<g>
							<g>
								<path class="st12" d="M177.66,63.8l-2.19,3.65c-0.3,0.49-0.79,0.51-1.09,0.03c-0.31-0.48-0.32-1.26-0.02-1.76l2.19-3.65
									c0.3-0.49,0.79-0.51,1.09-0.03C177.95,62.52,177.96,63.31,177.66,63.8z"/>
								<path class="st12" d="M173.28,71.11l-2.19,3.65c-0.3,0.49-0.79,0.51-1.09,0.03c-0.31-0.48-0.32-1.26-0.02-1.76l2.19-3.65
									c0.3-0.49,0.79-0.51,1.09-0.03S173.57,70.62,173.28,71.11z"/>
							</g>
						</g>
					</g>
				</g>
			</g>
		</g>
		<g>
			<g>
				<path class="st13" d="M0,162.87c0,0,26.6-16.17,50-15.75s112.6,27.77,128.41,33.16s21.59,8.26,21.59,8.26V200H0V162.87z"/>
			</g>
			<g>
				<path class="st14" d="M200,157.46c0,0-21.6-8.56-59.2-4.14c-37.6,4.42-83.6,23.89-105.6,23.89c-20.12,0-35.2-5.38-35.2-5.38
					L0,200h200V157.46z"/>
			</g>
		</g>
	</g>
</g>
</svg>
