<?xml version="1.0" encoding="utf-8"?>
<!-- Generator: Adobe Illustrator 23.0.0, SVG Export Plug-In . SVG Version: 6.00 Build 0)  -->
<svg version="1.1" id="Calque_1" xmlns="http://www.w3.org/2000/svg" xmlns:xlink="http://www.w3.org/1999/xlink" x="0px" y="0px"
	 viewBox="0 0 200 200" enable-background="new 0 0 200 200" xml:space="preserve">
<rect x="0" y="0" fill="#5F5D73" width="200" height="200"/>
<g>
	<g>
		<path fill="#CCB292" d="M84.062,117.374c-6.395-0.313-12.605-2.252-18.043-5.633c-12.154-7.076-18.357-17.64-22.638-30.728
			c-1.592-4.739-2.65-9.641-3.155-14.615c17.205-5.019,22.591-22.879,20.121-40.477c-0.157-1.786-1.732-3.107-3.518-2.95
			c-1.786,0.157-3.107,1.732-2.95,3.518c-0.195,7.16-2.114,14.167-5.595,20.427c-3.798,5.915-8.232,7.32-14.112,8.505
			c-12.918-5.674-9.864-7.644-12.483-12.019c-0.436-1.282-1.686-2.107-3.036-2.003c-1.351,0.104-2.459,1.11-2.694,2.444
			c-1.054,5.186,0.077,10.578,3.128,14.903c2.304,3.307,5.511,5.883,9.237,7.42c0.72,6.22,1.999,12.363,3.822,18.354l1.738,4.848
			c-4.974-1.494-9.344-4.53-12.48-8.67c-0.85-1.164-2.432-1.517-3.697-0.826c-1.265,0.691-1.822,2.213-1.301,3.557
			c2.034,5.463,5.671,10.184,10.434,13.544c3.98,2.893,8.608,4.767,13.48,5.459c3.398,5.505,7.703,10.396,12.733,14.465
			c-12.054,3.499-17.034-1.714-18.836,2.314c-0.309,0.69-0.331,1.475-0.062,2.181c0.27,0.706,0.809,1.277,1.499,1.585
			c2.421,1.154,4.946,2.078,7.541,2.758c7.304,1.91,15.022,1.499,22.082-1.176c5.782,2.606,11.989,4.14,18.319,4.528
			c3.103-0.072,5.616-2.544,5.739-5.646c0.123-3.102-2.187-5.765-5.275-6.082L84.062,117.374z"/>
		<path fill="#CCB292" d="M172.299,73.333l1.011-7.168c3.727-1.538,6.934-4.113,9.24-7.42c3.065-4.319,4.198-9.716,3.128-14.903
			c-0.133-0.774-0.568-1.464-1.21-1.918c-0.642-0.453-1.438-0.633-2.212-0.499c-3.745,0.647-1.685,6.036-7.582,10.39
			c-2.245,1.492-4.665,2.703-7.206,3.604c-7.956-1.605-14.423-4.16-18.069-18.087c-0.939-3.621-1.493-7.331-1.655-11.069
			c-0.01-1.711-1.353-3.118-3.062-3.21c-1.709-0.091-3.193,1.165-3.386,2.866c-2.481,17.684,2.969,35.473,20.121,40.477
			c-2.552,15.058-3.948,19.21-11.76,32.41c-5.579,7.897-13.543,13.797-22.723,16.834c-3.019,1.016-6.167,1.599-9.349,1.732
			c-3.088,0.317-5.397,2.98-5.275,6.082c0.123,3.102,2.636,5.574,5.739,5.646c4.218-0.204,8.392-0.957,12.415-2.24
			c1.899-0.706,4.433-1.705,5.903-2.287c4.422,1.714,9.146,2.514,13.885,2.352c5.463-0.203,10.824-1.549,15.735-3.951
			c0.69-0.308,1.23-0.879,1.499-1.585c0.27-0.706,0.247-1.491-0.062-2.181c-1.802-4.028-6.762,1.176-18.836-2.314
			c5.029-4.069,9.334-8.96,12.733-14.465c10.827-1.532,19.977-8.803,23.914-19.004c0.534-1.347-0.02-2.88-1.292-3.575
			c-1.271-0.695-2.861-0.333-3.706,0.844c-3.135,4.141-7.505,7.177-12.48,8.67C169.757,84.17,171.277,78.804,172.299,73.333
			L172.299,73.333z"/>
	</g>
	<g>
		<path fill="#CB8352" d="M123.872,166.708c-0.897,0-0.338,0.22-12.022-8.16c-4.178-3.001-7.13-7.41-8.314-12.416
			c-0.174-0.698,0.04-1.436,0.562-1.932c0.521-0.496,1.269-0.673,1.958-0.464c0.688,0.209,1.211,0.772,1.369,1.474
			c0.96,4.068,3.36,7.652,6.756,10.09l9.693,6.951l9.693-6.951c3.396-2.438,5.795-6.022,6.756-10.09
			c0.158-0.702,0.68-1.265,1.369-1.474c0.688-0.209,1.436-0.032,1.958,0.464c0.521,0.496,0.736,1.234,0.562,1.932
			c-1.184,5.006-4.136,9.415-8.314,12.416C124.18,166.947,124.767,166.708,123.872,166.708L123.872,166.708z"/>
		<path fill="#AB835B" d="M136.066,146.002l-71.623-0.319c-1.485-0.007-2.941,0.404-4.204,1.185l-3.473,2.147
			c-0.931,0.576-2.015,0.679-3.009,0.288l-9.301-2.599l-32.202,1.277c-2.095,0.075-3.758,1.789-3.767,3.886l-0.09,19.248
			c-0.012,2.699,2.65,4.597,5.197,3.705l29.712-9.776c0.325-0.107,0.681-0.075,0.981,0.09l3.587,1.96
			c1.251,0.684,2.783,0.593,3.945-0.233l11.875-8.444l68.184-4.167c3.368-0.25,5.978-3.047,5.994-6.424l0,0
			C137.877,146.823,137.069,146.006,136.066,146.002z"/>
		<path fill="#9A7353" d="M132.631,154.145c0.123-0.023,0.246-0.051,0.367-0.082c0.06-0.015,0.119-0.03,0.178-0.047
			c0.14-0.04,0.277-0.085,0.412-0.133c0.038-0.013,0.076-0.025,0.113-0.039c0.163-0.062,0.322-0.132,0.479-0.206
			c0.048-0.023,0.095-0.047,0.142-0.072c0.105-0.055,0.209-0.109,0.311-0.169c0.074-0.043,0.148-0.087,0.22-0.133
			c0.083-0.053,0.164-0.108,0.245-0.165c0.066-0.047,0.134-0.092,0.199-0.14c0.119-0.09,0.235-0.184,0.348-0.283
			c0.08-0.07,0.157-0.145,0.234-0.219c0.049-0.047,0.099-0.094,0.146-0.143c0.076-0.077,0.149-0.156,0.22-0.238
			c0.113-0.128,0.215-0.266,0.345-0.38c0.197-0.171,0.321-0.397,0.404-0.644c0.019-0.056,0.051-0.103,0.079-0.153
			c0.062-0.112,0.119-0.227,0.174-0.344c0.016-0.034,0.031-0.068,0.047-0.102c0.054-0.12,0.107-0.241,0.154-0.365l-74.609,0.921
			l-11.875,8.444c-1.162,0.826-2.694,0.917-3.945,0.233l-3.154-1.723c-0.577-0.315-1.258-0.378-1.882-0.172l-29.244,9.622
			c-1.642,0.575-3.327-0.014-4.318-1.224l0,0l-0.023,4.926c-0.012,2.699,2.65,4.597,5.197,3.705l29.712-9.776
			c0.325-0.107,0.681-0.075,0.981,0.09l0.229,0.125l3.357,1.834c0.469,0.256,0.978,0.404,1.492,0.445
			c0.086,0.007,0.171,0.011,0.257,0.011c0.172,0.002,0.343-0.008,0.513-0.03c0.595-0.077,1.175-0.297,1.683-0.659l11.875-8.444
			l68.184-4.167c0.19-0.014,0.377-0.039,0.562-0.069C132.505,154.17,132.567,154.157,132.631,154.145z"/>
		<path fill="#595A5C" d="M78.134,157.534l-2.937,0.18l-0.304,0.636c-1.804,3.77-6.238,5.462-10.095,3.851l-4.048-1.69l-2.47,1.756
			l5.526,2.308c5.122,2.139,11.011-0.108,13.406-5.114L78.134,157.534z"/>
		<path fill="#664E35" d="M9.034,171.755c0.016,0.103,0.032,0.206,0.056,0.306c0.015,0.062,0.036,0.122,0.054,0.183
			c0.025,0.086,0.049,0.173,0.08,0.256c0.024,0.065,0.054,0.127,0.081,0.189c0.033,0.075,0.064,0.151,0.101,0.223
			c0.033,0.065,0.071,0.127,0.108,0.189c0.038,0.065,0.076,0.131,0.117,0.193c0.043,0.064,0.09,0.125,0.136,0.186
			c0.042,0.055,0.083,0.111,0.128,0.164c0.053,0.062,0.109,0.121,0.165,0.18c0.044,0.046,0.088,0.092,0.134,0.136
			c0.063,0.059,0.128,0.115,0.194,0.17c0.044,0.037,0.089,0.074,0.135,0.108c0.073,0.055,0.148,0.107,0.225,0.157
			c0.043,0.028,0.087,0.056,0.131,0.083c0.083,0.05,0.168,0.097,0.255,0.141c0.041,0.021,0.082,0.04,0.123,0.059
			c0.093,0.043,0.188,0.083,0.285,0.118c0.037,0.014,0.075,0.026,0.113,0.039c0.103,0.034,0.208,0.066,0.314,0.091
			c0.033,0.008,0.066,0.014,0.099,0.021c0.113,0.024,0.226,0.045,0.342,0.059c0.027,0.003,0.055,0.005,0.082,0.008
			c0.122,0.012,0.244,0.021,0.368,0.021c0.021,0,0.042-0.001,0.063-0.002c0.131-0.002,0.262-0.008,0.394-0.023
			c0.012-0.001,0.025-0.004,0.038-0.006c0.14-0.018,0.282-0.041,0.423-0.075l0,0l0.761-27.01l-1.703,0.061
			c-0.262,0.009-0.517,0.044-0.763,0.102c-0.246,0.058-0.483,0.139-0.708,0.241c-0.225,0.102-0.439,0.225-0.639,0.366
			c-0.3,0.212-0.569,0.464-0.798,0.749c-0.535,0.665-0.855,1.51-0.86,2.427l-0.09,19.248c-0.001,0.164,0.009,0.326,0.028,0.484
			C9.013,171.651,9.026,171.703,9.034,171.755z"/>
		<path fill="#543C2B" d="M13.78,174.931L13.78,174.931L13.78,174.931l0.217-7.719l-0.676,0.2c-1.642,0.575-3.327-0.014-4.318-1.224
			l-0.023,4.926C8.967,173.673,11.36,175.507,13.78,174.931z"/>
		<path fill="#939599" d="M174.26,140.549l-111.333-0.521c-2.21-0.01-3.998,1.793-3.97,4.002l0.046,3.587l0.023,0l1.214-0.75
			c1.263-0.781,2.72-1.191,4.204-1.185l71.623,0.319c1.002,0.005,1.811,0.821,1.806,1.823c0,0.051-0.006,0.1-0.008,0.151
			l36.367,0.182L174.26,140.549z"/>
		<path fill="#808386" d="M174.246,144.393l-111.333-0.508c-1.976-0.009-3.612,1.433-3.916,3.318l0.005,0.415l0.023,0l1.214-0.75
			c1.263-0.781,2.72-1.191,4.204-1.185l71.623,0.319c1.002,0.005,1.811,0.821,1.806,1.823c0,0.051-0.006,0.1-0.008,0.151
			l36.367,0.169L174.246,144.393z"/>
		<path fill="#6E6F72" d="M190.659,149.837l-17.123-0.063c-0.5-0.002-0.905-0.409-0.903-0.91l0.034-9.171
			c0.002-0.5,0.409-0.905,0.91-0.903l17.123,0.063c0.5,0.002,0.905,0.409,0.903,0.91l-0.034,9.171
			C191.566,149.435,191.159,149.839,190.659,149.837z"/>
		<path fill="#595A5C" d="M172.633,148.865c-0.002,0.5,0.402,0.907,0.903,0.91l17.123,0.063c0.5,0.002,0.907-0.402,0.91-0.903
			l0.017-4.47l-18.935-0.07L172.633,148.865z"/>
	</g>
</g>
</svg>
