<?xml version="1.0" encoding="utf-8"?>
<!-- Generator: Adobe Illustrator 23.0.0, SVG Export Plug-In . SVG Version: 6.00 Build 0)  -->
<svg version="1.1" id="Calque_1" xmlns="http://www.w3.org/2000/svg" xmlns:xlink="http://www.w3.org/1999/xlink" x="0px" y="0px"
	 viewBox="0 0 200 200" enable-background="new 0 0 200 200" xml:space="preserve">
<rect y="0.363" fill="#ED6D6E" width="200" height="200"/>
<g>
	<g id="XMLID_6177_">
		<path fill="#616F9C" d="M83.572,195.072c-4.847,0-8.776-3.929-8.776-8.776v-70.149c0-4.847,3.929-8.776,8.776-8.776
			s8.776,3.929,8.776,8.776v70.149C92.349,191.143,88.419,195.072,83.572,195.072L83.572,195.072z"/>
	</g>
	<circle fill="#F7B49F" cx="94.246" cy="26.071" r="15.157"/>
	<g id="XMLID_6178_">
		<path fill="#424C83" d="M104.917,195.072c-4.847,0-8.776-3.929-8.776-8.776v-70.149c0-4.847,3.929-8.776,8.776-8.776
			s8.776,3.929,8.776,8.776v70.149C113.693,191.143,109.764,195.072,104.917,195.072L104.917,195.072z"/>
	</g>
	<g>
		<path fill="#F7B49F" d="M57.009,79.504v37.542c0,4.039,3.274,7.313,7.314,7.313s7.314-3.274,7.314-7.313V79.504l-7.314-3.139
			L57.009,79.504z"/>
		<path fill="#F7B49F" d="M102.869,46.875l-0.125-0.815H85.575l-0.133,1.072c-0.649,5.248,3.444,9.879,8.731,9.879
			C99.566,57.011,103.689,52.205,102.869,46.875z"/>
	</g>
	<path fill="#92A8B7" d="M132.104,69.676c0,0.036-8.582-23.616-18.227-23.616h-11.134c-0.216,4.351-4.326,7.934-8.611,7.934
		c-4.593,0-8.05-3.57-8.558-7.934h-10.96c-9.66,0-17.558,7.725-17.605,17.22v0.036v16.187h14.627V63.341
		c0.016-1.391,1.431-2.654,2.979-2.654h0.182v55.46h38.897l-0.068-55.46l5.788,16.244"/>
	<path fill="#383C42" d="M85.037,104.337c-0.685,1.075-0.831,2.407-0.396,3.605c0.436,1.198,1.404,2.125,2.619,2.509l8.914,2.815
		c2.16,0.682,4.463-0.516,5.145-2.675l10.339-32.958c0.059,1.26,0.887,2.408,2.16,2.81c1.632,0.516,3.374-0.39,3.889-2.022
		l18.664-59.109l2.586,0.817c1.632,0.516,3.374-0.39,3.889-2.022c0.516-1.632-0.39-3.374-2.022-3.889l-2.586-0.817l1.401-4.438
		c0.516-1.632-0.39-3.374-2.022-3.889c-1.632-0.516-3.374,0.39-3.889,2.022l-9.302,29.46c-0.059-1.26-0.887-2.408-2.16-2.81
		c-1.632-0.516-3.374,0.39-3.889,2.022l-10.176,32.226L85.037,104.337L85.037,104.337z"/>
	<path fill="#F7B49F" d="M99.835,86.344c1.103,3.837,5.104,6.072,8.936,4.99l23.853-6.731c5.331-1.504,1.124-11.064,1.124-11.064
		l-1.937-4.689l-15.346,5.289l-11.687,3.298C100.944,78.519,98.732,82.506,99.835,86.344L99.835,86.344z"/>
</g>
</svg>
