<?xml version="1.0" encoding="utf-8"?>
<!-- Generator: Adobe Illustrator 23.0.0, SVG Export Plug-In . SVG Version: 6.00 Build 0)  -->
<svg version="1.1" id="Calque_1" xmlns="http://www.w3.org/2000/svg" xmlns:xlink="http://www.w3.org/1999/xlink" x="0px" y="0px"
	 viewBox="0 0 200 200" enable-background="new 0 0 200 200" xml:space="preserve">
<rect fill="#ED6D6E" width="200" height="200"/>
<g>
	<g>
		<path fill="#F1A48C" d="M67.897,111.371c4.336-0.22,7.673-3.914,7.453-8.25l-1.564-30.783l4.297-2.266l3.609-10.997l-11.747-2.487
			l-7.933,4.183c-2.707,1.428-4.34,4.296-4.185,7.353l1.818,35.795C59.867,108.253,63.56,111.591,67.897,111.371L67.897,111.371z"/>
		<path fill="#9B7E53" d="M69.946,56.587l22.401-11.811c3.841-2.025,8.596-0.553,10.621,3.288c2.025,3.84,0.553,8.596-3.287,10.621
			L78.084,70.071L69.946,56.587z"/>
	</g>
	<path fill="#3D485A" d="M43.729,160.167l41.429-6.393c4.301-0.664,7.59-4.184,7.961-8.519l3.126-36.54l-19.46,4.373l-1.833,23.17
		l-34.101,5.262c-5.149,0.794-8.68,5.613-7.884,10.762C33.761,157.431,38.579,160.962,43.729,160.167L43.729,160.167z"/>
	<path fill="#3D485A" d="M131.149,193.735c5.19-0.456,9.028-5.033,8.573-10.223l-3.959-45.082c-0.093-1.052-0.361-2.082-0.795-3.045
		l-14.061-31.254c-2.137-4.752-7.722-6.871-12.474-4.733c-4.752,2.138-6.871,7.722-4.733,12.474l13.406,29.799l3.819,43.493
		C121.381,190.342,125.947,194.189,131.149,193.735z"/>
	<path id="XMLID_3351_" fill="#C19C61" d="M76.785,113.087l43.747,7.982l5.072-32.415l0.609-3.694l0.555-3.745l3.41-21.79
		c0.064-0.399,0.103-0.795,0.12-1.189l0.137-3.173l-1.842-2.978c-1.548-2.345-4.037-4.058-7.03-4.533l-23.267-3.699
		c-5.657-0.899-10.973,2.958-11.872,8.615l-5.254,33.046l-0.595,3.807l-0.732,4.54L76.785,113.087z"/>
	<ellipse id="XMLID_1118_" fill="#F7B49F" cx="119.619" cy="23.573" rx="17.342" ry="17.342"/>
	<g>
		<path fill="#F7B49F" d="M146.136,73.442l19.373-25.127c2.651-3.438,2.013-8.375-1.426-11.026
			c-3.438-2.651-8.375-2.013-11.026,1.426l-15.868,20.582l-9.13-3.304l-9.08,4.764l3.672,10l14.584,5.278
			C140.453,77.199,144.05,76.146,146.136,73.442L146.136,73.442z"/>
		<path fill="#A58556" d="M98.738,53.743c1.478-4.083,5.985-6.195,10.068-4.717l19.252,6.967l-5.408,14.764l-19.195-6.946
			C99.373,62.333,97.261,57.826,98.738,53.743L98.738,53.743z"/>
	</g>
</g>
</svg>
