<?xml version="1.0" encoding="utf-8"?>
<!-- Generator: Adobe Illustrator 23.0.0, SVG Export Plug-In . SVG Version: 6.00 Build 0)  -->
<svg version="1.1" id="Calque_1" xmlns="http://www.w3.org/2000/svg" xmlns:xlink="http://www.w3.org/1999/xlink" x="0px" y="0px"
	 viewBox="0 0 200 200" style="enable-background:new 0 0 200 200;" xml:space="preserve">
<style type="text/css">
	.st0{fill:#6EBFAF;}
	.st1{fill:#FFEBA7;}
	.st2{fill:#B7DAF4;}
	.st3{fill:#E48E66;}
</style>
<rect y="0.13" class="st0" width="200" height="200"/>
<g>
	<polygon class="st1" points="171.7,128.4 135.8,155.08 113.36,142.52 	"/>
	<path class="st2" d="M145.31,108.05c22.14,0.02,40.07,17.97,40.05,40.11s-17.97,40.07-40.11,40.05s-40.07-17.97-40.05-40.11
		c0-5.28,1.05-10.5,3.08-15.37C114.51,117.78,129.12,108.05,145.31,108.05z M141.35,180.21l30.35-51.81l-58.34,14.12l22.44,12.57
		L141.35,180.21z"/>
	<polygon class="st1" points="101.55,45.12 101.55,129.93 57.8,148.16 57.8,77.7 57.8,30.02 101.55,11.78 	"/>
	<polygon class="st3" points="171.7,128.4 141.35,180.21 135.8,155.08 	"/>
	<path class="st3" d="M101.55,45.12V11.78l43.76,18.23v78.04c-16.19,0-30.8,9.73-37.03,24.68l-6.72-2.8V45.12z M134.95,97.15
		c0-4.03-3.27-7.29-7.29-7.29c-4.03,0-7.29,3.27-7.29,7.29s3.27,7.29,7.29,7.29l0,0C131.68,104.45,134.95,101.18,134.95,97.15
		L134.95,97.15z"/>
	<circle class="st2" cx="127.66" cy="97.15" r="7.29"/>
	<path class="st3" d="M57.8,77.7v70.47l-43.76-18.23V11.78L57.8,30.02V77.7z M41.75,87.96c0-4.03-3.27-7.29-7.29-7.29
		s-7.29,3.27-7.29,7.29c0,4.03,3.27,7.29,7.29,7.29C38.48,95.25,41.75,91.99,41.75,87.96C41.75,87.96,41.75,87.96,41.75,87.96z"/>
	<circle class="st2" cx="34.39" cy="87.67" r="8"/>
	<path class="st2" d="M88.23,55c-0.85-0.85-2.24-0.85-3.09,0c0,0,0,0,0,0l-3.92,3.92L77.29,55c-0.87-0.84-2.25-0.82-3.09,0.04
		c-0.83,0.85-0.83,2.2,0,3.05l3.92,3.92l-3.92,3.92c-0.85,0.85-0.85,2.24,0,3.09c0.85,0.85,2.24,0.85,3.09,0l3.92-3.92l3.92,3.92
		c0.85,0.85,2.24,0.85,3.09,0c0.85-0.85,0.85-2.24,0-3.09l-3.92-3.92l3.92-3.92C89.09,57.24,89.09,55.85,88.23,55z"/>
	<path class="st2" d="M70.5,93.06V88.9c0-2.63-0.74-5.2-2.14-7.42c-0.64-1-1.97-1.29-2.98-0.65c-0.99,0.64-1.29,1.95-0.67,2.95
		c0.97,1.53,1.48,3.31,1.48,5.12v4.16c0,1.19,0.96,2.15,2.15,2.15S70.5,94.25,70.5,93.06z"/>
	<path class="st2" d="M81.17,95.88c-1.16-0.33-2.37,0.35-2.7,1.51c0,0,0,0,0,0c-0.56,1.98-2.62,3.13-4.6,2.56
		c-0.33-0.09-0.65-0.23-0.94-0.42c-1.02-0.65-2.37-0.35-3.02,0.67s-0.35,2.37,0.67,3.02c0.01,0.01,0.02,0.01,0.03,0.02
		c3.8,2.36,8.8,1.19,11.16-2.61c0.4-0.64,0.7-1.33,0.91-2.06C83,97.42,82.33,96.21,81.17,95.88z"/>
	<path class="st2" d="M61.11,76.08c-1.03-0.31-2.08-0.5-3.15-0.56c-0.29-0.02-0.58-0.03-0.91-0.03c-2.05,0.01-4.04-0.64-5.7-1.84
		c-0.97-0.72-2.34-0.51-3.06,0.47c-0.72,0.97-0.51,2.34,0.47,3.06c0.01,0.01,0.02,0.01,0.03,0.02c2.4,1.74,5.3,2.68,8.27,2.67
		c0.22,0,0.41,0.01,0.61,0.02c0.74,0.05,1.48,0.18,2.19,0.39c1.16,0.35,2.38-0.31,2.72-1.47C62.92,77.64,62.26,76.42,61.11,76.08
		L61.11,76.08z"/>
	<path class="st2" d="M35.16,57.71c-1.33,0-2.4,1.07-2.4,2.4v12c0,1.33,1.07,2.4,2.4,2.4c1.33,0,2.4-1.07,2.4-2.4v-12
		C37.56,58.79,36.49,57.71,35.16,57.71z"/>
	<path class="st2" d="M46.5,48.65c0.82-1.05,0.63-2.55-0.42-3.37c0,0,0,0,0,0c-3.6-2.8-8.78-2.15-11.58,1.45
		c-0.82,1.05-1.37,2.28-1.6,3.58c-0.25,1.3,0.61,2.56,1.91,2.81c1.3,0.25,2.56-0.61,2.81-1.91c0-0.01,0-0.02,0.01-0.04
		c0.3-1.64,1.73-2.83,3.4-2.83c0.77,0,1.51,0.25,2.11,0.72C44.17,49.88,45.68,49.7,46.5,48.65C46.5,48.65,46.5,48.65,46.5,48.65z"/>
	<path class="st2" d="M47.31,65.75v-8.2c0-1.21-0.98-2.19-2.19-2.19c-1.21,0-2.19,0.98-2.19,2.19v8.2c0,1.08,0.12,2.15,0.36,3.21
		c0.27,1.18,1.45,1.91,2.63,1.64s1.91-1.45,1.64-2.63C47.39,67.24,47.31,66.49,47.31,65.75z"/>
	<path class="st2" d="M79.98,75.84c-1.19,0-2.15,0.96-2.15,2.15v10.77c0,1.19,0.96,2.15,2.15,2.15s2.15-0.96,2.15-2.15V77.99
		C82.13,76.8,81.17,75.84,79.98,75.84z"/>
	<path class="st2" d="M81.22,50.71c1.21,0,2.19-0.98,2.19-2.19V37.58c0-1.21-0.98-2.19-2.19-2.19s-2.19,0.98-2.19,2.19v10.94
		C79.03,49.73,80.01,50.71,81.22,50.71z"/>
	<path class="st2" d="M126.91,53.76c-1.11-0.47-2.4,0.05-2.87,1.17c0,0,0,0,0,0c-0.5,1.2-1.68,1.98-2.99,1.98h-4.58
		c-1.21,0-2.19,0.98-2.19,2.19c0,1.21,0.98,2.19,2.19,2.19h4.58c3.06,0,5.83-1.83,7.02-4.66C128.54,55.52,128.02,54.23,126.91,53.76
		C126.91,53.76,126.91,53.76,126.91,53.76z"/>
	<path class="st2" d="M115.39,47.3h5.67c1.07,0,2.07,0.53,2.68,1.41c0.7,0.98,2.07,1.21,3.05,0.51c0.95-0.68,1.2-2,0.56-2.98
		c-1.42-2.08-3.77-3.32-6.29-3.32h-5.66c-1.21,0-2.19,0.98-2.19,2.19C113.2,46.32,114.18,47.3,115.39,47.3L115.39,47.3z"/>
	<path class="st2" d="M94.27,36.26c-0.01-0.16-0.02-0.32-0.02-0.48c0-4.21-3.42-7.62-7.62-7.61c-0.83,0-1.66,0.14-2.45,0.41
		c-1.14,0.39-1.75,1.63-1.36,2.78c0.39,1.14,1.63,1.75,2.78,1.36c1.69-0.58,3.54,0.33,4.11,2.02c0.11,0.34,0.17,0.69,0.17,1.04
		c0,0.26,0.01,0.52,0.03,0.77c0.08,1.15,1.03,2.04,2.18,2.04c0.05,0,0.1,0,0.15,0C93.44,38.51,94.35,37.46,94.27,36.26z"/>
	<path class="st2" d="M109.03,45.12c0-1.21-0.98-2.19-2.19-2.19h-5.44c-1.41,0-2.8-0.42-3.97-1.2c-1-0.67-2.36-0.4-3.04,0.6
		S94,44.69,95,45.36c1.89,1.27,4.12,1.95,6.41,1.94h5.44C108.05,47.3,109.03,46.32,109.03,45.12z"/>
	<path class="st2" d="M114.81,70.38c-1.47-0.34-2.51-1.65-2.52-3.16v-2.7c0-0.19,0.02-0.37,0.05-0.56c0.21-1.19-0.59-2.32-1.78-2.53
		c-1.19-0.21-2.32,0.59-2.53,1.78c-0.07,0.43-0.11,0.87-0.11,1.3v2.69c-0.02,3.56,2.45,6.65,5.92,7.43
		c1.18,0.24,2.34-0.52,2.58-1.71C116.65,71.79,115.94,70.66,114.81,70.38L114.81,70.38z"/>
	<path class="st2" d="M129.81,83.85c-0.28-4.37-2.55-8.37-6.15-10.86c-0.99-0.7-2.35-0.46-3.05,0.53c-0.7,0.99-0.46,2.35,0.53,3.05
		c0.01,0.01,0.02,0.01,0.03,0.02c2.5,1.73,4.08,4.5,4.27,7.54c0.07,1.15,1.03,2.05,2.18,2.05c0.05,0,0.09,0,0.14,0
		C128.98,86.09,129.89,85.05,129.81,83.85z"/>
</g>
</svg>
