<?xml version="1.0" encoding="utf-8"?>
<!-- Generator: Adobe Illustrator 23.0.0, SVG Export Plug-In . SVG Version: 6.00 Build 0)  -->
<svg version="1.1" xmlns="http://www.w3.org/2000/svg" xmlns:xlink="http://www.w3.org/1999/xlink" x="0px" y="0px"
	 viewBox="0 0 200 200" enable-background="new 0 0 200 200" xml:space="preserve">
<g id="Calque_2">
	<rect x="-0.006" y="0" fill="#CEC7E0" width="200" height="200"/>
	<g>
		<g>
			<g>
				<path fill="#7EC5AD" d="M82.676,39.438c0.127,0.31,0.432,0.517,0.771,0.516l8.619-0.001v20.442c0,0.461,0.375,0.835,0.836,0.835
					l14.184,0.001c0.462,0,0.835-0.374,0.835-0.835v-20.44l8.621-0.001c0.336,0.001,0.642-0.203,0.771-0.516
					c0.128-0.314,0.061-0.673-0.179-0.911l-16.549-16.549c-0.326-0.325-0.855-0.326-1.183,0L82.854,38.527
					C82.618,38.766,82.543,39.126,82.676,39.438z"/>
			</g>
		</g>
		<g>
			<g>
				<path fill="#7EC5AD" d="M82.854,161.363l16.549,16.55c0.328,0.326,0.857,0.324,1.183,0l16.548-16.55
					c0.24-0.239,0.308-0.597,0.18-0.911c-0.13-0.312-0.436-0.517-0.771-0.516l-8.621-0.001v-20.44c0-0.462-0.374-0.835-0.835-0.835
					H92.902c-0.461,0-0.836,0.375-0.836,0.835v20.442l-8.619-0.001c-0.339-0.001-0.644,0.206-0.771,0.516
					C82.543,160.763,82.618,161.124,82.854,161.363z"/>
			</g>
		</g>
		<g>
			<g>
				<path fill="#6B9BD2" d="M38.431,84.785c0.332,0.045,0.664-0.116,0.831-0.41l4.308-7.465l17.703,10.222
					c0.399,0.23,0.911,0.092,1.141-0.306l7.093-12.285c0.231-0.399,0.094-0.909-0.305-1.14L51.502,63.18l4.309-7.467
					c0.169-0.29,0.145-0.658-0.06-0.926c-0.208-0.268-0.553-0.388-0.879-0.301l-22.606,6.057c-0.445,0.12-0.71,0.578-0.592,1.025
					l6.057,22.606C37.82,84.5,38.095,84.744,38.431,84.785z"/>
			</g>
		</g>
		<g>
			<g>
				<path fill="#6B9BD2" d="M144.953,145.194l22.606-6.057c0.447-0.12,0.71-0.579,0.593-1.024l-6.059-22.608
					c-0.087-0.328-0.364-0.564-0.7-0.611c-0.335-0.043-0.665,0.119-0.833,0.411l-4.311,7.465l-17.7-10.221
					c-0.4-0.23-0.91-0.093-1.141,0.306l-7.092,12.285c-0.232,0.397-0.094,0.91,0.304,1.141l17.703,10.22l-4.309,7.465
					c-0.169,0.294-0.144,0.66,0.061,0.926C144.278,145.163,144.628,145.279,144.953,145.194z"/>
			</g>
		</g>
		<g>
			<g>
				<path fill="#F3E164" d="M37.73,115.505l-6.057,22.606c-0.118,0.449,0.147,0.907,0.592,1.026l22.606,6.057
					c0.327,0.088,0.671-0.033,0.879-0.301c0.205-0.268,0.23-0.634,0.06-0.924l-4.309-7.468l17.702-10.22
					c0.399-0.231,0.536-0.741,0.305-1.14l-7.093-12.285c-0.23-0.398-0.742-0.535-1.141-0.306l-17.703,10.222l-4.309-7.464
					c-0.167-0.296-0.5-0.456-0.831-0.411C38.095,114.937,37.82,115.182,37.73,115.505z"/>
			</g>
		</g>
		<g>
			<g>
				<path fill="#F3E164" d="M144.074,54.788c-0.205,0.265-0.232,0.632-0.061,0.925l4.309,7.464l-17.703,10.221
					c-0.397,0.23-0.536,0.743-0.305,1.141l7.093,12.285c0.23,0.4,0.741,0.537,1.141,0.306l17.701-10.22l4.31,7.466
					c0.168,0.29,0.497,0.453,0.833,0.41c0.336-0.046,0.613-0.283,0.7-0.611l6.059-22.607c0.117-0.444-0.146-0.904-0.593-1.024
					l-22.606-6.057C144.628,54.401,144.278,54.518,144.074,54.788z"/>
			</g>
		</g>
		<path fill="#DE636F" d="M134.892,99.997c0,19.274-15.624,34.898-34.897,34.898c-19.274,0-34.899-15.624-34.899-34.898
			c0-19.273,15.625-34.898,34.899-34.898C119.268,65.099,134.892,80.724,134.892,99.997z"/>
		<g>
			<path fill="#FFFFFF" stroke="#FFFFFF" stroke-width="2" stroke-miterlimit="10" d="M111.949,91.52
				c0,1.612-0.229,3.041-0.687,4.287c-0.458,1.246-1.099,2.308-1.923,3.187c-0.824,0.879-1.814,1.566-2.968,2.061
				c-1.154,0.495-2.436,0.788-3.847,0.879l-0.192,6.622c0,0.275-0.16,0.481-0.48,0.618c-0.321,0.137-0.839,0.206-1.553,0.206
				c-0.385,0-0.714-0.014-0.989-0.041c-0.275-0.027-0.495-0.073-0.659-0.137c-0.165-0.064-0.284-0.151-0.357-0.261
				c-0.073-0.11-0.11-0.237-0.11-0.385l-0.165-7.611c-0.018-0.421,0.014-0.765,0.096-1.03c0.082-0.265,0.206-0.485,0.371-0.659
				c0.165-0.174,0.375-0.293,0.632-0.357c0.257-0.064,0.55-0.096,0.879-0.096h0.605c1.19,0,2.207-0.188,3.05-0.563
				c0.843-0.375,1.526-0.875,2.048-1.498c0.522-0.622,0.901-1.356,1.139-2.198c0.238-0.842,0.357-1.722,0.357-2.638
				c0-1.044-0.146-2.001-0.44-2.872c-0.293-0.87-0.733-1.621-1.319-2.253c-0.586-0.632-1.323-1.122-2.211-1.47
				c-0.889-0.348-1.938-0.522-3.147-0.522c-1.062,0-1.992,0.115-2.789,0.343c-0.797,0.229-1.488,0.481-2.075,0.756
				c-0.587,0.275-1.068,0.522-1.443,0.742c-0.376,0.22-0.655,0.33-0.838,0.33c-0.128,0-0.243-0.027-0.343-0.082
				c-0.101-0.055-0.188-0.16-0.261-0.316c-0.073-0.155-0.128-0.366-0.165-0.632c-0.037-0.265-0.055-0.6-0.055-1.003
				c0-0.44,0.027-0.773,0.082-1.003c0.055-0.229,0.174-0.43,0.357-0.604c0.183-0.174,0.536-0.403,1.058-0.687
				c0.522-0.284,1.154-0.545,1.896-0.783c0.742-0.238,1.557-0.44,2.446-0.604c0.888-0.165,1.809-0.247,2.762-0.247
				c1.96,0,3.645,0.279,5.055,0.838c1.411,0.559,2.574,1.315,3.49,2.267c0.916,0.953,1.594,2.07,2.033,3.352
				C111.729,88.735,111.949,90.091,111.949,91.52z M103.266,115.892c0,0.605-0.04,1.104-0.123,1.498s-0.234,0.714-0.454,0.962
				c-0.22,0.247-0.517,0.421-0.892,0.522c-0.376,0.101-0.839,0.151-1.388,0.151c-0.587,0-1.062-0.05-1.429-0.151
				c-0.367-0.101-0.664-0.275-0.893-0.522c-0.229-0.247-0.385-0.568-0.467-0.962s-0.124-0.893-0.124-1.498
				c0-0.604,0.041-1.113,0.124-1.525c0.082-0.412,0.238-0.733,0.467-0.962c0.229-0.229,0.526-0.394,0.893-0.495
				c0.366-0.101,0.842-0.151,1.429-0.151c0.549,0,1.013,0.05,1.388,0.151c0.375,0.101,0.672,0.266,0.892,0.495
				c0.22,0.229,0.372,0.55,0.454,0.962C103.226,114.78,103.266,115.288,103.266,115.892z"/>
		</g>
	</g>
</g>
<g id="Calque_1">
</g>
</svg>
