<?xml version="1.0" encoding="utf-8"?>
<!-- Generator: Adobe Illustrator 23.0.0, SVG Export Plug-In . SVG Version: 6.00 Build 0)  -->
<svg version="1.1" id="Calque_1" xmlns="http://www.w3.org/2000/svg" xmlns:xlink="http://www.w3.org/1999/xlink" x="0px" y="0px"
	 viewBox="0 0 200 200" style="enable-background:new 0 0 200 200;" xml:space="preserve">
<style type="text/css">
	.st0{fill:#384797;}
	.st1{fill:#DD636F;}
	.st2{fill:#DA4B54;}
	.st3{fill:#BEBDBE;}
	.st4{fill:#9C9B9B;}
	.st5{fill:#818282;}
	.st6{fill:#EFECEF;}
	.st7{fill:#E2DFE2;}
</style>
<rect x="0.08" y="0" class="st0" width="200" height="200"/>
<g>
	<path class="st1" d="M176.76,174.77H23.4c-3.75,0-6.79-3.04-6.79-6.79V63.49c0-3.75,3.04-6.79,6.79-6.79h153.35
		c3.75,0,6.79,3.04,6.79,6.79v104.5C183.54,171.73,180.5,174.77,176.76,174.77z"/>
	<path class="st2" d="M176.76,56.7h-11.2c3.75,0,6.79,3.04,6.79,6.79v104.5c0,3.75-3.04,6.79-6.79,6.79h11.2
		c3.75,0,6.79-3.04,6.79-6.79V63.49C183.54,59.74,180.5,56.7,176.76,56.7L176.76,56.7z"/>
	<path class="st3" d="M62.76,32.27v14.25h10.18v-9.18c0-0.93,0.75-1.68,1.68-1.68h50.93c0.93,0,1.68,0.75,1.68,1.68v9.18h10.18
		V32.27c0-3.75-3.04-6.79-6.79-6.79H69.55C65.8,25.49,62.76,28.53,62.76,32.27z"/>
	<path class="st4" d="M130.62,25.49h-6.79c3.75,0,6.79,3.04,6.79,6.79v14.25h6.79V32.27C137.4,28.53,134.36,25.49,130.62,25.49z"/>
	<g>
		<path class="st5" d="M142.49,56.7h-20.36v-6.82c0-1.86,1.5-3.36,3.36-3.36h13.64c1.86,0,3.36,1.5,3.36,3.36V56.7z"/>
		<path class="st5" d="M164.58,70.27h-10.25c-1.86,0-3.36-1.5-3.36-3.36V56.7h16.96v10.21C167.94,68.77,166.43,70.27,164.58,70.27z"
			/>
		<path class="st5" d="M35.58,70.27h10.25c1.86,0,3.36-1.5,3.36-3.36V56.7H32.23v10.21C32.23,68.77,33.73,70.27,35.58,70.27z"/>
		<path class="st5" d="M57.67,56.7h20.36v-6.82c0-1.86-1.5-3.36-3.36-3.36H61.03c-1.86,0-3.36,1.5-3.36,3.36L57.67,56.7z"/>
	</g>
	<circle class="st6" cx="100.08" cy="115.74" r="44.11"/>
	<path class="st7" d="M127.78,81.42c6.12,7.57,9.79,17.21,9.79,27.7c0,24.36-19.75,44.11-44.11,44.11c-10.49,0-20.13-3.67-27.7-9.79
		c8.09,10,20.45,16.4,34.32,16.4c24.36,0,44.11-19.75,44.11-44.11C144.19,101.87,137.79,89.5,127.78,81.42L127.78,81.42z"/>
	<path class="st1" d="M127.26,105.56h-13.64c-1.86,0-3.36-1.5-3.36-3.36V88.56c0-1.86-1.5-3.36-3.36-3.36H93.26
		c-1.86,0-3.36,1.5-3.36,3.36v13.64c0,1.86-1.5,3.36-3.36,3.36H72.9c-1.86,0-3.36,1.5-3.36,3.36v13.64c0,1.86,1.5,3.36,3.36,3.36
		h13.64c1.86,0,3.36,1.5,3.36,3.36v13.64c0,1.86,1.5,3.36,3.36,3.36h13.64c1.86,0,3.36-1.5,3.36-3.36v-13.64
		c0-1.86,1.5-3.36,3.36-3.36h13.64c1.86,0,3.36-1.5,3.36-3.36v-13.64C130.62,107.06,129.11,105.56,127.26,105.56z"/>
</g>
</svg>
