<?xml version="1.0" encoding="utf-8"?>
<!-- Generator: Adobe Illustrator 23.0.0, SVG Export Plug-In . SVG Version: 6.00 Build 0)  -->
<svg version="1.1" id="Calque_1" xmlns="http://www.w3.org/2000/svg" xmlns:xlink="http://www.w3.org/1999/xlink" x="0px" y="0px"
	 viewBox="0 0 200 200" enable-background="new 0 0 200 200" xml:space="preserve">
<rect fill="#63798F" width="200" height="200"/>
<g>
	<path fill="#FCD7BD" d="M44.714,66.714l51.499,0.252c3.669,0.016,7.179,1.416,9.839,3.923c2.667,2.511,6.179,3.926,9.856,3.944
		l6.895,0.032l-0.304,57.594l-25.81,24.068c-2.009,1.875-3.782,3.953-5.298,6.191c-3.924,5.791-6.126,12.641-6.242,19.72
		c-0.03,1.742-0.576,3.362-1.49,4.71c-1.561,2.304-4.197,3.815-7.162,3.8c-4-0.017-7.411-2.83-8.203-6.758l-1.415-6.996
		c-1.612-8.008-1.423-16.3,0.564-24.264l1.938-7.784l-34.232-0.204c-5.47-0.027-9.812-4.579-9.57-10.108
		c0.23-5.328,4.785-9.488,10.093-9.461c0.064,0,0.099-0.046,0.109-0.092c0.006-0.052-0.02-0.11-0.085-0.122
		c-1.177-0.267-2.27-0.75-3.235-1.404c-1.543-1.045-2.765-2.531-3.492-4.272c-0.501-1.2-0.767-2.524-0.745-3.915
		c0.045-2.683,1.161-5.11,2.931-6.867c2.79-2.773,6.198-2.864,6.858-2.869c0.113-0.001,0.207-0.094,0.208-0.211
		c0.002-0.003,0-0.007-0.003-0.01c-0.001-0.106-0.09-0.196-0.196-0.198c-0.749-0.278-1.452-0.646-2.106-1.089
		c-1.596-1.081-2.872-2.615-3.63-4.399c-0.512-1.208-0.79-2.536-0.766-3.915c0.088-5.403,4.52-9.763,9.9-9.736
		c0.134-0.001,0.268-0.002,0.4,0.001c0.081-0.005,0.142-0.063,0.148-0.129c0.002-0.016-0.002-0.037-0.01-0.05
		c-0.019-0.061-0.082-0.108-0.163-0.103c-2.836-0.764-5.093-2.82-6.212-5.505c-0.519-1.23-0.79-2.597-0.767-4.033
		C34.905,71.048,39.336,66.688,44.714,66.714z"/>
	<path fill="#8ED3F6" d="M185.807,141.896l-37.32,0.262l-22.16-0.109c-2.552-0.011-4.585-2.101-4.543-4.667l1.07-65.637
		c0.045-2.569,2.149-4.636,4.706-4.625l21.725,0.108l32.139,0.338c14.187,21.853,16.331,50.155,4.398,74.302
		C185.815,141.876,185.813,141.887,185.807,141.896z"/>
	<path fill="#7AC3ED" d="M127.559,67.12l21.726,0.105l-0.798,74.932l-22.16-0.108c-2.552-0.012-4.588-2.104-4.544-4.671l1.07-65.637
		C122.897,69.175,125.002,67.109,127.559,67.12z"/>
</g>
</svg>
