<?xml version="1.0" encoding="utf-8"?>
<!-- Generator: Adobe Illustrator 23.0.0, SVG Export Plug-In . SVG Version: 6.00 Build 0)  -->
<svg version="1.1" id="Calque_1" xmlns="http://www.w3.org/2000/svg" xmlns:xlink="http://www.w3.org/1999/xlink" x="0px" y="0px"
	 viewBox="0 0 200 200" style="enable-background:new 0 0 200 200;" xml:space="preserve">
<style type="text/css">
	.st0{fill:#91859F;}
	.st1{fill:#D39684;}
	.st2{fill:#F9EACD;}
	.st3{fill:#343434;}
</style>
<rect x="0.39" y="0" class="st0" width="200" height="200"/>
<g>
	<path class="st1" d="M122.84,19.8c-6.67-3.66-14.32-5.74-22.46-5.74c-8.14,0-15.79,2.08-22.46,5.74
		c-2.96-6.56-9.56-11.13-17.22-11.13c-10.43,0-18.88,8.45-18.88,18.88c0,8.83,6.06,16.24,14.25,18.31
		c-1.59,4.7-2.44,9.73-2.44,14.96c0,10.01,3.15,19.28,8.5,26.89c0,0,0.01,0,0.01,0.01c3.74,5.31,8.55,9.8,14.13,13.16
		c7.04,4.25,15.29,6.69,24.11,6.69c8.82,0,17.07-2.44,24.11-6.69c5.57-3.36,10.39-7.85,14.13-13.16c0,0,0.01-0.01,0.01-0.01
		c5.36-7.6,8.5-16.88,8.5-26.89c0-5.23-0.86-10.26-2.44-14.96c8.19-2.06,14.25-9.48,14.25-18.31c0-10.43-8.45-18.88-18.88-18.88
		C132.4,8.67,125.8,13.24,122.84,19.8z"/>
	<path class="st1" d="M76.28,100.86C70.7,97.5,65.89,93.01,62.15,87.7c0,0-0.01,0-0.01-0.01c-3.01-2.98-7.15-4.83-11.73-4.83
		c-9.2,0-16.66,7.46-16.66,16.66c0,9.2,7.46,16.66,16.66,16.66c0.41,0,0.82-0.02,1.23-0.05c-0.62,3.59-0.95,7.31-0.95,11.11
		c0,7.25,1.19,14.19,3.35,20.56c10.65,1.33,18.88,10.41,18.88,21.41c0,1.72-0.2,3.39-0.58,4.99c7.98,6.26,17.64,9.92,28.04,9.92
		c10.4,0,20.06-3.66,28.04-9.92c2.25,9.51,10.8,16.59,20.99,16.59c11.92,0,21.58-9.66,21.58-21.58c0-11.92-9.66-21.58-21.58-21.58
		c-0.91,0-1.81,0.06-2.69,0.17c2.16-6.38,3.35-13.31,3.35-20.56c0-3.8-0.33-7.51-0.95-11.11c0.41,0.03,0.82,0.05,1.23,0.05
		c9.2,0,16.66-7.46,16.66-16.66c0-9.2-7.46-16.66-16.66-16.66c-4.57,0-8.72,1.84-11.72,4.83c-3.74,5.31-8.56,9.81-14.13,13.17
		c1.73,4.88,2.7,10.37,2.7,16.17c0,20.4-12,36.94-26.81,36.94c-14.81,0-26.81-16.54-26.81-36.94
		C73.58,111.24,74.55,105.75,76.28,100.86z"/>
	<path class="st2" d="M76.28,100.86c-1.73,4.88-2.7,10.37-2.7,16.17c0,20.4,12,36.94,26.81,36.94c14.81,0,26.81-16.54,26.81-36.94
		c0-5.8-0.97-11.29-2.7-16.17c-5.79,3.49-12.16,5.62-18.66,6.38c-1.81,0.21-3.63,0.32-5.45,0.31c-1.85,0-3.71-0.11-5.55-0.33
		C88.11,106.43,81.82,104.21,76.28,100.86z"/>
	<path class="st1" d="M51.35,190.81c11.88,0,21.58-9.69,21.58-21.57c0-11.88-9.69-21.58-21.58-21.58
		c-11.88,0-21.58,9.69-21.58,21.58C29.78,181.11,39.47,190.81,51.35,190.81z"/>
	<path class="st3" d="M114.64,59.49c3.27,0,5.94-2.67,5.94-5.94c0-3.27-2.67-5.94-5.94-5.94c-3.27,0-5.94,2.67-5.94,5.94
		C108.7,56.82,111.37,59.49,114.64,59.49z"/>
	<path class="st3" d="M86.14,59.49c3.27,0,5.94-2.67,5.94-5.94c0-3.27-2.67-5.94-5.94-5.94s-5.94,2.67-5.94,5.94
		C80.2,56.82,82.87,59.49,86.14,59.49z"/>
</g>
</svg>
