<?xml version="1.0" encoding="utf-8"?>
<!-- Generator: Adobe Illustrator 23.0.0, SVG Export Plug-In . SVG Version: 6.00 Build 0)  -->
<svg version="1.1" id="Calque_1" xmlns="http://www.w3.org/2000/svg" xmlns:xlink="http://www.w3.org/1999/xlink" x="0px" y="0px"
	 viewBox="0 0 200 200" style="enable-background:new 0 0 200 200;" xml:space="preserve">
<style type="text/css">
	.st0{clip-path:url(#SVGID_2_);}
	.st1{fill:#79B6CE;}
	.st2{opacity:0.6;clip-path:url(#SVGID_8_);}
	.st3{fill:#FFFFFF;}
	.st4{clip-path:url(#SVGID_10_);}
	.st5{clip-path:url(#SVGID_12_);}
	.st6{clip-path:url(#SVGID_14_);}
	.st7{opacity:0.6;clip-path:url(#SVGID_16_);}
	.st8{opacity:0.2;clip-path:url(#SVGID_18_);}
	.st9{fill:#5ABAE8;}
	.st10{clip-path:url(#SVGID_20_);}
	.st11{fill:#BAE0E4;}
	.st12{clip-path:url(#SVGID_22_);}
	.st13{clip-path:url(#SVGID_24_);}
	.st14{fill:#FFF9DD;}
	.st15{clip-path:url(#SVGID_26_);}
	.st16{clip-path:url(#SVGID_28_);}
	.st17{fill:#8C675C;}
	.st18{fill:#43AC60;}
	.st19{fill:#60B881;}
	.st20{fill:#4BB169;}
	.st21{clip-path:url(#SVGID_30_);}
	.st22{clip-path:url(#SVGID_34_);}
	.st23{clip-path:url(#SVGID_36_);}
	.st24{clip-path:url(#SVGID_38_);}
	.st25{clip-path:url(#SVGID_40_);}
	.st26{clip-path:url(#SVGID_42_);}
	.st27{fill:#674548;}
</style>
<g>
	<g>
		<defs>
			<rect id="SVGID_1_" width="200" height="200"/>
		</defs>
		<clipPath id="SVGID_2_">
			<use xlink:href="#SVGID_1_"  style="overflow:visible;"/>
		</clipPath>
		<g class="st0">
			<path class="st1" d="M100,0h100v104.72V200H0V0H100z"/>
		</g>
	</g>
	<g>
		<defs>
			<rect id="SVGID_3_" width="200" height="200"/>
		</defs>
		<clipPath id="SVGID_4_">
			<use xlink:href="#SVGID_3_"  style="overflow:visible;"/>
		</clipPath>
	</g>
	<g>
		<defs>
			<rect id="SVGID_5_" width="200" height="200"/>
		</defs>
		<clipPath id="SVGID_6_">
			<use xlink:href="#SVGID_5_"  style="overflow:visible;"/>
		</clipPath>
	</g>
	<g>
		<defs>
			<rect id="SVGID_7_" width="200" height="200"/>
		</defs>
		<clipPath id="SVGID_8_">
			<use xlink:href="#SVGID_7_"  style="overflow:visible;"/>
		</clipPath>
		<g class="st2">
			<path class="st3" d="M135.98,119.69c0-4.77-3.87-8.63-8.63-8.63c-0.7,0-1.41,0.12-2.07,0.27c-2.27-2.42-5.47-3.98-9.02-3.98
				c-6.84,0-12.34,5.55-12.34,12.34H135.98L135.98,119.69z"/>
		</g>
	</g>
	<g>
		<defs>
			<rect id="SVGID_9_" width="200" height="200"/>
		</defs>
		<clipPath id="SVGID_10_">
			<use xlink:href="#SVGID_9_"  style="overflow:visible;"/>
		</clipPath>
		<g class="st4">
			<path class="st3" d="M66.91,119.69c0-6.52-5.27-11.8-11.8-11.8c-0.98,0-1.91,0.16-2.85,0.39c-3.09-3.32-7.46-5.43-12.34-5.43
				c-9.34,0-16.87,7.54-16.87,16.88L66.91,119.69L66.91,119.69z"/>
		</g>
	</g>
	<g>
		<defs>
			<rect id="SVGID_11_" width="200" height="200"/>
		</defs>
		<clipPath id="SVGID_12_">
			<use xlink:href="#SVGID_11_"  style="overflow:visible;"/>
		</clipPath>
		<g class="st5">
			<path class="st3" d="M106.68,113.95c-0.59,0-1.17,0.12-1.72,0.27c-1.72-2.46-4.57-4.1-7.85-4.1c-3.28,0-6.09,1.64-7.85,4.1
				c-0.55-0.16-1.09-0.27-1.72-0.27c-3.16,0-5.74,2.58-5.74,5.74h30.55C112.42,116.52,109.84,113.95,106.68,113.95z"/>
		</g>
	</g>
	<g>
		<defs>
			<rect id="SVGID_13_" width="200" height="200"/>
		</defs>
		<clipPath id="SVGID_14_">
			<use xlink:href="#SVGID_13_"  style="overflow:visible;"/>
		</clipPath>
		<g class="st6">
			<path class="st3" d="M170,115.08c-0.47,0-0.94,0.08-1.37,0.23c-1.41-1.99-3.71-3.32-6.29-3.32s-4.92,1.33-6.29,3.32
				c-0.43-0.16-0.9-0.23-1.37-0.23c-2.54,0-4.61,2.07-4.61,4.61h24.61C174.61,117.15,172.54,115.08,170,115.08z"/>
		</g>
	</g>
	<g>
		<defs>
			<rect id="SVGID_15_" width="200" height="200"/>
		</defs>
		<clipPath id="SVGID_16_">
			<use xlink:href="#SVGID_15_"  style="overflow:visible;"/>
		</clipPath>
		<g class="st7">
			<path class="st3" d="M191.17,114.02c-0.59,0-1.17,0.12-1.68,0.27c-1.72-2.46-4.53-4.06-7.73-4.06c-3.2,0-6.05,1.6-7.73,4.06
				c-0.55-0.16-1.09-0.27-1.68-0.27c-3.13,0-5.66,2.54-5.66,5.66h30.2C196.84,116.56,194.3,114.02,191.17,114.02z"/>
		</g>
	</g>
	<g>
		<defs>
			<rect id="SVGID_17_" width="200" height="200"/>
		</defs>
		<clipPath id="SVGID_18_">
			<use xlink:href="#SVGID_17_"  style="overflow:visible;"/>
		</clipPath>
		<g class="st8">
			<path class="st9" d="M200,125.84L18.24,125l16.13,37.5c0,0,46.13,27.07,59.53,30.2c5.51,1.29,15.16,3.44,24.57,5.55
				C156.68,191.13,190.39,163.1,200,125.84z"/>
		</g>
	</g>
	<g>
		<defs>
			<rect id="SVGID_19_" width="200" height="200"/>
		</defs>
		<clipPath id="SVGID_20_">
			<use xlink:href="#SVGID_19_"  style="overflow:visible;"/>
		</clipPath>
		<g class="st10">
			<path class="st11" d="M200,148.74c-17.66-7.11-57.21,3.53-93.7,3.53c-30.9,0-65.4-8.8-83.88-3.41l5.08,11.56
				c0,0,34.3,19.8,54.61,28.67c5.63,0.23,11.41,0.39,17.3,0.39c18.95,0,36.64-1.29,51.76-3.52
				C165.2,177.54,191.52,162.65,200,148.74z"/>
		</g>
	</g>
	<g>
		<defs>
			<rect id="SVGID_21_" width="200" height="200"/>
		</defs>
		<clipPath id="SVGID_22_">
			<use xlink:href="#SVGID_21_"  style="overflow:visible;"/>
		</clipPath>
		<g class="st12">
			<path class="st3" d="M208.2,157.46l-156.56,0.16v9.18h153.05C207.3,163.91,205.94,160.66,208.2,157.46z"/>
		</g>
	</g>
	<g>
		<defs>
			<rect id="SVGID_23_" width="200" height="200"/>
		</defs>
		<clipPath id="SVGID_24_">
			<use xlink:href="#SVGID_23_"  style="overflow:visible;"/>
		</clipPath>
		<g class="st13">
			<path class="st14" d="M207.11,164.73H43.2c0,0,33.05,16.91,33.44,16.91c0.23,0,49.53,3.28,84.3,5.59
				c4.57-0.39,9.02-0.82,13.28-1.29C186.68,180.27,197.73,173.09,207.11,164.73z"/>
		</g>
	</g>
	<g>
		<defs>
			<rect id="SVGID_25_" width="200" height="200"/>
		</defs>
		<clipPath id="SVGID_26_">
			<use xlink:href="#SVGID_25_"  style="overflow:visible;"/>
		</clipPath>
		<g class="st15">
			<path class="st9" d="M103.99,144.18c35.08,0,71.99-1.7,96.01,6.98v-30.42l-186.3-1.92l9.73,32.34
				C45.15,145.28,75.63,144.18,103.99,144.18z"/>
		</g>
	</g>
	<g>
		<defs>
			<rect id="SVGID_27_" width="200" height="200"/>
		</defs>
		<clipPath id="SVGID_28_">
			<use xlink:href="#SVGID_27_"  style="overflow:visible;"/>
		</clipPath>
		<g class="st16">
			<g>
				<g>
					<path class="st17" d="M18.63,126.56c-1.17,0-2.27-0.66-2.81-1.76c-0.74-1.56-0.08-3.44,1.48-4.18
						c13.67-6.56,29.96-20.9,29.96-51.99c0-1.72,1.41-3.13,3.13-3.13c1.72,0,3.13,1.41,3.13,3.13c0,34.34-18.2,50.27-33.48,57.62
						C19.57,126.45,19.1,126.56,18.63,126.56z"/>
				</g>
			</g>
			<g>
				<g>
					<g>
						<path class="st18" d="M51.56,65.7c0,0-18.83-0.51-19.49,18.83c0,0,2.15-1.72,2.89-3.36c0,0,0.47,0.98,0.16,1.99
							c0,0,1.76-1.72,2.23-3.59c0,0,0.31,0.7,0,1.72c0,0,1.84-1.52,2.34-2.73c0,0,0.31,0.55-0.12,1.29c0,0,1.76-1.52,2.19-3.67
							c0,0,0.55,0.51,0.39,1.64c0,0,2.07-2.46,2.3-3.91c0,0,0.7,0.31,0.31,1.37C44.77,75.31,49.88,71.48,51.56,65.7z"/>
					</g>
				</g>
				<g>
					<g>
						<path class="st18" d="M51.56,65.7c0,0,15.94,10.04,5.78,26.48c0,0-0.82-2.62-0.55-4.38c0,0-0.94,0.55-1.21,1.6
							c0,0-0.51-2.38,0.16-4.22c0,0-0.66,0.43-0.98,1.45c0,0-0.7-2.27-0.43-3.55c0,0-0.55,0.27-0.63,1.13c0,0-0.63-2.23,0.23-4.26
							c0,0-0.7,0.12-1.21,1.13c0,0-0.35-3.2,0.23-4.53c0,0-0.74-0.16-1.02,0.98C51.95,77.46,49.8,71.48,51.56,65.7z"/>
					</g>
				</g>
				<g>
					<g>
						<path class="st19" d="M51.56,65.7c0,0,1.95-19.57-16.8-21.48c0,0,1.52,2.34,3.05,3.2c0,0-0.98,0.43-1.95,0.04
							c0,0,1.52,1.95,3.36,2.54c0,0-0.7,0.27-1.68-0.12c0,0,1.33,1.99,2.46,2.62c0,0-0.55,0.27-1.25-0.2c0,0,1.33,1.91,3.4,2.5
							c0,0-0.51,0.51-1.6,0.31c0,0,2.27,2.34,3.63,2.66c0,0-0.35,0.74-1.37,0.23C42.77,57.97,46.05,63.55,51.56,65.7z"/>
					</g>
				</g>
				<g>
					<path class="st20" d="M51.56,65.7c0,0-14.1-15.94-30.74-1.48c0,0,3.09,0.43,5-0.23c0,0-0.43,1.17-1.56,1.68
						c0,0,2.77,0.12,4.73-0.98c0,0-0.35,0.82-1.45,1.37c0,0,2.7,0.35,4.06-0.16c0,0-0.23,0.66-1.17,0.9c0,0,2.62,0.27,4.77-1.05
						c0,0,0,0.82-1.05,1.6c0,0,3.67-0.2,5.04-1.13c0,0,0.31,0.82-0.9,1.33C38.32,67.54,45.43,68.79,51.56,65.7z"/>
				</g>
				<g>
					<path class="st20" d="M51.56,65.7c0,0,20.59-5.47,26.41,15.78c0,0-2.81-1.37-4.06-2.97c0,0-0.27,1.21,0.39,2.27
						c0,0-2.38-1.45-3.4-3.44c0,0-0.16,0.86,0.47,1.91c0,0-2.42-1.21-3.28-2.38c0,0-0.2,0.66,0.47,1.41c0,0-2.3-1.21-3.36-3.52
						c0,0-0.47,0.7,0,1.91c0,0-2.93-2.19-3.55-3.71c0,0-0.7,0.51,0.04,1.6C61.6,74.57,55,71.68,51.56,65.7z"/>
				</g>
				<g>
					<g>
						<path class="st19" d="M51.56,65.7c0,0,3.75-20.94,25.47-17.27c0,0-2.42,1.95-4.41,2.42c0,0,0.98,0.74,2.19,0.63
							c0,0-2.3,1.56-4.53,1.64c0,0,0.7,0.51,1.91,0.39c0,0-2.11,1.68-3.55,1.99c0,0,0.55,0.47,1.48,0.16c0,0-2.11,1.6-4.61,1.56
							c0,0,0.43,0.7,1.72,0.82c0,0-3.24,1.76-4.88,1.64c0,0,0.16,0.86,1.45,0.66C63.87,60.35,58.44,65.16,51.56,65.7z"/>
					</g>
				</g>
			</g>
		</g>
	</g>
	<g>
		<defs>
			<rect id="SVGID_29_" width="200" height="200"/>
		</defs>
		<clipPath id="SVGID_30_">
			<use xlink:href="#SVGID_29_"  style="overflow:visible;"/>
		</clipPath>
		<g class="st21">
			<g>
				<path class="st17" d="M40.27,160.08v-6.33c10.04,0,34.02-26.45,34.65-38.24l6.33,0.35C80.43,131.09,53.59,160.08,40.27,160.08z"
					/>
			</g>
		</g>
	</g>
	<g>
		<defs>
			<rect id="SVGID_31_" width="200" height="200"/>
		</defs>
		<clipPath id="SVGID_32_">
			<use xlink:href="#SVGID_31_"  style="overflow:visible;"/>
		</clipPath>
	</g>
	<g>
		<defs>
			<rect id="SVGID_33_" width="200" height="200"/>
		</defs>
		<clipPath id="SVGID_34_">
			<use xlink:href="#SVGID_33_"  style="overflow:visible;"/>
		</clipPath>
		<g class="st22">
			<path class="st17" d="M81.09,168.75c-7.73-6.25-16.05-0.27-20.66-9.38c-2.7-5.39-14.8-1.72-20.66-6.25
				c-7.73-5.98-6.56-13.71-10.31-21.88C24.61,120.74,2.26,114.38,0,114.14V200h200v-54.18c-3.4,0-12.07-8.72-26.09,13.51
				c-4.73,7.54-15.66,7.27-24.77,5.39C123.91,159.57,101.6,175,98.28,175C90,175,85.66,172.46,81.09,168.75z"/>
		</g>
	</g>
	<g>
		<defs>
			<rect id="SVGID_35_" width="200" height="200"/>
		</defs>
		<clipPath id="SVGID_36_">
			<use xlink:href="#SVGID_35_"  style="overflow:visible;"/>
		</clipPath>
		<g class="st23">
			<g>
				<g>
					<path class="st18" d="M78.98,116.56c0,0-20.63-2.42-23.28,18.71c0,0,2.5-1.68,3.52-3.4c0,0,0.43,1.13-0.04,2.23
						c0,0,2.11-1.72,2.81-3.75c0,0,0.27,0.82-0.16,1.91c0,0,2.19-1.48,2.85-2.73c0,0,0.27,0.63-0.27,1.41c0,0,2.07-1.48,2.77-3.83
						c0,0,0.55,0.59,0.27,1.84c0,0,2.54-2.5,2.93-4.06c0,0,0.74,0.39,0.2,1.52C70.55,126.45,76.52,122.77,78.98,116.56z"/>
				</g>
			</g>
			<g>
				<g>
					<path class="st18" d="M78.98,116.56c0,0,16.52,12.62,3.71,29.65c0,0-0.63-2.97-0.16-4.88c0,0-1.09,0.51-1.52,1.6
						c0,0-0.31-2.7,0.59-4.65c0,0-0.78,0.39-1.21,1.48c0,0-0.55-2.58-0.12-3.95c0,0-0.63,0.27-0.78,1.21c0,0-0.43-2.5,0.66-4.65
						c0,0-0.78,0.04-1.48,1.13c0,0-0.08-3.55,0.7-4.92c0,0-0.82-0.23-1.21,0.98C78.2,129.53,76.45,122.73,78.98,116.56z"/>
				</g>
			</g>
			<g>
				<g>
					<path class="st19" d="M78.98,116.56c0,0,4.1-21.29-16.29-25.27c0,0,1.45,2.7,3.01,3.83c0,0-1.13,0.39-2.15-0.16
						c0,0,1.48,2.3,3.4,3.13c0,0-0.82,0.23-1.84-0.27c0,0,1.25,2.34,2.46,3.13c0,0-0.63,0.23-1.37-0.35c0,0,1.29,2.23,3.48,3.09
						c0,0-0.63,0.51-1.8,0.2c0,0,2.23,2.77,3.71,3.28c0,0-0.47,0.74-1.52,0.12C70.08,107.23,73.16,113.67,78.98,116.56z"/>
				</g>
			</g>
			<g>
				<path class="st20" d="M78.98,116.56c0,0-13.87-18.91-33.59-4.73c0,0,3.36,0.78,5.51,0.27c0,0-0.59,1.21-1.88,1.68
					c0,0,3.05,0.43,5.27-0.59c0,0-0.47,0.86-1.72,1.33c0,0,2.89,0.66,4.49,0.23c0,0-0.31,0.7-1.37,0.9c0,0,2.85,0.55,5.31-0.66
					c0,0-0.08,0.9-1.33,1.64c0,0,4.06,0.16,5.63-0.74c0,0,0.23,0.94-1.13,1.37C64.26,117.23,71.91,119.34,78.98,116.56z"/>
			</g>
			<g>
				<path class="st20" d="M78.98,116.56c0,0,23.13-3.91,27.38,20c0,0-2.93-1.8-4.14-3.67c0,0-0.43,1.29,0.2,2.5
					c0,0-2.46-1.84-3.4-4.1c0,0-0.27,0.94,0.31,2.15c0,0-2.54-1.56-3.36-2.97c0,0-0.27,0.74,0.39,1.6c0,0-2.42-1.56-3.36-4.18
					c0,0-0.59,0.7-0.2,2.11c0,0-3.01-2.7-3.52-4.45c0,0-0.82,0.51-0.12,1.76C89.1,127.3,82.15,123.48,78.98,116.56z"/>
			</g>
			<g>
				<g>
					<path class="st19" d="M78.98,116.56c0,0,6.21-22.62,29.69-16.37c0,0-2.85,1.91-5.08,2.23c0,0,1.02,0.94,2.34,0.9
						c0,0-2.7,1.48-5.16,1.33c0,0,0.74,0.63,2.07,0.63c0,0-2.5,1.64-4.1,1.8c0,0,0.55,0.55,1.6,0.35c0,0-2.46,1.52-5.2,1.25
						c0,0,0.39,0.82,1.8,1.05c0,0-3.71,1.6-5.51,1.33c0,0,0.12,0.98,1.52,0.86C93.01,111.95,86.6,116.64,78.98,116.56z"/>
				</g>
			</g>
		</g>
	</g>
	<g>
		<defs>
			<rect id="SVGID_37_" width="200" height="200"/>
		</defs>
		<clipPath id="SVGID_38_">
			<use xlink:href="#SVGID_37_"  style="overflow:visible;"/>
		</clipPath>
		<g class="st24">
			<path class="st17" d="M176.91,91.25h-6.25c0,32.97,10.23,57.5,31.13,75c1.25-1.68,2.42-3.4,3.55-5.16
				C186.25,144.84,176.91,121.99,176.91,91.25z"/>
		</g>
	</g>
	<g>
		<defs>
			<rect id="SVGID_39_" width="200" height="200"/>
		</defs>
		<clipPath id="SVGID_40_">
			<use xlink:href="#SVGID_39_"  style="overflow:visible;"/>
		</clipPath>
		<g class="st25">
			<g>
				<g>
					<path class="st18" d="M173.05,90.31c0,0-22.81,9.61-13.13,33.13c0,0,1.6-3.24,1.64-5.59c0,0,1.09,0.9,1.25,2.3
						c0,0,1.17-3.01,0.7-5.51c0,0,0.78,0.66,0.94,2.07c0,0,1.37-2.81,1.33-4.53c0,0,0.66,0.47,0.55,1.6c0,0,1.25-2.77,0.63-5.59
						c0,0,0.9,0.31,1.37,1.72c0,0,1.17-4.1,0.63-5.9c0,0,1.02-0.04,1.09,1.48C170.12,105.51,174.18,98.2,173.05,90.31z"/>
				</g>
			</g>
			<g>
				<g>
					<path class="st18" d="M173.05,90.31c0,0,24.53,3.36,21.29,28.55c0,0-2.42-2.7-3.05-4.96c0,0-0.82,1.17-0.63,2.58
						c0,0-1.91-2.58-2.11-5.16c0,0-0.55,0.86-0.39,2.23c0,0-2.07-2.34-2.46-4.02c0,0-0.51,0.63-0.12,1.72c0,0-1.95-2.34-2.07-5.23
						c0,0-0.78,0.51-0.86,2.03c0,0-2.19-3.63-2.15-5.55c0,0-0.98,0.23-0.7,1.72C179.88,104.22,174.06,98.2,173.05,90.31z"/>
				</g>
			</g>
			<g>
				<g>
					<path class="st19" d="M173.05,90.31c0,0-8.32-24.49-31.8-16.6c0,0,3.09,1.95,5.39,2.19c0,0-0.94,1.05-2.34,1.09
						c0,0,2.89,1.48,5.39,1.25c0,0-0.7,0.74-2.07,0.78c0,0,2.7,1.68,4.38,1.8c0,0-0.51,0.63-1.6,0.43c0,0,2.66,1.56,5.43,1.13
						c0,0-0.35,0.9-1.76,1.25c0,0,3.95,1.56,5.78,1.21c0,0-0.04,1.05-1.48,1.02C158.32,85.86,165.27,90.74,173.05,90.31z"/>
				</g>
			</g>
			<g>
				<path class="st20" d="M173.05,90.31c0,0-25.55-11.45-37.58,14.92c0,0,3.95-1.17,5.9-2.97c0,0,0.12,1.64-0.98,2.85
					c0,0,3.4-1.37,5.12-3.71c0,0,0.04,1.17-0.98,2.38c0,0,3.4-1.05,4.8-2.42c0,0,0.08,0.94-0.9,1.72c0,0,3.28-1.09,5.12-3.83
					c0,0,0.43,0.98-0.39,2.46c0,0,4.3-2.23,5.39-4.06c0,0,0.82,0.82-0.39,2.07C158.16,99.73,167.34,97.38,173.05,90.31z"/>
			</g>
			<g>
				<path class="st20" d="M173.05,90.31c0,0,21.68-17.7,40.16,4.57c0,0-4.1-0.12-6.45-1.33c0,0,0.31,1.6,1.68,2.5
					c0,0-3.63-0.43-5.94-2.27c0,0,0.27,1.13,1.56,2.07c0,0-3.55-0.12-5.23-1.09c0,0,0.16,0.9,1.33,1.45c0,0-3.44-0.2-5.94-2.38
					c0,0-0.16,1.05,1.02,2.3c0,0-4.73-1.02-6.29-2.54c0,0-0.55,1.02,0.9,1.91C189.88,95.51,180.39,95.66,173.05,90.31z"/>
			</g>
			<g>
				<g>
					<path class="st19" d="M173.05,90.31c0,0-6.88-27.11,21.13-34.45c0,0-1.84,3.67-3.95,5.27c0,0,1.6,0.39,2.97-0.47
						c0,0-1.91,3.13-4.53,4.41c0,0,1.13,0.23,2.54-0.55c0,0-1.6,3.16-3.2,4.3c0,0,0.9,0.23,1.87-0.59c0,0-1.64,3.05-4.65,4.37
						c0,0,0.9,0.63,2.5,0.04c0,0-2.93,3.83-4.92,4.61c0,0,0.66,0.94,2.11,0C184.88,77.27,180.98,85.94,173.05,90.31z"/>
				</g>
			</g>
		</g>
	</g>
	<g>
		<defs>
			<rect id="SVGID_41_" width="200" height="200"/>
		</defs>
		<clipPath id="SVGID_42_">
			<use xlink:href="#SVGID_41_"  style="overflow:visible;"/>
		</clipPath>
		<g class="st26">
			<path class="st27" d="M25.2,141.21C19.65,130,0,130.45,0,130.45V200c0,0,76.8,0,100,0h100c-5-0.74-57.3-17.7-67.07-13.52
				c-4.88,2.11-11.72-7.03-16.25-7.58c-12.73-1.56-26.56,8.32-34.8,1.56c-10.59-8.63-15.04-0.78-23.55-4.49s-3.98-10.66-7.42-14.34
				C45.43,155.74,33.32,157.66,25.2,141.21z"/>
		</g>
	</g>
</g>
</svg>
