<?xml version="1.0" encoding="utf-8"?>
<!-- Generator: Adobe Illustrator 23.0.0, SVG Export Plug-In . SVG Version: 6.00 Build 0)  -->
<svg version="1.1" id="Calque_1" xmlns="http://www.w3.org/2000/svg" xmlns:xlink="http://www.w3.org/1999/xlink" x="0px" y="0px"
	 viewBox="0 0 200 200" enable-background="new 0 0 200 200" xml:space="preserve">
<g>
	<defs>
		<rect id="SVGID_1_" y="-0.065" width="200" height="200"/>
	</defs>
	<clipPath id="SVGID_2_">
		<use xlink:href="#SVGID_1_"  overflow="visible"/>
	</clipPath>
	<rect x="0" y="0.491" clip-path="url(#SVGID_2_)" fill="#7E9E45" width="200" height="200"/>
	<path clip-path="url(#SVGID_2_)" fill="#88AA4D" d="M200,199.935H0C4.863,158.077,107.954,54.334,200,65.027"/>
	<g clip-path="url(#SVGID_2_)">
		<path fill="#EA9C98" d="M26.484,64.876c-0.153,0-0.305-0.058-0.422-0.175c-0.233-0.233-0.233-0.611,0-0.844
			c0.442-0.442,1.332-1.638,0.064-3.204c-0.056-0.069-0.113-0.135-0.171-0.2c0.008,0.873-0.313,1.658-0.934,2.278
			c-1.05,1.05-2.758,1.05-3.807,0c-0.509-0.509-0.789-1.185-0.789-1.904c0-0.719,0.28-1.395,0.789-1.904
			c0.621-0.621,1.407-0.941,2.278-0.934c-0.064-0.058-0.131-0.115-0.2-0.171c-1.566-1.268-2.762-0.378-3.204,0.064
			c-0.233,0.233-0.611,0.233-0.844,0c-0.233-0.233-0.233-0.611,0-0.844c1.077-1.077,2.903-1.682,4.798-0.148
			c0.579,0.469,1.048,1.031,1.377,1.633c0.601,0.329,1.164,0.798,1.633,1.377c1.534,1.895,0.93,3.721-0.148,4.798
			C26.789,64.818,26.636,64.876,26.484,64.876z M23.461,59.184c-0.544,0-1.015,0.196-1.403,0.584
			c-0.283,0.283-0.439,0.66-0.439,1.06s0.156,0.777,0.439,1.06c0.585,0.585,1.536,0.585,2.12,0c0.417-0.417,0.612-0.93,0.581-1.525
			c-0.016-0.312-0.095-0.633-0.228-0.948c-0.315-0.133-0.635-0.212-0.948-0.228C23.542,59.185,23.501,59.184,23.461,59.184z"/>
		<path fill="#EDBDBA" d="M50.438,82.618h-4.422c-0.282,0-0.511-0.229-0.511-0.511v-6.555h5.444v6.555
			C50.949,82.389,50.72,82.618,50.438,82.618z"/>
		<path opacity="0.08" fill="#020203" enable-background="new    " d="M50.438,82.618h-4.422c-0.282,0-0.511-0.229-0.511-0.511
			v-6.555h5.444v6.555C50.949,82.389,50.72,82.618,50.438,82.618z"/>
		<path fill="#4B5159" d="M50.438,82.618h-4.422c-0.282,0-0.511-0.229-0.511-0.511v-1.453h5.444v1.453
			C50.949,82.389,50.72,82.618,50.438,82.618z"/>
		<path fill="#EA9C98" d="M54.772,60.157L54.772,60.157c-1.086-0.001-2.169,0.108-3.232,0.326l0,0
			c-0.609,0.125-0.875,0.847-0.492,1.337l0,0c1.232,1.575,2.651,2.994,4.226,4.226l0,0c0.49,0.383,1.212,0.118,1.337-0.492l0,0
			c0.218-1.063,0.327-2.146,0.326-3.232v-0.001C56.937,61.127,55.968,60.158,54.772,60.157z"/>
		<path fill="#EDBDBA" d="M45.483,58.367H34.764c-5.635,0-10.204,4.568-10.204,10.204l0,0c0,2.993,1.289,5.685,3.342,7.552v5.984
			c0,0.282,0.229,0.511,0.511,0.511h4.422c0.282,0,0.511-0.229,0.511-0.511v-3.431c0.464,0.064,0.937,0.099,1.419,0.099h3.243v3.332
			c0,0.282,0.229,0.511,0.511,0.511h4.422c0.282,0,0.511-0.229,0.511-0.511v-3.332h2.032c5.635,0,10.204-4.568,10.204-10.204l0,0
			C55.687,62.936,51.118,58.367,45.483,58.367z"/>
		<g>
			<path fill="#4B5159" d="M42.961,65.92c-0.329,0-0.596-0.267-0.596-0.596c0-0.131-0.106-0.237-0.237-0.237
				c-0.131,0-0.237,0.106-0.237,0.237c0,0.329-0.267,0.596-0.596,0.596s-0.596-0.267-0.596-0.596c0-0.788,0.641-1.43,1.43-1.43
				c0.788,0,1.43,0.641,1.43,1.43C43.558,65.653,43.291,65.92,42.961,65.92z"/>
			<path fill="#4B5159" d="M52.137,66.181c-0.329,0-0.596-0.267-0.596-0.596v-0.888c0-0.329,0.267-0.596,0.596-0.596
				c0.329,0,0.596,0.267,0.596,0.596v0.888C52.733,65.914,52.466,66.181,52.137,66.181z"/>
		</g>
		<g opacity="0.05">
			<ellipse fill="#020203" cx="27.931" cy="69.114" rx="1.361" ry="1.759"/>
			<ellipse fill="#020203" cx="31.112" cy="72.126" rx="1.118" ry="1.444"/>
			<ellipse fill="#020203" cx="31.658" cy="67.536" rx="0.928" ry="1.199"/>
		</g>
		<path fill="#EA9C98" d="M45.32,65.564L45.32,65.564c-0.91,0.907-1.724,1.905-2.432,2.978l0,0c-0.405,0.615-0.023,1.441,0.708,1.53
			l0,0c2.349,0.287,4.724,0.287,7.073,0l0,0c0.731-0.089,1.113-0.916,0.708-1.53l0,0c-0.707-1.072-1.522-2.07-2.431-2.977
			l-0.001-0.001C47.943,64.565,46.322,64.565,45.32,65.564z"/>
		<path opacity="0.1" fill="#020203" enable-background="new    " d="M45.854,68.885c-0.329,0-0.596-0.267-0.596-0.596v-0.594
			c0-0.329,0.267-0.596,0.596-0.596c0.329,0,0.596,0.267,0.596,0.596v0.594C46.451,68.618,46.184,68.885,45.854,68.885z"/>
		<path opacity="0.1" fill="#020203" enable-background="new    " d="M48.411,68.885c-0.329,0-0.596-0.267-0.596-0.596v-0.594
			c0-0.329,0.267-0.596,0.596-0.596c0.329,0,0.596,0.267,0.596,0.596v0.594C49.008,68.618,48.741,68.885,48.411,68.885z"/>
		<path opacity="0.02" fill="#020203" enable-background="new    " d="M34.471,63.568L34.471,63.568
			c0.107,1.08,0.324,2.147,0.647,3.184l0,0c0.185,0.594,0.93,0.786,1.38,0.356l0,0c1.444-1.383,2.715-2.936,3.784-4.626l0,0
			c0.333-0.526-0.003-1.218-0.622-1.282l0,0c-1.08-0.111-2.168-0.112-3.248-0.003l-0.001,0
			C35.221,61.317,34.353,62.378,34.471,63.568z"/>
		<path fill="#EA9C98" d="M35.413,62.323L35.413,62.323c-0.001,1.086,0.108,2.169,0.326,3.232l0,0
			c0.125,0.609,0.847,0.875,1.337,0.492l0,0c1.575-1.232,2.994-2.651,4.226-4.226l0,0c0.383-0.49,0.118-1.212-0.492-1.337l0,0
			c-1.063-0.218-2.146-0.327-3.232-0.326h-0.001C36.383,60.158,35.414,61.127,35.413,62.323z"/>
		<g>
			<path fill="#4B5159" d="M32.835,82.618h-4.422c-0.282,0-0.511-0.229-0.511-0.511v-1.453h5.444v1.453
				C33.345,82.389,33.117,82.618,32.835,82.618z"/>
			<path fill="#4B5159" d="M42.94,82.618h-4.422c-0.282,0-0.511-0.229-0.511-0.511v-1.453h5.444v1.453
				C43.45,82.389,43.222,82.618,42.94,82.618z"/>
		</g>
	</g>
	<g clip-path="url(#SVGID_2_)">
		<path fill="#EA9C98" d="M163.657,31.821c-1.077-1.077-1.682-2.903-0.148-4.798c0.469-0.579,1.031-1.048,1.633-1.377
			c0.329-0.601,0.798-1.164,1.377-1.633c1.895-1.534,3.721-0.93,4.798,0.148c0.233,0.233,0.233,0.611,0,0.844s-0.611,0.233-0.844,0
			c-0.442-0.442-1.638-1.332-3.204-0.064c-0.069,0.056-0.135,0.113-0.2,0.171c0.871-0.008,1.658,0.313,2.278,0.934
			c0.509,0.508,0.789,1.184,0.789,1.904c0,0.719-0.28,1.395-0.789,1.904c-1.05,1.05-2.758,1.05-3.807,0
			c-0.621-0.621-0.942-1.406-0.934-2.278c-0.058,0.064-0.115,0.131-0.171,0.2c-1.268,1.566-0.377,2.762,0.064,3.204
			c0.233,0.233,0.233,0.611,0,0.844c-0.116,0.117-0.269,0.175-0.422,0.175S163.773,31.938,163.657,31.821z M166.979,26.308
			c-0.313,0.016-0.633,0.095-0.948,0.228c-0.133,0.315-0.212,0.635-0.228,0.948c-0.031,0.595,0.164,1.109,0.581,1.525
			c0.584,0.585,1.536,0.585,2.12,0c0.283-0.283,0.439-0.66,0.439-1.06s-0.156-0.777-0.439-1.06c-0.388-0.388-0.86-0.584-1.403-0.584
			C167.061,26.304,167.02,26.305,166.979,26.308z"/>
		<path fill="#EDBDBA" d="M140.124,49.738h4.422c0.282,0,0.511-0.229,0.511-0.511v-6.555h-5.444v6.555
			C139.613,49.509,139.842,49.738,140.124,49.738z"/>
		<path opacity="0.08" fill="#020203" enable-background="new    " d="M140.124,49.738h4.422c0.282,0,0.511-0.229,0.511-0.511
			v-6.555h-5.444v6.555C139.613,49.509,139.842,49.738,140.124,49.738z"/>
		<path fill="#4B5159" d="M140.124,49.738h4.422c0.282,0,0.511-0.229,0.511-0.511v-1.453h-5.444v1.453
			C139.613,49.509,139.842,49.738,140.124,49.738z"/>
		<path fill="#EA9C98" d="M135.79,27.277L135.79,27.277c1.086-0.001,2.169,0.108,3.232,0.326l0,0
			c0.609,0.125,0.875,0.847,0.492,1.337l0,0c-1.232,1.575-2.651,2.994-4.226,4.226l0,0c-0.49,0.383-1.212,0.118-1.337-0.492l0,0
			c-0.218-1.063-0.327-2.146-0.326-3.232v-0.001C133.626,28.247,134.595,27.278,135.79,27.277z"/>
		<path fill="#EDBDBA" d="M145.08,25.487h10.719c5.635,0,10.204,4.568,10.204,10.204l0,0c0,2.993-1.289,5.685-3.342,7.552v5.984
			c0,0.282-0.229,0.511-0.511,0.511h-4.422c-0.282,0-0.511-0.229-0.511-0.511v-3.431c-0.464,0.064-0.937,0.099-1.419,0.099h-3.243
			v3.332c0,0.282-0.229,0.511-0.511,0.511h-4.422c-0.282,0-0.511-0.229-0.511-0.511v-3.332h-2.032
			c-5.635,0-10.204-4.568-10.204-10.204l0,0C134.876,30.056,139.444,25.487,145.08,25.487z"/>
		<g>
			<path fill="#4B5159" d="M147.601,33.04c0.329,0,0.596-0.267,0.596-0.596c0-0.131,0.106-0.237,0.237-0.237
				c0.131,0,0.237,0.106,0.237,0.237c0,0.329,0.267,0.596,0.596,0.596c0.329,0,0.596-0.267,0.596-0.596
				c0-0.788-0.641-1.43-1.43-1.43s-1.43,0.641-1.43,1.43C147.005,32.773,147.272,33.04,147.601,33.04z"/>
			<path fill="#4B5159" d="M138.425,33.301c0.329,0,0.596-0.267,0.596-0.596v-0.888c0-0.329-0.267-0.596-0.596-0.596
				c-0.329,0-0.596,0.267-0.596,0.596v0.888C137.829,33.034,138.096,33.301,138.425,33.301z"/>
		</g>
		<g opacity="0.05">
			<ellipse fill="#020203" cx="162.632" cy="36.234" rx="1.361" ry="1.759"/>
			<ellipse fill="#020203" cx="159.45" cy="39.246" rx="1.118" ry="1.444"/>
			<ellipse fill="#020203" cx="158.905" cy="34.656" rx="0.928" ry="1.199"/>
		</g>
		<path fill="#EA9C98" d="M145.242,32.685L145.242,32.685c0.91,0.907,1.724,1.905,2.432,2.978l0,0
			c0.405,0.615,0.023,1.441-0.708,1.53l0,0c-2.349,0.287-4.724,0.287-7.073,0l0,0c-0.731-0.089-1.113-0.916-0.708-1.53l0,0
			c0.707-1.072,1.522-2.07,2.431-2.977l0.001-0.001C142.619,31.685,144.241,31.685,145.242,32.685z"/>
		<path opacity="0.1" fill="#020203" enable-background="new    " d="M144.708,36.005c0.329,0,0.596-0.267,0.596-0.596v-0.594
			c0-0.329-0.267-0.596-0.596-0.596c-0.329,0-0.596,0.267-0.596,0.596v0.594C144.112,35.738,144.379,36.005,144.708,36.005z"/>
		<path opacity="0.1" fill="#020203" enable-background="new    " d="M142.151,36.005c0.329,0,0.596-0.267,0.596-0.596v-0.594
			c0-0.329-0.267-0.596-0.596-0.596c-0.329,0-0.596,0.267-0.596,0.596v0.594C141.555,35.738,141.822,36.005,142.151,36.005z"/>
		<path opacity="0.02" fill="#020203" enable-background="new    " d="M156.091,30.688L156.091,30.688
			c-0.107,1.08-0.324,2.147-0.647,3.184l0,0c-0.185,0.594-0.93,0.786-1.38,0.356l0,0c-1.444-1.383-2.715-2.936-3.784-4.626l0,0
			c-0.333-0.526,0.003-1.218,0.622-1.282l0,0c1.08-0.111,2.168-0.112,3.248-0.003l0.001,0
			C155.342,28.437,156.209,29.498,156.091,30.688z"/>
		<path fill="#EA9C98" d="M155.149,29.443L155.149,29.443c0.001,1.086-0.108,2.169-0.326,3.232l0,0
			c-0.125,0.609-0.847,0.875-1.337,0.492l0,0c-1.575-1.232-2.994-2.651-4.226-4.226l0,0c-0.383-0.49-0.118-1.212,0.492-1.337l0,0
			c1.063-0.218,2.146-0.327,3.232-0.326h0.001C154.179,27.278,155.148,28.247,155.149,29.443z"/>
		<g>
			<path fill="#4B5159" d="M157.728,49.738h4.422c0.282,0,0.511-0.229,0.511-0.511v-1.453h-5.444v1.453
				C157.217,49.509,157.446,49.738,157.728,49.738z"/>
			<path fill="#4B5159" d="M147.623,49.738h4.422c0.282,0,0.511-0.229,0.511-0.511v-1.453h-5.444v1.453
				C147.112,49.509,147.341,49.738,147.623,49.738z"/>
		</g>
	</g>
	<g clip-path="url(#SVGID_2_)">
		<g>
			<path fill="#806F5E" d="M-1.649,166.088h205.201c2.024,0,3.664,1.265,3.664,2.826v16.956c0,1.561-1.64,2.826-3.664,2.826H-1.649
				c-2.024,0-3.664-1.265-3.664-2.826v-16.956C-5.313,167.353-3.673,166.088-1.649,166.088z"/>
		</g>
		<g>
			<path fill="#CCB292" d="M38.658,149.132v144.124c0,1.561-1.64,2.826-3.664,2.826H13.008c-2.024,0-3.664-1.265-3.664-2.826
				V149.132l14.657-16.956L38.658,149.132z"/>
			<path fill="#CCB292" d="M89.959,149.132v144.124c0,1.561-1.64,2.826-3.664,2.826H64.308c-2.024,0-3.664-1.265-3.664-2.826
				V149.132l14.658-16.956L89.959,149.132z"/>
			<path fill="#CCB292" d="M141.259,149.132v144.124c0,1.561-1.64,2.826-3.664,2.826h-21.986c-2.024,0-3.664-1.265-3.664-2.826
				V149.132l14.657-16.956L141.259,149.132z"/>
			<path fill="#CCB292" d="M192.559,149.132v144.124c0,1.561-1.64,2.826-3.664,2.826h-21.986c-2.024,0-3.664-1.265-3.664-2.826
				V149.132l14.657-16.956L192.559,149.132z"/>
		</g>
		<g>
			<path fill="#806F5E" d="M24.001,174.565c-0.479-0.004-0.952-0.081-1.392-0.226c-0.444-0.143-0.853-0.344-1.21-0.593
				c-0.689-0.531-1.073-1.255-1.063-2.007c-0.013-0.371,0.087-0.739,0.293-1.073c0.185-0.343,0.445-0.658,0.769-0.933
				c0.868-0.659,2.101-0.945,3.296-0.764c0.243,0.028,0.479,0.085,0.698,0.171c0.225,0.056,0.436,0.141,0.623,0.254
				c0.218,0.113,0.404,0.226,0.587,0.339c0.324,0.275,0.584,0.59,0.77,0.933c0.483,0.869,0.364,1.867-0.316,2.654
				C26.376,174.106,25.227,174.575,24.001,174.565L24.001,174.565z"/>
			<path fill="#806F5E" d="M24.001,185.869c-0.479-0.004-0.952-0.081-1.392-0.226c-0.449-0.136-0.859-0.338-1.21-0.593
				c-0.689-0.531-1.073-1.255-1.063-2.007c0.005-0.749,0.386-1.468,1.063-2.007c0.878-0.667,2.128-0.954,3.335-0.764
				c0.229,0.032,0.451,0.09,0.658,0.171c0.234,0.061,0.455,0.146,0.658,0.254c0.183,0.113,0.369,0.226,0.551,0.339
				c0.675,0.539,1.056,1.257,1.063,2.007c0.01,0.752-0.374,1.475-1.063,2.006C25.913,185.581,24.976,185.877,24.001,185.869z"/>
			<path fill="#806F5E" d="M24.001,273.474c-0.479-0.004-0.952-0.081-1.392-0.226c-0.444-0.143-0.853-0.343-1.21-0.593
				c-0.689-0.531-1.073-1.255-1.063-2.007c-0.013-0.371,0.087-0.739,0.293-1.073c0.185-0.343,0.445-0.658,0.769-0.933
				c0.174-0.121,0.357-0.235,0.548-0.339c0.205-0.108,0.428-0.193,0.662-0.254c0.208-0.082,0.429-0.139,0.658-0.171
				c0.483-0.083,0.984-0.083,1.467,0c0.229,0.032,0.451,0.09,0.658,0.171c0.234,0.061,0.455,0.146,0.658,0.254
				c0.192,0.105,0.376,0.218,0.551,0.339c0.324,0.275,0.584,0.59,0.77,0.933c0.585,1.051,0.28,2.272-0.77,3.08
				c-0.357,0.249-0.766,0.45-1.21,0.594C24.953,273.393,24.48,273.469,24.001,273.474z"/>
			<path fill="#806F5E" d="M24.001,284.778c-0.479-0.004-0.952-0.081-1.392-0.226c-0.444-0.143-0.853-0.343-1.21-0.593
				c-0.678-0.537-1.059-1.257-1.063-2.007c-0.004-0.751,0.378-1.472,1.063-2.007c0.174-0.121,0.357-0.235,0.548-0.339
				c0.205-0.108,0.428-0.193,0.662-0.254c0.208-0.082,0.429-0.139,0.658-0.171c0.483-0.083,0.984-0.083,1.467,0
				c0.229,0.032,0.451,0.09,0.658,0.171c0.234,0.061,0.455,0.146,0.658,0.254c0.192,0.105,0.376,0.218,0.551,0.339
				c0.669,0.542,1.048,1.258,1.063,2.007c-0.005,0.749-0.386,1.468-1.063,2.007c-0.357,0.249-0.766,0.45-1.21,0.594
				C24.953,284.697,24.48,284.773,24.001,284.778L24.001,284.778z"/>
			<path fill="#806F5E" d="M75.302,174.565c-0.479-0.004-0.952-0.081-1.392-0.226c-0.449-0.136-0.859-0.338-1.21-0.594
				c-0.689-0.531-1.073-1.255-1.063-2.006c0.006-0.369,0.105-0.734,0.293-1.073c0.186-0.343,0.446-0.658,0.77-0.933l0.548-0.339
				c0.205-0.108,0.428-0.193,0.662-0.254c0.208-0.082,0.429-0.139,0.658-0.171c1.208-0.189,2.457,0.098,3.335,0.764
				c0.324,0.275,0.584,0.59,0.77,0.933c0.483,0.869,0.364,1.867-0.316,2.654C77.676,174.106,76.527,174.575,75.302,174.565
				L75.302,174.565z"/>
			<path fill="#806F5E" d="M75.302,185.869c-0.975,0.007-1.912-0.288-2.601-0.82s-1.072-1.255-1.063-2.006
				c0.006-0.19,0.03-0.379,0.071-0.566c0.042-0.177,0.116-0.348,0.222-0.508c0.079-0.181,0.19-0.353,0.329-0.511l0.44-0.422
				c1.048-0.815,2.632-1.06,4.007-0.62c1.375,0.44,2.268,1.478,2.259,2.626c0.01,0.752-0.374,1.475-1.063,2.006
				C77.214,185.581,76.276,185.877,75.302,185.869L75.302,185.869z"/>
			<path fill="#806F5E" d="M75.302,273.474c-0.479-0.004-0.952-0.081-1.392-0.226c-0.444-0.143-0.853-0.344-1.21-0.594
				c-0.689-0.531-1.073-1.255-1.063-2.006c0.006-0.369,0.105-0.734,0.293-1.073c0.177-0.346,0.438-0.663,0.77-0.933
				c0.865-0.662,2.101-0.949,3.296-0.764c0.243,0.028,0.479,0.085,0.698,0.171c0.225,0.056,0.436,0.142,0.623,0.254
				c0.21,0.097,0.407,0.211,0.587,0.339c0.669,0.542,1.048,1.258,1.063,2.007c0.008,0.752-0.374,1.474-1.063,2.007
				c-0.357,0.249-0.766,0.45-1.21,0.594C76.253,273.393,75.78,273.469,75.302,273.474L75.302,273.474z"/>
			<path fill="#806F5E" d="M75.302,284.778c-0.975,0.007-1.912-0.288-2.602-0.82c-0.323-0.275-0.583-0.591-0.77-0.933
				c-0.391-0.684-0.391-1.463,0-2.147c0.334-0.71,1.059-1.269,1.979-1.526c0.655-0.225,1.385-0.285,2.086-0.171
				c0.243,0.028,0.479,0.085,0.698,0.171c0.225,0.056,0.436,0.141,0.623,0.254c0.21,0.097,0.407,0.211,0.587,0.339
				c0.332,0.27,0.593,0.587,0.77,0.933c0.391,0.684,0.391,1.463,0,2.147c-0.186,0.342-0.446,0.658-0.77,0.933
				C77.213,284.489,76.276,284.784,75.302,284.778L75.302,284.778z"/>
			<path fill="#806F5E" d="M126.602,174.565c-0.479-0.004-0.952-0.081-1.392-0.226c-0.444-0.143-0.853-0.344-1.21-0.594
				c-0.689-0.531-1.073-1.255-1.063-2.006c-0.013-0.371,0.087-0.739,0.293-1.073c0.186-0.343,0.446-0.658,0.77-0.933
				c0.865-0.662,2.1-0.949,3.296-0.764c0.243,0.028,0.479,0.085,0.698,0.171c0.225,0.056,0.436,0.141,0.623,0.254
				c0.218,0.113,0.404,0.226,0.587,0.339c0.324,0.275,0.584,0.59,0.77,0.933c0.483,0.869,0.364,1.867-0.316,2.654
				C128.976,174.106,127.827,174.575,126.602,174.565L126.602,174.565z"/>
			<path fill="#806F5E" d="M126.602,185.869c-0.975,0.007-1.912-0.288-2.601-0.82c-0.689-0.531-1.072-1.255-1.063-2.006
				c0.005-0.749,0.386-1.468,1.063-2.007c0.878-0.667,2.128-0.954,3.335-0.764c0.229,0.032,0.451,0.09,0.658,0.171
				c0.234,0.061,0.455,0.146,0.658,0.254c0.183,0.113,0.369,0.226,0.551,0.339c0.675,0.539,1.056,1.257,1.063,2.007
				c0.01,0.752-0.374,1.475-1.063,2.006C128.514,185.581,127.576,185.877,126.602,185.869z"/>
			<path fill="#806F5E" d="M126.602,273.474c-1.226,0.01-2.375-0.459-3.056-1.245c-0.68-0.787-0.799-1.785-0.315-2.654
				c0.186-0.343,0.446-0.658,0.77-0.933c1.469-1.046,3.734-1.046,5.203,0c0.324,0.275,0.584,0.59,0.77,0.933
				c0.585,1.051,0.28,2.271-0.77,3.08c-0.357,0.249-0.766,0.45-1.21,0.594C127.554,273.393,127.08,273.469,126.602,273.474
				L126.602,273.474z"/>
			<path fill="#806F5E" d="M126.602,284.778c-0.975,0.007-1.912-0.288-2.602-0.82c-0.322-0.282-0.594-0.595-0.809-0.933
				c-0.175-0.342-0.262-0.707-0.254-1.074c-0.013-0.371,0.087-0.739,0.293-1.073c0.177-0.346,0.438-0.663,0.77-0.933
				c0.174-0.121,0.357-0.235,0.548-0.339c0.205-0.108,0.428-0.193,0.662-0.254c0.208-0.082,0.429-0.139,0.658-0.171
				c0.714-0.115,1.457-0.055,2.126,0.171c0.444,0.144,0.853,0.344,1.21,0.594c0.332,0.27,0.593,0.587,0.77,0.933
				c0.585,1.051,0.28,2.271-0.77,3.08c-0.357,0.249-0.766,0.45-1.21,0.594C127.554,284.697,127.08,284.773,126.602,284.778
				L126.602,284.778z"/>
			<path fill="#806F5E" d="M177.902,174.565c-1.226,0.01-2.375-0.459-3.056-1.245c-0.68-0.787-0.799-1.785-0.315-2.654
				c0.186-0.343,0.446-0.658,0.77-0.933l0.548-0.339c0.205-0.108,0.428-0.193,0.662-0.254c0.208-0.082,0.429-0.139,0.658-0.171
				c1.207-0.185,2.455,0.101,3.335,0.764c0.324,0.275,0.584,0.59,0.77,0.933c0.483,0.869,0.364,1.867-0.316,2.654
				C180.277,174.106,179.128,174.575,177.902,174.565L177.902,174.565z"/>
			<path fill="#806F5E" d="M177.902,185.869c-0.479-0.004-0.952-0.081-1.392-0.226c-0.444-0.143-0.853-0.344-1.21-0.594
				c-0.689-0.531-1.073-1.255-1.063-2.006c0.006-0.19,0.03-0.379,0.071-0.566c0.042-0.177,0.116-0.348,0.222-0.508
				c0.079-0.181,0.19-0.353,0.329-0.511l0.44-0.422c1.048-0.815,2.632-1.06,4.007-0.62c1.375,0.44,2.268,1.478,2.259,2.626
				c0.01,0.752-0.374,1.475-1.063,2.006C179.814,185.581,178.877,185.877,177.902,185.869L177.902,185.869z"/>
			<path fill="#806F5E" d="M177.902,273.474c-0.479-0.004-0.952-0.081-1.392-0.226c-0.444-0.143-0.853-0.344-1.21-0.594
				c-0.689-0.531-1.073-1.255-1.063-2.006c-0.013-0.371,0.087-0.739,0.293-1.073c0.186-0.343,0.446-0.658,0.77-0.933
				c0.174-0.121,0.357-0.235,0.548-0.339c0.205-0.108,0.428-0.193,0.662-0.254c0.208-0.082,0.429-0.139,0.658-0.171
				c0.47-0.083,0.958-0.083,1.428,0c0.243,0.028,0.479,0.085,0.698,0.171c0.234,0.061,0.455,0.146,0.658,0.254
				c0.192,0.105,0.376,0.218,0.551,0.339c0.324,0.275,0.584,0.59,0.77,0.933c0.585,1.051,0.28,2.272-0.77,3.08
				c-0.357,0.249-0.766,0.45-1.21,0.594C178.854,273.393,178.381,273.469,177.902,273.474L177.902,273.474z"/>
			<path fill="#806F5E" d="M177.902,284.778c-0.479-0.004-0.952-0.081-1.392-0.226c-0.449-0.136-0.859-0.338-1.21-0.594
				c-0.689-0.531-1.073-1.255-1.063-2.006c0.006-0.369,0.105-0.734,0.293-1.073c0.334-0.71,1.059-1.269,1.979-1.526
				c0.655-0.225,1.385-0.285,2.086-0.171c0.243,0.028,0.479,0.085,0.698,0.171c0.225,0.056,0.436,0.141,0.623,0.254
				c0.21,0.097,0.407,0.211,0.587,0.339c0.332,0.27,0.593,0.587,0.77,0.933c0.391,0.684,0.391,1.463,0,2.147
				c-0.334,0.71-1.059,1.269-1.979,1.526C178.854,284.696,178.381,284.773,177.902,284.778L177.902,284.778z"/>
		</g>
	</g>
	<g clip-path="url(#SVGID_2_)">
		<path fill="#EB7533" d="M66.392,94.224c-1.177-1.172-3.079-1.172-4.256,0l-0.244,0.245v-0.953c0-1.662-1.348-3.01-3.01-3.01
			s-3.01,1.348-3.01,3.01v0.708c-1.197-1.172-3.111-1.171-4.308,0.001c-1.172,1.177-1.171,3.08,0.001,4.257
			c2.67,2.546,3.476,3.06,3.476,3.06h8.584c0,0,2.754-3.047,2.768-3.061C67.565,97.303,67.565,95.4,66.392,94.224z"/>
		<path fill="#E2601E" d="M66.392,94.224c-1.024-1.018-2.626-1.168-3.821-0.357c-0.679,4.665-9.827,5.666-9.887,5.665
			c1.784,1.644,2.357,2.01,2.357,2.01h8.584c0,0,2.754-3.047,2.768-3.061C67.565,97.303,67.565,95.4,66.392,94.224z"/>
		<path fill="#F7E0BA" d="M71.925,151.705c-0.554,0-1.003-0.449-1.003-1.003v-5.016c0-0.554,0.449-1.003,1.003-1.003
			c0.554,0,1.003,0.449,1.003,1.003v5.016C72.928,151.255,72.479,151.705,71.925,151.705z"/>
		<path fill="#F7E0BA" d="M83.964,151.705c-0.554,0-1.003-0.449-1.003-1.003v-5.016c0-0.554,0.449-1.003,1.003-1.003
			c0.554,0,1.003,0.449,1.003,1.003v5.016C84.968,151.255,84.519,151.705,83.964,151.705z"/>
		<path fill="#F6D6A0" d="M72.928,152.708h-6.02c-0.554,0-1.003-0.449-1.003-1.003c0-0.554,0.449-1.003,1.003-1.003h6.02
			c0.554,0,1.003,0.449,1.003,1.003C73.932,152.259,73.483,152.708,72.928,152.708z"/>
		<path fill="#F6D6A0" d="M84.968,152.708h-6.02c-0.554,0-1.003-0.449-1.003-1.003c0-0.554,0.449-1.003,1.003-1.003h6.02
			c0.554,0,1.003,0.449,1.003,1.003C85.971,152.259,85.522,152.708,84.968,152.708z"/>
		<path fill="#EB7533" d="M51.86,116.59h-6.02c-0.555-0.001-1.003-0.452-1.002-1.006c0.001-0.265,0.106-0.519,0.293-0.706l6.02-6.02
			c0.393-0.391,1.028-0.39,1.42,0.003c0.187,0.188,0.292,0.442,0.293,0.707v6.02C52.863,116.141,52.414,116.59,51.86,116.59z"/>
		<path fill="#E2601E" d="M51.15,108.858l-1.299,1.299c-0.03,2.661-1.464,5.107-3.77,6.433h5.779c0.554,0,1.003-0.449,1.003-1.003
			v-6.02c-0.001-0.555-0.451-1.003-1.006-1.002C51.592,108.566,51.338,108.671,51.15,108.858z"/>
		<path fill="#FCDB5B" d="M83.953,147.692h-0.202c-2.204-0.004-4.028-1.715-4.173-3.914l-0.071-1.103h-3.11l-0.075,1.119
			c-0.001,0.021-0.004,0.042-0.006,0.063c-0.316,2.413-2.529,4.113-4.942,3.797c-2.002-0.262-3.57-1.852-3.804-3.858l-0.005-0.045
			c-0.193-1.563-1.117-2.941-2.489-3.714c-8.79-4.978-14.222-14.3-14.218-24.402v-7.609c0-4.69,3.802-8.492,8.492-8.492
			c4.256,0,7.855,3.151,8.418,7.37c0.598,4.39,4.341,7.667,8.771,7.679h22.349l3.746-2.809c0.443-0.332,1.072-0.243,1.405,0.201
			c0.053,0.07,0.096,0.147,0.129,0.229c0.225,0.561,2.056,5.394-0.351,7.893c-0.87,5.06-2.447,9.454-4.69,13.067
			c-2.393,3.854-5.412,6.598-8.972,8.159c-1.005,0.447-1.699,1.391-1.826,2.483C88.062,146.022,86.184,147.691,83.953,147.692
			L83.953,147.692z"/>
		<path fill="#F1C741" d="M104.166,112.205c-0.206-0.514-0.79-0.765-1.304-0.559c-0.082,0.033-0.159,0.076-0.229,0.129l-3.746,2.809
			h-8.221c-1.859,13.387-12.829,23.858-26.449,24.945c0.283,0.174,0.569,0.344,0.858,0.509c1.372,0.772,2.296,2.151,2.489,3.714
			l0.005,0.045c0.282,2.417,2.471,4.148,4.888,3.866c2.006-0.234,3.596-1.802,3.858-3.804c0.003-0.021,0.005-0.042,0.006-0.063
			l0.075-1.119h3.11l0.071,1.103c0.145,2.199,1.97,3.91,4.173,3.913h0.202c2.231-0.001,4.11-1.67,4.373-3.886
			c0.128-1.092,0.822-2.036,1.826-2.483c3.561-1.56,6.58-4.305,8.972-8.159c2.243-3.612,3.82-8.007,4.69-13.067
			C106.222,117.598,104.39,112.766,104.166,112.205L104.166,112.205z"/>
		<path fill="#020203" d="M56.876,107.561c0,0.554-0.449,1.003-1.003,1.003s-1.003-0.449-1.003-1.003
			c0-0.554,0.449-1.003,1.003-1.003S56.876,107.007,56.876,107.561"/>
		<g>
			<path fill="#EDB722" d="M102.673,121.607h-5.666c-0.554,0-1.003-0.449-1.003-1.003c0-0.554,0.449-1.003,1.003-1.003h5.666
				c0.554,0,1.003,0.449,1.003,1.003C103.676,121.157,103.227,121.607,102.673,121.607z"/>
			<path fill="#EDB722" d="M101.228,125.62h-7.023c-0.554,0-1.003-0.449-1.003-1.003c0-0.554,0.449-1.003,1.003-1.003h7.023
				c0.554,0,1.003,0.449,1.003,1.003C102.231,125.171,101.782,125.62,101.228,125.62z"/>
			<path fill="#EDB722" d="M72.928,143.679c0,0.554,0.449,1.003,1.003,1.003h2.194c0.09-0.268,0.154-0.544,0.19-0.824
				c0.003-0.021,0.005-0.042,0.006-0.063l0.075-1.119h-2.466C73.378,142.676,72.929,143.125,72.928,143.679L72.928,143.679z"/>
			<path fill="#EDB722" d="M85.971,142.675c-0.554,0-1.003,0.449-1.003,1.003c0,0.554,0.449,1.003,1.003,1.003h2.158
				c0.095-0.285,0.161-0.578,0.197-0.876c0.047-0.396,0.17-0.78,0.361-1.131H85.971z"/>
			<path fill="#EDB722" d="M90.541,133.814c-2.704-1.802-4.613-6.489-4.641-6.561c-0.206-0.514-0.79-0.765-1.304-0.559
				c-0.514,0.206-0.765,0.79-0.559,1.304l0,0c0.067,0.167,1.319,3.257,3.375,5.647h-2.129c-2.615-1.883-4.414-5.429-4.433-5.465
				c-0.252-0.494-0.856-0.69-1.35-0.438c-0.488,0.249-0.686,0.843-0.445,1.336c0.868,1.658,1.95,3.193,3.22,4.568h-3.01
				c-2.458-1.813-3.348-5.226-3.356-5.26c-0.131-0.538-0.673-0.869-1.211-0.739c-0.538,0.131-0.869,0.673-0.739,1.211
				c0.001,0.005,0.002,0.009,0.003,0.014c0.451,1.613,1.195,3.128,2.195,4.471c-5.981-1.319-10.243-6.616-10.251-12.741
				c0-0.554-0.449-1.003-1.003-1.003c-0.554,0-1.003,0.449-1.003,1.003c0.009,8.307,6.741,15.039,15.048,15.049h11.037
				c0.555-0.002,1.003-0.452,1.001-1.007C90.984,134.312,90.818,134,90.541,133.814L90.541,133.814z"/>
		</g>
		<circle fill="#F39566" cx="53.365" cy="96.023" r="1.505"/>
		<circle fill="#FFEAAA" cx="60.889" cy="104.551" r="2.007"/>
		<circle fill="#FFEAAA" cx="63.899" cy="107.561" r="1.003"/>
	</g>
</g>
<g>
	<path fill="#FBCB9E" d="M161.304,120.344c0.745,3.072,2.085,7.157,3.939,7.157c1.446,0,2.404-2.866,3.006-5.81
		C164.76,122.151,161.882,120.668,161.304,120.344z"/>
	<path fill="#FBCB9E" d="M143.765,118.969c0,0-3.478,1.969-7.356,1.557c0.754,3.049,2.077,6.975,3.895,6.975
		c1.899,0,2.956-4.943,3.472-8.512C143.769,118.977,143.765,118.969,143.765,118.969z"/>
	<path fill="#FFE9C9" d="M129.919,100.491c0,0-3.921-7.035,0-12.482c3.752-5.212,10.293-3.294,10.293-3.294s2.339-5.252,7.524-6.064
		c5.666-0.888,8.624,3.667,8.624,3.667s6.094-2.999,10.564,0.552c4.448,3.532,3.26,8.211,3.26,8.211s6.106,0.248,7.565,5.906
		c1.365,5.295-2.318,8.771-2.318,8.771s4.629,8.615-2.294,13.881c-5.796,4.409-11.939,0.645-11.939,0.645s-3.036,4.286-10.321,3.391
		c-5.058-0.621-7.112-4.704-7.112-4.704s-7.371,4.175-12.617-0.903C125.262,112.37,129.919,100.491,129.919,100.491z"/>
	<path fill="#F9B980" d="M143.775,118.989c-0.006-0.011-0.011-0.02-0.011-0.02s-3.478,1.969-7.356,1.557
		c0.236,0.957,0.529,2,0.876,2.981c2.6,0.051,4.903-0.857,5.923-1.332C143.444,121.098,143.631,119.989,143.775,118.989z"/>
	<path fill="#F9B980" d="M161.304,120.344c0.264,1.087,0.602,2.299,1.01,3.413c1.118,0.469,2.98,1.05,5.146,0.935
		c0.312-0.906,0.573-1.947,0.789-3C164.76,122.151,161.882,120.668,161.304,120.344z"/>
	<path fill="#FEDCA7" d="M170.184,88.153c0,0,0.005,0,0.013,0.001c-0.002-0.01-0.004-0.021-0.006-0.031
		C170.187,88.143,170.184,88.153,170.184,88.153z"/>
	<path fill="#FEDCA7" d="M173.137,116.71c-5.796,4.409-11.939,0.645-11.939,0.645s-3.036,4.286-10.321,3.391
		c-5.059-0.621-7.112-4.704-7.112-4.704s-7.371,4.175-12.616-0.902c-1.922-1.86-2.72-4.38-2.923-6.93
		c-0.245,3.436,0.259,7.279,2.923,9.857c5.246,5.077,12.616,0.902,12.616,0.902s2.054,4.083,7.112,4.704
		c7.285,0.895,10.321-3.391,10.321-3.391s6.143,3.764,11.939-0.645c3.564-2.711,4.067-6.309,3.715-9.162
		C176.564,112.622,175.556,114.871,173.137,116.71z"/>
	<path fill="#FBCB9E" d="M143.731,99.818c-0.976-4.732-6.25-7.176-10.559-4.992c-4.023,2.039-9.27,5.41-8.904,8.988
		c0.447,4.371,6.954,6.215,12.68,5.43c4.464-0.612,7.619-4.787,6.822-9.222C143.759,99.955,143.745,99.887,143.731,99.818z"/>
	<path fill="#F9B980" d="M143.754,99.935c-0.63,3.252-3.317,5.903-6.805,6.382c-5.207,0.715-11.059-0.746-12.414-4.303
		c-0.229,0.591-0.329,1.193-0.267,1.801c0.447,4.371,6.954,6.215,12.68,5.43c4.464-0.612,7.619-4.787,6.822-9.222
		C143.766,99.994,143.759,99.965,143.754,99.935z"/>
	<path fill="#443F43" d="M135.856,98.448c-0.923,0-1.646,0.897-1.646,2.043s0.723,2.043,1.646,2.043
		c0.923,0,1.645-0.897,1.645-2.043S136.778,98.448,135.856,98.448z"/>
	<path fill="#FBCB9E" d="M140.565,91.542c0,0-0.521-3.468,2.803-3.29c3.246,0.174,3.219,4.19,0.914,4.925L140.565,91.542z"/>
</g>
</svg>
