<?xml version="1.0" encoding="utf-8"?>
<!-- Generator: Adobe Illustrator 23.0.0, SVG Export Plug-In . SVG Version: 6.00 Build 0)  -->
<svg version="1.1" id="Calque_1" xmlns="http://www.w3.org/2000/svg" xmlns:xlink="http://www.w3.org/1999/xlink" x="0px" y="0px"
	 viewBox="0 0 200 200" enable-background="new 0 0 200 200" xml:space="preserve">
<rect y="0" fill="#77A790" width="200" height="200"/>
<g>
	<path fill="#8D4915" d="M133.194,124.393c0,15.08-10.583,27.305-23.639,27.305H29.787V97.091h79.768
		C122.611,97.091,133.194,109.317,133.194,124.393L133.194,124.393z"/>
	<ellipse fill="#FEE7D0" cx="29.786" cy="124.395" rx="23.641" ry="27.303"/>
	<path fill="#A45618" d="M163.294,75.603c0,15.08-10.583,27.305-23.639,27.305H59.887V48.301h79.768
		C152.711,48.301,163.294,60.527,163.294,75.603L163.294,75.603z"/>
	<path fill="#C06823" d="M193.855,124.393c0,15.08-10.583,27.305-23.639,27.305H90.448V97.091h79.768
		C183.273,97.091,193.855,109.317,193.855,124.393L193.855,124.393z"/>
	<g>
		<path fill="#8D4915" d="M117.118,68.779c0-1.518-1.231-2.749-2.75-2.749H82.783c-1.519,0-2.75,1.231-2.75,2.749
			c0,1.518,1.231,2.749,2.75,2.749h31.585C115.887,71.528,117.118,70.297,117.118,68.779z"/>
		<path fill="#8D4915" d="M162.348,83.266c-0.484,1.928-1.151,3.771-1.976,5.497h-46.004c-1.518,0-2.75-1.228-2.75-2.749
			c0-1.517,1.232-2.749,2.75-2.749L162.348,83.266z"/>
		<path fill="#8D4915" d="M131.43,71.528h10.722c1.519,0,2.75-1.231,2.75-2.749c0-1.518-1.231-2.749-2.75-2.749H131.43
			c-1.519,0-2.75,1.231-2.75,2.749C128.681,70.298,129.912,71.528,131.43,71.528z"/>
	</g>
	<path fill="#A45618" d="M170.399,114.865c0-1.518-1.231-2.749-2.75-2.749h-55.042c-1.519,0-2.75,1.231-2.75,2.749
		s1.231,2.749,2.75,2.749h55.042C169.169,117.614,170.399,116.383,170.399,114.865z"/>
	<path fill="#A45618" d="M192.62,133.125c-0.568,1.939-1.316,3.782-2.229,5.497h-35.493c-1.518,0-2.75-1.231-2.75-2.749
		c0-1.521,1.232-2.749,2.75-2.749H192.62z"/>
	<path fill="#A45618" d="M135.247,133.123h-8.848c-1.519,0-2.75,1.231-2.75,2.749s1.231,2.749,2.75,2.749h8.848
		c1.519,0,2.75-1.231,2.75-2.749S136.765,133.123,135.247,133.123z"/>
	<ellipse fill="#FEE7D0" cx="59.886" cy="75.605" rx="23.641" ry="27.303"/>
	<ellipse fill="#FEE7D0" cx="90.448" cy="124.395" rx="23.641" ry="27.303"/>
	<path fill="#F3CEAF" d="M29.786,106.508c-8.744,0-15.857,8.024-15.857,17.886c0,1.518,1.231,2.749,2.75,2.749
		c1.519,0,2.75-1.231,2.75-2.749c0-6.831,4.647-12.389,10.358-12.389s10.358,5.558,10.358,12.389s-4.647,12.389-10.358,12.389
		c-1.519,0-2.75,1.231-2.75,2.749s1.231,2.749,2.75,2.749c8.744,0,15.857-8.024,15.857-17.886S38.529,106.508,29.786,106.508z"/>
	<path fill="#F3CEAF" d="M75.823,75.605c0-9.913-7.149-17.978-15.937-17.978s-15.937,8.065-15.937,17.978
		c0,9.913,7.149,17.978,15.937,17.978c1.519,0,2.75-1.231,2.75-2.749s-1.231-2.749-2.75-2.749c-5.755,0-10.438-5.599-10.438-12.481
		s4.682-12.481,10.438-12.481s10.437,5.599,10.437,12.481c0,1.518,1.231,2.749,2.75,2.749S75.823,77.123,75.823,75.605z"/>
	<path fill="#F3CEAF" d="M90.448,105.74c-1.519,0-2.75,1.231-2.75,2.749c0,1.518,1.231,2.749,2.75,2.749
		c6.078,0,11.023,5.903,11.023,13.158c0,7.255-4.945,13.157-11.023,13.157c-6.078,0-11.023-5.903-11.023-13.157
		c0-1.518-1.231-2.749-2.75-2.749c-1.519,0-2.75,1.231-2.75,2.749c0,10.286,7.412,18.655,16.523,18.655s16.523-8.369,16.523-18.655
		S99.558,105.74,90.448,105.74L90.448,105.74z"/>
</g>
</svg>
