<?xml version="1.0" encoding="utf-8"?>
<!-- Generator: Adobe Illustrator 23.0.0, SVG Export Plug-In . SVG Version: 6.00 Build 0)  -->
<svg version="1.1" id="Calque_1" xmlns="http://www.w3.org/2000/svg" xmlns:xlink="http://www.w3.org/1999/xlink" x="0px" y="0px"
	 viewBox="0 0 200 200" enable-background="new 0 0 200 200" xml:space="preserve">
<rect fill="#63798F" width="200" height="200"/>
<g>
	<path fill="#FCD7BD" d="M164.855,162.117l-51.499-0.252c-3.669-0.016-7.179-1.416-9.839-3.923
		c-2.667-2.511-6.179-3.926-9.856-3.944l-6.894-0.032l0.304-57.594l25.81-24.068c2.009-1.875,3.782-3.953,5.298-6.191
		c3.924-5.791,6.126-12.641,6.242-19.72c0.03-1.742,0.576-3.362,1.49-4.71c1.561-2.304,4.197-3.815,7.162-3.8
		c4,0.017,7.411,2.83,8.203,6.758l1.415,6.996c1.612,8.008,1.423,16.3-0.564,24.264l-1.938,7.784l34.232,0.204
		c5.47,0.027,9.812,4.579,9.57,10.108c-0.23,5.328-4.785,9.488-10.093,9.461c-0.064,0-0.099,0.046-0.109,0.092
		c-0.006,0.052,0.02,0.11,0.085,0.122c1.177,0.267,2.27,0.75,3.236,1.404c1.543,1.045,2.765,2.531,3.492,4.272
		c0.501,1.2,0.767,2.524,0.745,3.915c-0.045,2.683-1.161,5.11-2.931,6.867c-2.79,2.773-6.198,2.864-6.858,2.869
		c-0.113,0.001-0.207,0.094-0.208,0.211c-0.002,0.003,0,0.007,0.003,0.01c0.001,0.106,0.09,0.196,0.196,0.198
		c0.749,0.278,1.452,0.646,2.106,1.089c1.596,1.081,2.872,2.615,3.63,4.399c0.512,1.208,0.79,2.536,0.766,3.915
		c-0.088,5.403-4.52,9.763-9.9,9.736c-0.134,0.001-0.268,0.002-0.4-0.001c-0.081,0.005-0.142,0.063-0.148,0.129
		c-0.002,0.016,0.002,0.037,0.01,0.05c0.019,0.061,0.082,0.108,0.163,0.103c2.836,0.764,5.093,2.82,6.212,5.505
		c0.519,1.23,0.79,2.597,0.767,4.033C174.664,157.784,170.233,162.144,164.855,162.117z"/>
	<path fill="#8ED3F6" d="M23.762,86.936l37.32-0.262l22.16,0.109c2.552,0.011,4.585,2.101,4.543,4.667l-1.07,65.637
		c-0.045,2.569-2.149,4.636-4.706,4.625l-21.725-0.108l-32.139-0.338c-14.187-21.853-16.331-50.155-4.398-74.302
		C23.754,86.955,23.756,86.945,23.762,86.936z"/>
	<path fill="#7AC3ED" d="M82.01,161.712l-21.726-0.105l0.798-74.932l22.16,0.108c2.552,0.012,4.588,2.104,4.544,4.671l-1.07,65.637
		C86.672,159.657,84.567,161.723,82.01,161.712z"/>
</g>
</svg>
